<svg id="Layer_1" data-name="Layer 1" xmlns="http://www.w3.org/2000/svg" viewBox="0 0 500 60">
  <path d="M68.35,58a15.64,15.64,0,0,1-5.53-1,12,12,0,0,1-4.48-2.95,13.79,13.79,0,0,1-3-5,20.89,20.89,0,0,1-1.08-7.07V29.89l9.62-6h.46V40a9.9,9.9,0,0,0,2,6.59q2,2.36,6,2.36h.8q4,0,6-2.36a9.9,9.9,0,0,0,2-6.59V23.89h.44l9.65,6V42.07a20.89,20.89,0,0,1-1.08,7.07,13.92,13.92,0,0,1-3,5,12,12,0,0,1-4.49,2.95,15.62,15.62,0,0,1-5.52,1Z" fill="#fff"/>
  <path d="M91.25,23.25v-5a7.86,7.86,0,0,0-1.08-4.18,9,9,0,0,0-3-3,14.81,14.81,0,0,0-4.49-1.74,25.42,25.42,0,0,0-5.52-.57h-1V1H69.39V8.8h-1a25.45,25.45,0,0,0-5.53.57,14.64,14.64,0,0,0-4.48,1.74,8.89,8.89,0,0,0-3,3,7.86,7.86,0,0,0-1.08,4.18v5h1.11L65.6,16.89l6.59,10.55h1.13l6.59-10.55,10.23,6.36Z" fill="#fff"/>
  <polygon points="183.96 1 183.96 56.9 194.02 56.9 194.02 41.41 195.94 41.41 207.28 56.9 218.78 56.9 218.78 56.42 204.72 37.34 204.72 35.9 217.5 17.77 217.5 17.29 206.48 17.29 195.94 31.83 194.02 31.83 194.02 1 183.96 1" fill="#fff"/>
  <path d="M112.82,26.2a6.59,6.59,0,0,1,3.84-.92,7.7,7.7,0,0,1,4.55,1.24,6.53,6.53,0,0,1,2.47,3.39l9.11-3.67A17.85,17.85,0,0,0,131,22.76a13.87,13.87,0,0,0-3.11-3.27,15.61,15.61,0,0,0-4.68-2.4,20.63,20.63,0,0,0-6.5-.92,19.72,19.72,0,0,0-5.59.8,15,15,0,0,0-4.8,2.36,12.4,12.4,0,0,0-3.35,3.79,10.29,10.29,0,0,0-1.28,5.19v.48q0,5.67,4,8.59t10.67,3.47a29.36,29.36,0,0,1,4.11.64,9.11,9.11,0,0,1,2.6,1,3.57,3.57,0,0,1,1.31,1.28,3.08,3.08,0,0,1,.36,1.47,3.26,3.26,0,0,1-1.4,2.52c-.93.77-2.64,1.16-5.15,1.16q-4.23,0-6.27-1.92a9.1,9.1,0,0,1-2.67-4.47l-9.27,3a15.69,15.69,0,0,0,1.56,4.28,13.3,13.3,0,0,0,3.32,4,17.73,17.73,0,0,0,5.43,3,23,23,0,0,0,7.9,1.2q7.83,0,12.14-3.51a11.53,11.53,0,0,0,4.32-9.43V44.6a10,10,0,0,0-3.84-8.34,18.87,18.87,0,0,0-9.9-3.63,29.62,29.62,0,0,1-7.27-1.4,2.86,2.86,0,0,1-2-2.76,2.72,2.72,0,0,1,1.28-2.27" fill="#fff"/>
  <path d="M153.3,26.2a6.58,6.58,0,0,1,3.83-.92,7.71,7.71,0,0,1,4.56,1.24,6.53,6.53,0,0,1,2.47,3.39l9.11-3.67a17.85,17.85,0,0,0-1.84-3.48,13.87,13.87,0,0,0-3.11-3.27,15.61,15.61,0,0,0-4.68-2.4,20.65,20.65,0,0,0-6.51-.92,19.83,19.83,0,0,0-5.59.8,15.1,15.1,0,0,0-4.79,2.36,12.4,12.4,0,0,0-3.35,3.79,10.29,10.29,0,0,0-1.28,5.19v.48q0,5.67,3.95,8.59t10.67,3.47a29.36,29.36,0,0,1,4.11.64,8.91,8.91,0,0,1,2.59,1,3.53,3.53,0,0,1,1.32,1.28,3.08,3.08,0,0,1,.36,1.47,3.29,3.29,0,0,1-1.4,2.52q-1.4,1.16-5.15,1.16-4.23,0-6.27-1.92a9.1,9.1,0,0,1-2.67-4.47l-9.27,3a15.69,15.69,0,0,0,1.56,4.28,13.3,13.3,0,0,0,3.32,4,17.73,17.73,0,0,0,5.43,3,23,23,0,0,0,7.9,1.2q7.83,0,12.14-3.51A11.52,11.52,0,0,0,175,45.08V44.6a10,10,0,0,0-3.83-8.34,18.87,18.87,0,0,0-9.9-3.63,29.62,29.62,0,0,1-7.27-1.4,2.86,2.86,0,0,1-2-2.76,2.72,2.72,0,0,1,1.28-2.27" fill="#fff"/>
  <path d="M235.92,36.3a13.27,13.27,0,0,1,2.2-8c1.46-2,3.69-3,6.67-3a7.24,7.24,0,0,1,5.87,2.43,10.08,10.08,0,0,1,2,6.67V56.9h10.07V31.83a20.49,20.49,0,0,0-1.08-7,13.14,13.14,0,0,0-3-4.87,12,12,0,0,0-4.43-2.84,15.65,15.65,0,0,0-5.39-.92A13.54,13.54,0,0,0,241.75,18a10.59,10.59,0,0,0-4.39,5.19h-1.44V17.29H225.86V56.9h10.06Z" fill="#fff"/>
  <path d="M299.76,37.58a11.38,11.38,0,0,1-2.64,7.94,9.91,9.91,0,0,1-14.05,0,11.38,11.38,0,0,1-2.64-7.94v-1a11.41,11.41,0,0,1,2.64-7.95,9.93,9.93,0,0,1,14.05,0,11.41,11.41,0,0,1,2.64,7.95ZM313.49,56.9V47.32H312q-2.16,0-2.16-2.4V17.29H299.76v4.79h-1.44a10.07,10.07,0,0,0-4.11-4.47,14.05,14.05,0,0,0-6.83-1.44,15.68,15.68,0,0,0-12,5.43A19.77,19.77,0,0,0,271.72,28a25,25,0,0,0-1.35,8.47v1.28a24.4,24.4,0,0,0,1.39,8.54,19.54,19.54,0,0,0,3.8,6.39,15.82,15.82,0,0,0,5.55,4A16.79,16.79,0,0,0,287.86,58a13.88,13.88,0,0,0,6.71-1.56A10.32,10.32,0,0,0,299,51.15h1.43a5.44,5.44,0,0,0,1.72,4.16,6.27,6.27,0,0,0,4.43,1.59Z" fill="#fff"/>
  <path d="M351.46,39.89a11,11,0,0,1-3.15,6.23q-2.43,2.33-7.07,2.32a12.16,12.16,0,0,1-4.07-.68,9.31,9.31,0,0,1-3.36-2,9.67,9.67,0,0,1-2.27-3.39,12.19,12.19,0,0,1-.84-4.67v-.48a12.76,12.76,0,0,1,.84-4.75,11,11,0,0,1,2.27-3.6,10,10,0,0,1,3.36-2.27,10.33,10.33,0,0,1,4.07-.8q4.63,0,7.19,2.55a10.35,10.35,0,0,1,3,6.07l9.91-2.55a19,19,0,0,0-6.51-11.34q-5.16-4.32-13.46-4.32a22.6,22.6,0,0,0-8.1,1.44,19.59,19.59,0,0,0-6.63,4.15,19.38,19.38,0,0,0-4.44,6.55,22.34,22.34,0,0,0-1.59,8.63v1a21.71,21.71,0,0,0,1.59,8.54,17.82,17.82,0,0,0,4.4,6.31,19,19,0,0,0,6.59,3.91A23.92,23.92,0,0,0,341.4,58q8.46,0,13.54-4.31a19.22,19.22,0,0,0,6.43-11.34Z" fill="#fff"/>
  <polygon points="369.25 1 369.25 56.9 379.32 56.9 379.32 41.41 381.23 41.41 392.57 56.9 404.07 56.9 404.07 56.42 390.02 37.34 390.02 35.9 402.8 17.77 402.8 17.29 391.78 17.29 381.23 31.83 379.32 31.83 379.32 1 369.25 1" fill="#fff"/>
  <path d="M437.7,31.75H419a8.87,8.87,0,0,1,3.11-4.51,9.5,9.5,0,0,1,6.23-2,10.45,10.45,0,0,1,6.35,1.84,7,7,0,0,1,3,4.63m10.23,8.62V35a20.26,20.26,0,0,0-1.12-6.43,18,18,0,0,0-3.52-6.07A19,19,0,0,0,437.23,18a19.8,19.8,0,0,0-8.79-1.8,20.61,20.61,0,0,0-7.79,1.48,19.85,19.85,0,0,0-6.35,4.11A18.92,18.92,0,0,0,410,28.15a21.47,21.47,0,0,0-1.56,8.31v.48A25,25,0,0,0,410,45.8a18.83,18.83,0,0,0,4.15,6.63,18,18,0,0,0,6.35,4.15A22.18,22.18,0,0,0,428.6,58a23.64,23.64,0,0,0,6.83-.88,18.58,18.58,0,0,0,4.95-2.23,14,14,0,0,0,3.31-3,17.22,17.22,0,0,0,2-3.15L437.07,44a8,8,0,0,1-2.88,3.15,10.43,10.43,0,0,1-5.75,1.32,10.88,10.88,0,0,1-3.63-.6,9.87,9.87,0,0,1-3-1.68,7.92,7.92,0,0,1-2.07-2.55,7.7,7.7,0,0,1-.84-3.24Z" fill="#fff"/>
  <path d="M454.93,26.88h7.19V47.32H454V56.9h27.31V47.32h-9.1V34.54q0-4.3,1.92-6.63a6.46,6.46,0,0,1,5.27-2.31,6.28,6.28,0,0,1,5,1.95,7.78,7.78,0,0,1,1.68,5.24V33.9L496.46,33V31.19q0-7.59-3.6-11.3a12.59,12.59,0,0,0-9.5-3.72,11.25,11.25,0,0,0-6.43,1.8A9.67,9.67,0,0,0,473.14,23H471.7V17.29H454.93Z" fill="#fff"/>
  <polygon points="33.63 1.04 33.63 49.83 32.19 49.83 21.07 1.04 1 1.04 1 57.03 11.4 57.03 11.4 8.24 12.84 8.24 23.95 57.03 44.03 57.03 44.03 1.04 33.63 1.04" fill="#fff"/>
</svg>
