<svg viewBox="0 0 35 35" xmlns="http://www.w3.org/2000/svg"><path d="M28.425 18.931c.061-.479.095-.961.103-1.444a13.171 13.171 0 0 0-.103-1.444l3.092-2.415a.74.74 0 0 0 .179-.946l-2.939-5.109a.738.738 0 0 0-.894-.319l-3.654 1.468a11.086 11.086 0 0 0-2.491-1.418l-.55-3.833a.728.728 0 0 0-.728-.677h-5.877a.717.717 0 0 0-.717.613l-.561 3.833c-.884.375-1.717.86-2.478 1.443L7.152 7.279a.727.727 0 0 0-.906.319l-2.939 5.111a.728.728 0 0 0 .179.945l3.155 2.389a10.272 10.272 0 0 0 0 2.888l-3.155 2.415a.763.763 0 0 0-.179.945l2.939 5.11a.75.75 0 0 0 .906.32l3.655-1.469a10.952 10.952 0 0 0 2.478 1.444l.561 3.896a.719.719 0 0 0 .717.614h5.877a.728.728 0 0 0 .728-.614l.55-3.896a11.512 11.512 0 0 0 2.491-1.444l3.654 1.469a.713.713 0 0 0 .894-.32l2.939-5.11a.739.739 0 0 0-.179-.945Zm-10.924 6.388c-6.049-.009-9.819-6.564-6.785-11.797 3.032-5.233 10.593-5.222 13.609.022a7.851 7.851 0 0 1 1.046 3.918 7.87 7.87 0 0 1-7.87 7.882Z" fill="currentColor"/></svg>