<svg xmlns="http://www.w3.org/2000/svg" viewBox="0 0 35 35"><path fill="currentColor" d="M17.5 12.5a1 1 0 0 0-1 1v4a1 1 0 0 0 2 0v-4a1 1 0 0 0-1-1Zm0 8a1 1 0 1 0 1 1 1 1 0 0 0-1-1Zm9.71-7.44-5.27-5.27a1.05 1.05 0 0 0-.71-.29h-7.46a1.05 1.05 0 0 0-.71.29l-5.27 5.27a1.05 1.05 0 0 0-.29.71v7.46a1.05 1.05 0 0 0 .29.71l5.27 5.27a1.05 1.05 0 0 0 .71.29h7.46a1.05 1.05 0 0 0 .71-.29l5.27-5.27a1.05 1.05 0 0 0 .29-.71v-7.46a1.05 1.05 0 0 0-.29-.71Zm-1.71 7.75-4.69 4.69h-6.62L9.5 20.81v-6.62l4.69-4.69h6.62l4.69 4.69Z"/></svg>