<svg xmlns="http://www.w3.org/2000/svg" viewBox="0 0 20 20">
    <defs>
        <style>.a { fill: #fff; } .b { fill: none; }</style>
    </defs>
    <title>node-enricher</title>
    <g>
        <path class="a"
              d="M19,8a.57.57,0,0,1,0,.73l-8.57,9.14a.58.58,0,0,1-.84,0L1,8.77A.57.57,0,0,1,1,8L4.4,3.46a.55.55,0,0,1,.46-.23H15.14a.55.55,0,0,1,.46.23ZM7.48,4.37H5.14L2.57,7.8H5.66Zm.83,10.51L5.63,8.94H2.75Zm4.8-5.94H6.88L10,15.84ZM13,7.8,11.22,4.37H8.78L7,7.8Zm4.21,1.14H14.37l-2.68,5.94Zm.18-1.14L14.86,4.37H12.52L14.34,7.8Z"/>
        <rect class="b" width="20" height="20"/>
    </g>
</svg>