<svg xmlns="http://www.w3.org/2000/svg" viewBox="0 0 20 20">
    <defs>
        <style>.a { fill: #fff; } .b { fill: none; }</style>
    </defs>
    <title>node-filter</title>
    <g>
        <path class="a"
              d="M16.12,4.69l-4.4,4.4v6.62a.58.58,0,0,1-.35.53.64.64,0,0,1-.22,0,.53.53,0,0,1-.4-.17L8.45,13.83a.57.57,0,0,1-.17-.4V9.09l-4.4-4.4a.56.56,0,0,1-.12-.62.58.58,0,0,1,.53-.35H15.71a.58.58,0,0,1,.53.35A.56.56,0,0,1,16.12,4.69Z"/>
        <rect class="b" width="20" height="20"/>
    </g>
</svg>