<svg xmlns="http://www.w3.org/2000/svg" viewBox="0 0 20 20">
    <defs>
        <style>.a { fill: white; } .b { fill: none; }</style>
    </defs>
    <title>node-custom</title>
    <g>
        <path class="a"
              d="M17.43,12.77a1.14,1.14,0,0,1-.6,1L10.54,17.2a1.11,1.11,0,0,1-1.09,0L3.17,13.77a1.14,1.14,0,0,1-.6-1V5.91a1.14,1.14,0,0,1,.75-1.07L9.61,2.56a1.12,1.12,0,0,1,.79,0l6.29,2.29a1.14,1.14,0,0,1,.75,1.07ZM16.23,5.9,10,3.63,3.77,5.9,10,8.16Zm.05,6.87V7.09L10.57,9.17v6.71Z"/>
        <rect class="b" width="20" height="20"/>
    </g>
</svg>