<svg xmlns="http://www.w3.org/2000/svg" viewBox="0 0 20 20">
    <defs>
        <style>.a { fill: #fff; } .b { fill: none; }</style>
    </defs>
    <title>node-service</title>
    <g>
        <path class="a"
              d="M12.55,10.72a.25.25,0,0,1-.18.24l-1.23.19a3.61,3.61,0,0,1-.25.61c.22.32.46.61.72.92a.28.28,0,0,1,.06.16.21.21,0,0,1-.06.15c-.16.21-1.05,1.19-1.28,1.19a.3.3,0,0,1-.17-.06l-.92-.72a3.4,3.4,0,0,1-.61.25,7.93,7.93,0,0,1-.18,1.23.25.25,0,0,1-.24.19H6.71a.25.25,0,0,1-.24-.2l-.18-1.22a3.88,3.88,0,0,1-.6-.25l-.94.71a.23.23,0,0,1-.16.06.26.26,0,0,1-.17-.06c-.21-.19-1.15-1-1.15-1.27a.27.27,0,0,1,.06-.15c.23-.3.47-.6.7-.91a4.23,4.23,0,0,1-.28-.65l-1.21-.19a.23.23,0,0,1-.19-.23V9.22A.25.25,0,0,1,2.54,9l1.23-.19A3.61,3.61,0,0,1,4,8.18c-.22-.32-.46-.61-.72-.92a.3.3,0,0,1-.06-.16.24.24,0,0,1,.06-.16c.16-.22,1.05-1.18,1.28-1.18a.3.3,0,0,1,.17.06l.92.72a4.12,4.12,0,0,1,.61-.25,8,8,0,0,1,.18-1.23.25.25,0,0,1,.24-.19H8.19a.25.25,0,0,1,.24.2l.18,1.22a4,4,0,0,1,.6.25l.94-.71a.24.24,0,0,1,.16-.06.26.26,0,0,1,.17.06c.21.19,1.15,1.05,1.15,1.27a.27.27,0,0,1-.06.15c-.23.31-.47.6-.69.91a5.23,5.23,0,0,1,.27.65L12.36,9a.25.25,0,0,1,.19.24ZM7.45,7.93a2,2,0,1,0,2,2A2,2,0,0,0,7.45,7.93Zm10.2-1.48c0,.12-1,.23-1.19.25a1.93,1.93,0,0,1-.24.41,7.39,7.39,0,0,1,.41,1.1.06.06,0,0,1,0,.06c-.1.06-.95.57-1,.57a5,5,0,0,1-.78-.92l-.24,0-.24,0a5,5,0,0,1-.78.92s-.89-.51-1-.57a.07.07,0,0,1,0-.06A7.77,7.77,0,0,1,13,7.11a1.93,1.93,0,0,1-.24-.41c-.16,0-1.19-.13-1.19-.25V5.33c0-.12,1-.23,1.19-.25A2.11,2.11,0,0,1,13,4.67a7.74,7.74,0,0,1-.41-1.1.07.07,0,0,1,0-.06c.1,0,.95-.56,1-.56a5,5,0,0,1,.78.91l.24,0,.24,0A7.13,7.13,0,0,1,15.56,3l0,0s.89.5,1,.56a.07.07,0,0,1,0,.06,7.41,7.41,0,0,1-.41,1.1,2.11,2.11,0,0,1,.24.41c.16,0,1.19.13,1.19.25Zm0,8.16c0,.12-1,.23-1.19.25a1.93,1.93,0,0,1-.24.41,7.39,7.39,0,0,1,.41,1.1.06.06,0,0,1,0,.06c-.1.06-.95.57-1,.57a5,5,0,0,1-.78-.92l-.24,0-.24,0a5,5,0,0,1-.78.92s-.89-.51-1-.57a.07.07,0,0,1,0-.06,7.77,7.77,0,0,1,.41-1.1,1.93,1.93,0,0,1-.24-.41c-.16,0-1.19-.13-1.19-.25V13.49c0-.12,1-.23,1.19-.25a2.11,2.11,0,0,1,.24-.41,7.74,7.74,0,0,1-.41-1.1.07.07,0,0,1,0-.06c.1,0,.95-.56,1-.56a5,5,0,0,1,.78.91l.24,0,.24,0a7.13,7.13,0,0,1,.73-.89l0,0s.89.5,1,.56a.07.07,0,0,1,0,.06,7.41,7.41,0,0,1-.41,1.1,2.11,2.11,0,0,1,.24.41c.16,0,1.19.13,1.19.25ZM14.59,4.87a1,1,0,1,0,1,1A1,1,0,0,0,14.59,4.87Zm0,8.16a1,1,0,1,0,1,1A1,1,0,0,0,14.59,13Z"/>
        <rect class="b" width="20" height="20"/>
    </g>
</svg>