<svg xmlns="http://www.w3.org/2000/svg" viewBox="0 0 20 20"><path fill="currentColor" d="M17.74 12.48h-.93v-1.86a1.25 1.25 0 0 0-1.24-1.24h-5V7.52h.93a.93.93 0 0 0 .93-.93V3.5a.93.93 0 0 0-.93-.93H8.45a.93.93 0 0 0-.93.93v3.1a.93.93 0 0 0 .93.93h.93v1.85h-5a1.25 1.25 0 0 0-1.24 1.24v1.86h-.88a.93.93 0 0 0-.93.93v3.1a.93.93 0 0 0 .93.93h3.1a.93.93 0 0 0 .93-.93V13.4a.93.93 0 0 0-.93-.93h-.93v-1.85h11.14v1.86h-.93a.93.93 0 0 0-.93.93v3.1a.93.93 0 0 0 .93.93h3.09a.93.93 0 0 0 .93-.93V13.4a.93.93 0 0 0-.92-.92Z"/></svg>