<svg xmlns="http://www.w3.org/2000/svg" viewBox="0 0 20 20">
    <defs>
        <style>.a { fill: #fff; } .b { fill: none; }</style>
    </defs>
    <title>node-source</title>
    <g>
        <path class="a"
              d="M16.86,4.29V5.43c0,1.26-3.07,2.29-6.86,2.29s-6.86-1-6.86-2.29V4.29C3.14,3,6.21,2,10,2S16.86,3,16.86,4.29Zm0,3.05V8.86c0,1.26-3.07,2.29-6.86,2.29s-6.86-1-6.86-2.29V7.34c1.47,1,4.17,1.52,6.86,1.52S15.38,8.37,16.86,7.34Zm0,3.43v1.52c0,1.26-3.07,2.29-6.86,2.29s-6.86-1-6.86-2.29V10.77c1.47,1,4.17,1.52,6.86,1.52S15.38,11.8,16.86,10.77Zm0,3.43v1.52C16.86,17,13.79,18,10,18s-6.86-1-6.86-2.29V14.2c1.47,1,4.17,1.52,6.86,1.52S15.38,15.23,16.86,14.2Z"/>
        <rect class="b" width="20" height="20"/>
    </g>
</svg>