<svg xmlns="http://www.w3.org/2000/svg" viewBox="0 0 20 20"><path fill="currentColor" d="M16.86 4.29v1.14c0 1.26-3.07 2.29-6.86 2.29s-6.86-1-6.86-2.29V4.29C3.14 3 6.21 2 10 2s6.86 1 6.86 2.29Zm0 3.05v1.52c0 1.26-3.07 2.29-6.86 2.29s-6.86-1-6.86-2.29V7.34c1.47 1 4.17 1.52 6.86 1.52s5.38-.49 6.86-1.52Zm0 3.43v1.52c0 1.26-3.07 2.29-6.86 2.29s-6.86-1-6.86-2.29v-1.52c1.47 1 4.17 1.52 6.86 1.52s5.38-.49 6.86-1.52Zm0 3.43v1.52C16.86 17 13.79 18 10 18s-6.86-1-6.86-2.29V14.2c1.47 1 4.17 1.52 6.86 1.52s5.38-.49 6.86-1.52Z"/></svg>