<svg xmlns="http://www.w3.org/2000/svg" viewBox="0 0 35 35"><path d="M15.1 24.7a1.2 1.2 0 0 0 1.2-1.2v-7.2a1.2 1.2 0 0 0-2.4 0v7.2a1.2 1.2 0 0 0 1.2 1.2zm12-14.4h-4.8V9.1a3.6 3.6 0 0 0-3.6-3.6h-2.4a3.6 3.6 0 0 0-3.6 3.6v1.2H7.9a1.2 1.2 0 0 0 0 2.4h1.2v13.2a3.6 3.6 0 0 0 3.6 3.6h9.6a3.6 3.6 0 0 0 3.6-3.6V12.7h1.2a1.2 1.2 0 0 0 0-2.4zm-12-1.2a1.2 1.2 0 0 1 1.2-1.2h2.4a1.2 1.2 0 0 1 1.2 1.2v1.2h-4.8zm8.4 16.8a1.2 1.2 0 0 1-1.2 1.2h-9.6a1.2 1.2 0 0 1-1.2-1.2V12.7h12zm-3.6-1.2a1.2 1.2 0 0 0 1.2-1.2v-7.2a1.2 1.2 0 0 0-2.4 0v7.2a1.2 1.2 0 0 0 1.2 1.2z" fill="currentColor"/></svg>