<svg xmlns="http://www.w3.org/2000/svg" viewBox="0 0 35 35"><path d="M2.5 10.5a1 1 0 0 0-1 1v15a2 2 0 0 0 2 2h25a1 1 0 0 0 0-2h-24a1 1 0 0 1-1-1v-14a1 1 0 0 0-1-1zm26.5 8V17a1.5 1.5 0 0 0-1.5-1.5A1.5 1.5 0 0 0 29 14v-1.5a2 2 0 0 0-2-2h-3a1 1 0 0 0 0 2h3v2h-1a1 1 0 0 0 0 2h1v2h-3a1 1 0 0 0 0 2h3a2 2 0 0 0 2-2z" fill="currentColor"/><path d="M20.83 18.5h-3v-2h2a2 2 0 0 0 2-2v-2a2 2 0 0 0-2-2h-3a1 1 0 1 0 0 2h3v2h-2a2 2 0 0 0-2 2v3a1 1 0 0 0 1 1h4a1 1 0 0 0 0-2zm-7.83 2a1 1 0 0 0 1-1v-8a1 1 0 0 0-1-1h-2a1 1 0 0 0 0 2h1v7a1 1 0 0 0 1 1z" fill="currentColor"/><path d="M31.5 6.5h-24a2 2 0 0 0-2 2v14a2 2 0 0 0 2 2h24a2 2 0 0 0 2-2v-14a2 2 0 0 0-2-2zm0 15a1 1 0 0 1-1 1h-22a1 1 0 0 1-1-1v-12a1 1 0 0 1 1-1h22a1 1 0 0 1 1 1z" fill="currentColor"/></svg>