<svg xmlns="http://www.w3.org/2000/svg" viewBox="0 0 36 36"><path class="b" d="M23 11h-1.8V7.2a2 2 0 00-2-2h-12a2 2 0 00-2 2v12a2 2 0 002 2H11V23a2 2 0 002 2h1.8v3.8a2 2 0 002 2h12a2 2 0 002-2v-12a2 2 0 00-2-2H25V13a2 2 0 00-2-2zm-12 8.2H7.2v-12h12V11H13a2 2 0 00-2 2zm2.5-1.2a1.21 1.21 0 011.21-1.21h2.08v-2.08A1.21 1.21 0 0118 13.5a1.21 1.21 0 011.21 1.21v2.08h2.08A1.21 1.21 0 0122.5 18a1.21 1.21 0 01-1.21 1.21h-2.08v2.08A1.21 1.21 0 0118 22.5a1.21 1.21 0 01-1.21-1.21v-2.08h-2.08A1.21 1.21 0 0113.5 18zm15.3-1.2v12h-12V25H23a2 2 0 002-2v-6.2z" fill="#ccc"/></svg>