<svg xmlns="http://www.w3.org/2000/svg" viewBox="0 0 36 36"><path d="M25 14.8V13a2 2 0 0 0-2-2h-1.8V7.2a2 2 0 0 0-2-2h-12a2 2 0 0 0-2 2v12a2 2 0 0 0 2 2H11V23a2 2 0 0 0 2 2h1.8v3.8a2 2 0 0 0 2 2h12a2 2 0 0 0 2-2v-12a2 2 0 0 0-2-2zm-14 4.4H7.2v-12h12V11H13a2 2 0 0 0-2 2zm2-1.2a5 5 0 1 1 5 5 5 5 0 0 1-5-5zm15.8 10.8h-12V25H23a2 2 0 0 0 2-2v-6.2h3.8z" fill="currentColor"/><path d="m19 20.71-3.66-3.66a2.75 2.75 0 0 0-.16.95A2.89 2.89 0 0 0 18 20.88a2.75 2.75 0 0 0 1-.17zM20.88 18A2.88 2.88 0 0 0 18 15.13a3 3 0 0 0-.95.15L20.72 19a3.1 3.1 0 0 0 .16-1z" fill="currentColor"/></svg>