<svg xmlns="http://www.w3.org/2000/svg" viewBox="0 0 35 35"><path class="b" d="M24.59 30.09a1.5 1.5 0 00.4-.25l3.6-3.6a1.21 1.21 0 10-1.71-1.71l-1.55 1.56v-8.28a1.2 1.2 0 00-2.4 0v8.28l-1.54-1.56a1.2 1.2 0 00-1.7 0 1.2 1.2 0 000 1.7l3.6 3.6a1.18 1.18 0 00.4.25 1.2 1.2 0 00.9.01z" fill="#ccc"/><path class="b" d="M17.46 26.42h-7.8a1.2 1.2 0 01-1.2-1.2V8.42a1.2 1.2 0 011.2-1.2h6v3.6a3.6 3.6 0 003.6 3.6h4.8a1.2 1.2 0 001.11-.74 1.22 1.22 0 00-.26-1.31l-7.2-7.2a1.5 1.5 0 00-.33-.23h-.11l-.34-.12H9.66a3.6 3.6 0 00-3.6 3.6v16.8a3.6 3.6 0 003.6 3.6h7.8a1.2 1.2 0 100-2.4zm.6-17.51L21.17 12h-1.91a1.2 1.2 0 01-1.2-1.2z" fill="#ccc"/><path class="b" d="M13.19 17.06a.76.76 0 01.75-.75.56.56 0 100-1.11 1.86 1.86 0 00-1.86 1.86v1.3a.75.75 0 01-.75.75.56.56 0 000 1.11.75.75 0 01.75.75v1.3a1.86 1.86 0 001.86 1.86.56.56 0 100-1.11.76.76 0 01-.75-.75V21a1.85 1.85 0 00-.54-1.3 1.89 1.89 0 00.54-1.31zM20 19.11a.75.75 0 01-.75-.75v-1.3a1.86 1.86 0 00-1.86-1.86.56.56 0 100 1.11.76.76 0 01.75.75v1.3a1.89 1.89 0 00.54 1.31 1.85 1.85 0 00-.54 1.3v1.3a.76.76 0 01-.75.75.56.56 0 100 1.11 1.86 1.86 0 001.86-1.86V21a.75.75 0 01.75-.75.56.56 0 000-1.11z" fill="#ccc"/></svg>