<svg xmlns="http://www.w3.org/2000/svg" viewBox="0 0 35 35"><path d="M24.59 30.09a1.5 1.5 0 0 0 .4-.25l3.6-3.6a1.21 1.21 0 1 0-1.71-1.71l-1.55 1.56v-8.28a1.2 1.2 0 0 0-2.4 0v8.28l-1.54-1.56a1.2 1.2 0 0 0-1.7 0 1.2 1.2 0 0 0 0 1.7l3.6 3.6a1.18 1.18 0 0 0 .4.25 1.2 1.2 0 0 0 .9.01z" fill="currentColor"/><path d="M17.46 26.42h-7.8a1.2 1.2 0 0 1-1.2-1.2V8.42a1.2 1.2 0 0 1 1.2-1.2h6v3.6a3.6 3.6 0 0 0 3.6 3.6h4.8a1.2 1.2 0 0 0 1.11-.74 1.22 1.22 0 0 0-.26-1.31l-7.2-7.2a1.5 1.5 0 0 0-.33-.23h-.11l-.34-.12H9.66a3.6 3.6 0 0 0-3.6 3.6v16.8a3.6 3.6 0 0 0 3.6 3.6h7.8a1.2 1.2 0 1 0 0-2.4zm.6-17.51L21.17 12h-1.91a1.2 1.2 0 0 1-1.2-1.2z" fill="currentColor"/><path d="M20.87 20c-.63-.61-2.41-.44-3.3-.33a4.39 4.39 0 0 1-1.88-2.37 6.41 6.41 0 0 0 .31-2.88 1.14 1.14 0 0 0-2.18-.3 7.28 7.28 0 0 0 .36 3.43c-.52 1.22-1.28 2.86-1.82 3.81-1 .52-2.4 1.34-2.61 2.36-.16.81 1.34 2.82 3.9-1.6a25.55 25.55 0 0 1 3.5-1A6.63 6.63 0 0 0 20 22a1.18 1.18 0 0 0 .87-2zm-10.14 4a6.28 6.28 0 0 1 1.56-1.79c-.97 1.51-1.56 1.79-1.56 1.79zm4.18-9.75c.38 0 .34 1.65.09 2.09a4.2 4.2 0 0 1-.09-2.13zm-1.25 7a18.91 18.91 0 0 0 1.26-2.8 5.63 5.63 0 0 0 1.54 1.82 17.49 17.49 0 0 0-2.8.93zm6.73-.25s-.25.3-1.91-.4c1.8-.19 2.1.22 1.91.4z" fill="currentColor"/></svg>