<svg xmlns="http://www.w3.org/2000/svg" viewBox="0 0 36 36"><path class="b" d="M23 11h-1.8V7.2a2 2 0 00-2-2h-12a2 2 0 00-2 2v12a2 2 0 002 2H11V23a2 2 0 002 2h1.8v3.8a2 2 0 002 2h12a2 2 0 002-2v-12a2 2 0 00-2-2H25V13a2 2 0 00-2-2zm-12 8.2H7.2v-12h12V11H13a2 2 0 00-2 2zm3.25.65L16.09 18l-1.84-1.85a1.33 1.33 0 010-1.9 1.33 1.33 0 011.9 0L18 16.09l1.85-1.84a1.33 1.33 0 011.9 0 1.33 1.33 0 010 1.9L19.91 18l1.84 1.85a1.33 1.33 0 010 1.9 1.33 1.33 0 01-1.9 0L18 19.91l-1.85 1.84a1.33 1.33 0 01-1.9 0 1.33 1.33 0 010-1.9zM28.8 16.8v12h-12V25H23a2 2 0 002-2v-6.2z" fill="#ccc"/></svg>