<svg width="20" height="20" viewBox="0 0 20 20" fill="none" xmlns="http://www.w3.org/2000/svg">
    <g clip-path="url(#clip0_615_3295)">
        <path d="M18.3331 17.1548V4.16648C18.3331 2.78814 17.2115 1.66648 15.8331 1.66648H3.33314C3.18148 1.66648 3.03231 1.67981 2.88564 1.70648L1.21398 0.0356445L0.0356445 1.21398L18.7856 19.964L19.964 18.7856L18.3331 17.1548ZM13.3331 8.33315C12.4123 8.33315 11.6665 7.58731 11.6665 6.66648C11.6665 5.74564 12.4123 4.99981 13.3331 4.99981C14.254 4.99981 14.9998 5.74564 14.9998 6.66648C14.9998 7.58731 14.254 8.33315 13.3331 8.33315ZM1.66648 5.20231L5.97648 9.51231L1.66648 13.8223V5.20231ZM14.7981 18.3331H1.66648V16.1781L7.15481 10.6898L14.7981 18.3331Z" fill="#B3B3B3"/>
    </g>
    <defs>
        <clipPath id="clip0_615_3295">
            <rect width="20" height="20" fill="currentColor"/>
        </clipPath>
    </defs>
</svg>
