<svg xmlns="http://www.w3.org/2000/svg" viewBox="0 0 19.63 20"><defs><style>.cls-2{fill:currentColor}</style></defs><path class="cls-2" d="M10.49.25A1 1 0 0 0 9.82 0a1 1 0 0 0-.66.25l-5 5A.88.88 0 0 0 4 6.2a.86.86 0 0 0 .79.52h1.63v7.11a1.27 1.27 0 0 0 1.27 1.27H12a1.29 1.29 0 0 0 1.28-1.27V6.72h1.63a.85.85 0 0 0 .79-.52.88.88 0 0 0-.18-.94Z"/><path class="cls-2" d="M18.35 8.46a1.28 1.28 0 0 0-1.29 1.28v7.16a.53.53 0 0 1-.53.53H3.08a.54.54 0 0 1-.54-.53V9.74a1.27 1.27 0 1 0-2.54 0v7.16A3.09 3.09 0 0 0 3.08 20h13.45a3.1 3.1 0 0 0 3.1-3.1V9.74a1.28 1.28 0 0 0-1.28-1.28Z"/></svg>
