<svg xmlns="http://www.w3.org/2000/svg" viewBox="0 0 63.99 12"><path d="M3.1 0h57.79A3.05 3.05 0 0 1 64 3v6a3.05 3.05 0 0 1-3.1 3H3.1A3.05 3.05 0 0 1 0 9V3a3.05 3.05 0 0 1 3.1-3z" fill="#b3b3b3"/><path fill="#333" d="M3.04 1.5v9l6-4.5-6-4.5zm14.61 3.56a6.1 6.1 0 0 1-.52 2.59 3.72 3.72 0 0 1-1.51 1.67 4.57 4.57 0 0 1-2.33.57H10.9l1.64-7.77h2.1a3.08 3.08 0 0 1 2.22.76 2.87 2.87 0 0 1 .79 2.18zm-4.28 3.47a2.35 2.35 0 0 0 1.37-.4 2.59 2.59 0 0 0 .91-1.19A4.57 4.57 0 0 0 16 5.15a1.8 1.8 0 0 0-.4-1.25 1.41 1.41 0 0 0-1.11-.43h-.61l-1.07 5.06zm8.97 1.36H18l1.65-7.77H24l-.3 1.35H21l-.36 1.71h2.53l-.29 1.35h-2.55l-.43 2h2.72zm7.33-5.5a2.44 2.44 0 0 1-.91 2 3.8 3.8 0 0 1-2.48.73h-.46l-.58 2.76h-1.62l1.64-7.77h1.8a2.91 2.91 0 0 1 2 .57 2.11 2.11 0 0 1 .61 1.71zm-3.56 1.39h.3a1.75 1.75 0 0 0 1.19-.37 1.21 1.21 0 0 0 .43-1c0-.64-.34-1-1-1h-.4zm3.56 4.11 1.64-7.77h1.62l-1.36 6.41h2.73L34 9.89zm12.69-4.98a6.59 6.59 0 0 1-.52 2.69 4 4 0 0 1-1.44 1.79 3.68 3.68 0 0 1-2.11.61 2.82 2.82 0 0 1-2.12-.78A3 3 0 0 1 35.41 7a6.31 6.31 0 0 1 .52-2.59 4.23 4.23 0 0 1 1.45-1.82A3.72 3.72 0 0 1 39.52 2a2.81 2.81 0 0 1 2.1.77 2.92 2.92 0 0 1 .74 2.14zm-3-1.54a1.68 1.68 0 0 0-1.18.49 3.29 3.29 0 0 0-.85 1.33A5.56 5.56 0 0 0 37.06 7a1.77 1.77 0 0 0 .35 1.18 1.26 1.26 0 0 0 1 .4 1.73 1.73 0 0 0 1.17-.47 3 3 0 0 0 .83-1.3 5.69 5.69 0 0 0 .3-1.9 1.79 1.79 0 0 0-.35-1.17 1.2 1.2 0 0 0-.97-.37zm6.4 1.9 2-3.15h1.82l-3.29 4.8-.63 3H44l.63-3-1.25-4.8h1.65zm7.16 4.62h-4.34l1.64-7.77h4.35l-.29 1.35h-2.72l-.36 1.71h2.54l-.29 1.35h-2.54l-.43 2h2.73zM61 5.06a6 6 0 0 1-.53 2.59 3.7 3.7 0 0 1-1.5 1.67 4.6 4.6 0 0 1-2.33.57H54.2l1.65-7.77H58a3.08 3.08 0 0 1 2.22.76A2.91 2.91 0 0 1 61 5.06zm-4.32 3.47a2.35 2.35 0 0 0 1.37-.4A2.66 2.66 0 0 0 59 6.94a4.57 4.57 0 0 0 .33-1.79 1.85 1.85 0 0 0-.38-1.25 1.41 1.41 0 0 0-1.11-.43h-.61l-1.12 5.06z"/></svg>