<svg xmlns="http://www.w3.org/2000/svg" viewBox="51 -1 50 50"><path stroke-width="12" stroke="#000" d="M50.17 3.93l.2 2.01.28 1.98.36 1.96.44 1.93.51 1.91.58 1.87.66 1.84.72 1.81.79 1.77.86 1.73.92 1.69.98 1.66 1.05 1.61 1.1 1.57 1.16 1.52L62 32.27l1.28 1.43 1.32 1.38 1.38 1.33 1.43 1.27 1.48 1.22 1.52 1.16 1.57 1.11 1.61 1.04 1.66.98 1.69.93 1.74.85 1.77.79 1.8.73 1.84.65 1.88.58 1.9.51 1.93.44 1.96.36 1.98.28 2.01.21 2.04.12 2.05.04h.16V50H50V0h0l.04 1.9.13 2.03z"/><path fill="#fff" d="M50.17 3.93l.2 2.01.28 1.98.36 1.96.44 1.93.51 1.91.58 1.87.66 1.84.72 1.81.79 1.77.86 1.73.92 1.69.98 1.66 1.05 1.61 1.1 1.57 1.16 1.52L62 32.27l1.28 1.43 1.32 1.38 1.38 1.33 1.43 1.27 1.48 1.22 1.52 1.16 1.57 1.11 1.61 1.04 1.66.98 1.69.93 1.74.85 1.77.79 1.8.73 1.84.65 1.88.58 1.9.51 1.93.44 1.96.36 1.98.28 2.01.21 2.04.12 2.05.04h.16V50H50V0l.04 1.9.13 2.03z"/></svg>