<?xml version="1.0" encoding="utf-8"?>
<!-- Generator: Adobe Illustrator 25.4.1, SVG Export Plug-In . SVG Version: 6.00 Build 0)  -->
<svg version="1.1" id="Layer_1" xmlns="http://www.w3.org/2000/svg" xmlns:xlink="http://www.w3.org/1999/xlink" x="0px" y="0px"
	 viewBox="0 0 32 32" style="enable-background:new 0 0 32 32;" xml:space="preserve">
<path d="M18,32c7,0,10-3,10-10v-6l-5-3h-1v7c0,6-2,7-6,7s-6-1-6-7v-7H9l-5,3v6c0,7,3,10,10,10H18z"/>
<path d="M16,0h2v4h4c3,0,6,3,6,6v2h-1l-6-3l-4,6h-1c0,0-1,0-1,0l-4-6l-6,3H4v-2c0-3,3-6,6-6h4V0C14,0,16,0,16,0z"/>
</svg>
