<svg data-name="Layer 1" xmlns="http://www.w3.org/2000/svg" viewBox="0 0 24 24"><path d="M12 0a12 12 0 1012 12A12 12 0 0012 0zm0 23.14A11.14 11.14 0 1123.15 12 11.16 11.16 0 0112 23.15z" fill="#fff"/><path d="M17.15 6.86H6.86a.43.43 0 000 .86h10.29a.43.43 0 100-.86zm0 4.71H6.86a.43.43 0 000 .86h10.29a.43.43 0 000-.86zm0 4.72H6.86a.43.43 0 100 .86h10.29a.43.43 0 100-.86z" fill="#ccb15a"/><rect x="6" y="6.43" width="12" height="1.71" rx=".86" ry=".86" fill="#fff"/><rect x="6" y="15.86" width="12" height="1.71" rx=".86" ry=".86" fill="#fff"/><rect x="6" y="11.14" width="12" height="1.71" rx=".86" ry=".86" fill="#fff"/></svg>