<svg id="Layer_1" data-name="Layer 1" xmlns="http://www.w3.org/2000/svg" viewBox="0 0 24 24"><title>menu-wyłączone</title><path d="M12.2.2a12,12,0,1,0,12,12A12,12,0,0,0,12.2.2Zm0,23.14A11.14,11.14,0,1,1,23.35,12.2,11.16,11.16,0,0,1,12.2,23.35Z" transform="translate(-0.2 -0.2)" style="fill:#fff"/><path d="M17.35,7.06H7.06a.43.43,0,0,0,0,.86H17.35a.43.43,0,1,0,0-.86Z" transform="translate(-0.2 -0.2)" style="fill:#ccb15a"/><path d="M17.35,11.77H7.06a.43.43,0,0,0,0,.86H17.35a.43.43,0,0,0,0-.86Z" transform="translate(-0.2 -0.2)" style="fill:#ccb15a"/><path d="M17.35,16.49H7.06a.43.43,0,1,0,0,.86H17.35a.43.43,0,1,0,0-.86Z" transform="translate(-0.2 -0.2)" style="fill:#ccb15a"/><rect x="6" y="6.43" width="12" height="1.71" rx="0.86" ry="0.86" style="fill:#fff"/><rect x="6" y="15.86" width="12" height="1.71" rx="0.86" ry="0.86" style="fill:#fff"/><rect x="6" y="11.14" width="12" height="1.71" rx="0.86" ry="0.86" style="fill:#fff"/></svg>