<svg xmlns="http://www.w3.org/2000/svg" viewBox="0 0 148.66 18.03"><path d="M0 5h3v1.74a6.31 6.31 0 014.65-2c2.23 0 3.67 1.32 3.67 3.84v9.14h-3V9.36c0-1.42-.6-2.06-1.9-2.06A5.17 5.17 0 003 9v8.81H0zm14.93 9.16V5h3v8.45c0 1.41.6 2.06 1.9 2.06a5.15 5.15 0 003.46-1.66V5h3v12.76h-3V16a6.32 6.32 0 01-4.66 2c-2.26 0-3.7-1.32-3.7-3.84zM29.18 16l1.61-1.8a6.27 6.27 0 004 1.51c1.58 0 2.54-.41 2.54-1.46s-1.29-1.35-2.83-1.71c-2.18-.5-4.8-1.08-4.8-4 0-2.23 1.92-3.74 4.73-3.74a7.45 7.45 0 015.23 1.8l-1.4 1.9a6.41 6.41 0 00-3.6-1.4c-1.64 0-2.16.58-2.16 1.3 0 1 1.27 1.35 2.78 1.68 2.18.48 4.85 1 4.85 4 0 2.69-2.43 3.94-5.33 3.94A8.08 8.08 0 0129.18 16zm12.92 0l1.6-1.8a6.27 6.27 0 004 1.51c1.59 0 2.55-.41 2.55-1.46s-1.3-1.35-2.84-1.71c-2.18-.5-4.8-1.08-4.8-4 0-2.23 1.92-3.74 4.73-3.74a7.43 7.43 0 015.23 1.8l-1.4 1.9a6.41 6.41 0 00-3.6-1.4c-1.63 0-2.16.58-2.16 1.3 0 1 1.27 1.35 2.78 1.68 2.19.48 4.85 1 4.85 4C53 16.78 50.62 18 47.71 18a8 8 0 01-5.61-2zM56.21 0h2.95v10.58L64 5h3.24l-4.17 4.67 4.51 8.09h-3.09l-3.29-5.9-2 2.23v3.67h-2.99zm14.11 5h3v1.74a6.31 6.31 0 014.65-2c2.23 0 3.67 1.32 3.67 3.84v9.14h-3V9.36c0-1.42-.6-2.06-1.9-2.06A5.17 5.17 0 0073.3 9v8.81h-3zm14.26 9.69c0-2.76 2.35-4.61 8.3-5.28V9c0-1.27-.67-1.82-2.09-1.82a6.88 6.88 0 00-4.29 1.75l-1.44-1.85a9.09 9.09 0 016.14-2.3c3.41 0 4.58 1.63 4.58 4.6v5.26a8.82 8.82 0 00.36 3.12h-3a4.57 4.57 0 01-.29-1.63A6.13 6.13 0 0188.18 18c-2.07 0-3.6-1.2-3.6-3.31zm8.3-.48V11.4c-3.53.48-5.4 1.35-5.4 2.74 0 1 .7 1.53 1.78 1.53a5.08 5.08 0 003.62-1.46zm5.95-2.81c0-4.87 3.29-6.62 6.12-6.62a5.17 5.17 0 015.28 3.72l-2.49.88a2.79 2.79 0 00-2.84-2.13c-1.68 0-3.09 1.1-3.09 4.15 0 2.71 1.1 4.2 3 4.2 1.34 0 2.28-.41 3-2.21l2.45.89a5.6 5.6 0 01-5.5 3.75c-2.93-.03-5.93-1.97-5.93-6.63zM113.23 0h3v10.58L121 5h3.24l-4.14 4.67 4.51 8.09h-3.1l-3.29-5.9-2 2.23v3.67h-3zM126 11.4c0-4.85 3.43-6.62 6.08-6.62 2.85 0 5.59 1.7 5.59 6.89v.69H129a3.15 3.15 0 003.41 3.31 4.64 4.64 0 003.59-1.48l1.56 1.53a6.86 6.86 0 01-5.39 2.28C129 18 126 16.08 126 11.4zm9-1.25c-.17-1.94-1.13-3-2.91-3-1.44 0-2.76.81-3 3zM140.88 5h3v2.1a5 5 0 014.58-2.32h.2l-.1 2.71a6.56 6.56 0 00-.79 0 4.32 4.32 0 00-3.94 2.26v8.06h-3z" fill="#ccc"/></svg>