<svg xmlns="http://www.w3.org/2000/svg" viewBox="0 0 830.32 75"><g data-name="Layer 2"><g data-name="Layer 1" fill="#ccc"><path d="M214 20.79h8.63a1.92 1.92 0 011.92 1.93v1a1.92 1.92 0 003.07 1.54 26.22 26.22 0 0116.27-5.52c9.28 0 15.27 5.49 15.27 16v36.03a1.93 1.93 0 01-1.93 1.92h-8.63a1.92 1.92 0 01-1.92-1.92V38.93c0-5.86-2.45-8.52-7.76-8.57h-.28a21.44 21.44 0 00-13.56 6.5 1.87 1.87 0 00-.53 1.33v34a1.92 1.92 0 01-1.92 1.92H214a1.92 1.92 0 01-1.92-1.92V22.72a1.92 1.92 0 011.92-1.93zm60.17 38.1V22.72a1.92 1.92 0 011.92-1.93h8.63a1.92 1.92 0 011.92 1.93v33.22c0 5.82 2.46 8.52 7.79 8.56h.23a21.39 21.39 0 0013.74-6.33 1.9 1.9 0 00.54-1.34V22.72a1.92 1.92 0 011.92-1.93h8.63a1.92 1.92 0 011.92 1.93v49.22a1.92 1.92 0 01-1.92 1.92h-8.63a1.92 1.92 0 01-1.92-1.92v-1.06a1.92 1.92 0 00-3.07-1.55 26.29 26.29 0 01-16.31 5.53c-9.4 0-15.39-5.49-15.39-15.97zm60.59 6.16l4.16-4.64a1.92 1.92 0 012.57-.27 26 26 0 0015.27 5.19c6.57 0 10.57-1.7 10.57-6.07s-5.37-5.61-11.77-7.11c-9.07-2.08-20-4.49-20-16.63 0-9.28 8-15.56 19.67-15.56a31 31 0 0120.27 6.28 1.94 1.94 0 01.39 2.69l-3.58 4.87a1.92 1.92 0 01-2.63.44 26.79 26.79 0 00-13.38-4.71h-.22c-6.73 0-8.87 2.43-8.87 5.4 0 4.16 5.28 5.62 11.56 7 9.07 2 20.17 4.16 20.17 16.64 0 11.18-10.11 16.38-22.17 16.38A33.59 33.59 0 01335 67.86a1.94 1.94 0 01-.24-2.81zm53.73 0l4.12-4.64a1.9 1.9 0 012.57-.26 26.06 26.06 0 0015.27 5.18c6.61 0 10.61-1.7 10.61-6.07s-5.41-5.61-11.81-7.11c-9.07-2.08-20-4.49-20-16.63 0-9.28 8-15.56 19.67-15.56a31 31 0 0120.27 6.28 1.94 1.94 0 01.39 2.69L426 33.8a1.92 1.92 0 01-2.63.44A26.79 26.79 0 00410 29.53h-.22c-6.69 0-8.87 2.43-8.87 5.4 0 4.16 5.28 5.62 11.56 7 9.11 2 20.17 4.16 20.17 16.64-.17 11.22-10.06 16.3-22.17 16.3a33.24 33.24 0 01-21.75-7 1.92 1.92 0 01-.23-2.82zM447.77 0h8.42a1.92 1.92 0 011.92 1.92v36.93a1.93 1.93 0 003.38 1.26l16.18-18.65a1.92 1.92 0 011.45-.67h8.3a1.93 1.93 0 011.44 3.21l-13.58 15.19a1.94 1.94 0 00-.24 2.22L491.54 71a1.93 1.93 0 01-1.68 2.86h-8.45a1.92 1.92 0 01-1.68-1l-11.82-21.18a1.92 1.92 0 00-3.11-.35l-6 6.72a1.9 1.9 0 00-.49 1.28v12.61a1.92 1.92 0 01-1.92 1.92h-8.59a1.92 1.92 0 01-1.93-1.92v-70a1.92 1.92 0 011.9-1.94zm58.67 20.79h8.64a1.92 1.92 0 011.92 1.93v1a1.92 1.92 0 003.07 1.54 26.2 26.2 0 0116.27-5.52c9.27 0 15.26 5.49 15.26 16v36.03a1.92 1.92 0 01-1.92 1.92h-8.63a1.92 1.92 0 01-1.92-1.92V38.93c0-5.86-2.46-8.53-7.77-8.57h-.27a21.51 21.51 0 00-13.65 6.5 1.9 1.9 0 00-.52 1.33v34a1.92 1.92 0 01-1.92 1.88h-8.62a1.92 1.92 0 01-1.93-1.93l.08-49.43a1.92 1.92 0 011.91-1.92zm57.39 40.3c0-11.21 9.32-18.81 32.82-21.75a1.94 1.94 0 001.7-1.91c0-5.28-2.79-7.57-8.7-7.57a28.6 28.6 0 00-16.37 6 1.9 1.9 0 01-2.68-.34L567 30.9a1.92 1.92 0 01.33-2.69 37.77 37.77 0 0124.07-8.33c14.18 0 19 6.78 19 19.13v21.87a36.52 36.52 0 00.87 10.63 1.92 1.92 0 01-1.87 2.35h-8.59a2 2 0 01-1.81-1.41c-.17-.59-.31-1.19-.42-1.79a1.9 1.9 0 00-3-1.15 25.54 25.54 0 01-16.72 5.35c-8.67 0-15.03-4.99-15.03-13.77zm34.52-2.83v-8.63a1.94 1.94 0 00-2.24-1.9c-13.23 2.06-20.22 5.59-20.22 11.08 0 4.15 2.91 6.36 7.4 6.36a21.1 21.1 0 0014.45-5.5 1.93 1.93 0 00.61-1.41zm24.74-10.85c0-20.25 13.68-27.53 25.45-27.53a21.49 21.49 0 0121.32 13.6A1.93 1.93 0 01668.7 36l-6.7 2.36a1.9 1.9 0 01-2.39-1 11.61 11.61 0 00-11.27-7.17c-7 0-12.85 4.58-12.85 17.26 0 11.27 4.58 17.47 12.48 17.47 5.15 0 8.87-1.46 11.77-7.57a1.94 1.94 0 012.4-1l6.63 2.41a1.92 1.92 0 011.1 2.59A23.27 23.27 0 01647.75 75c-12.18-.14-24.66-8.21-24.66-27.59zM684.9 0h8.63a1.92 1.92 0 011.92 1.92v36.87a1.93 1.93 0 003.39 1.21l15.88-18.57a1.91 1.91 0 011.46-.68h8.31a1.92 1.92 0 011.44 3.2L712.45 39.2a1.92 1.92 0 00-.24 2.21L728.71 71a1.92 1.92 0 01-1.71 2.86h-8.49a1.92 1.92 0 01-1.68-1L705 51.68a1.92 1.92 0 00-3.11-.35l-6 6.72a2 2 0 00-.49 1.28v12.61a1.92 1.92 0 01-1.92 1.92h-8.63a1.92 1.92 0 01-1.92-1.92v-70A1.92 1.92 0 01684.9 0zm51.19 47.41c0-20.17 14.26-27.53 25.28-27.53 11.85 0 23.25 7.07 23.25 28.65v.95a1.92 1.92 0 01-1.92 1.92h-32.16a1.93 1.93 0 00-1.92 2.15 13.11 13.11 0 0012.31 11.65 13.67 13.67 0 001.81 0 19.31 19.31 0 0013.63-4.88 1.92 1.92 0 012.64 0L782.8 64a1.93 1.93 0 010 2.76 28.51 28.51 0 01-21 8.06c-13.24.04-25.71-7.95-25.71-27.41zm35.23-5.2a1.92 1.92 0 001.9-2.23c-1.21-6.64-5.12-10.24-11.81-10.24-5.43 0-10.46 2.77-12.09 10.1a1.93 1.93 0 001.88 2.37zm28.56-21.42h8.64a1.92 1.92 0 011.92 1.93v6.81a20.8 20.8 0 0119-9.65h.83l-.27 9.37a1.93 1.93 0 01-1.92 1.85h-1.44a17.94 17.94 0 00-16.13 9 1.91 1.91 0 00-.25 1v31.05a1.92 1.92 0 01-1.93 1.92h-8.62a1.92 1.92 0 01-1.92-1.93l.21-49.43a1.92 1.92 0 011.88-1.92zM135 6v15.73a9.72 9.72 0 01-2.85 6.88l-13.54 13.54a9.72 9.72 0 01-6.88 2.85H98.27a9.72 9.72 0 01-6.88-2.85L77.85 28.61A9.72 9.72 0 0175 21.73V6a6 6 0 00-6-6H51a6 6 0 00-6 6v15.73a9.72 9.72 0 01-2.85 6.88L28.61 42.15A9.72 9.72 0 0121.73 45h-15a6 6 0 00-5.8 7.44 30 30 0 0021.63 21.63 6 6 0 007.44-5.8v-15a9.72 9.72 0 012.85-6.88l13.54-13.54A9.72 9.72 0 0153.27 30h13.46a9.72 9.72 0 016.88 2.85l13.54 13.54A9.72 9.72 0 0190 53.27V69a6 6 0 006 6h18a6 6 0 006-6V53.27a9.72 9.72 0 012.85-6.88l13.54-13.54a9.72 9.72 0 016.88-2.85H159a6 6 0 006-6V6a6 6 0 00-6-6h-18a6 6 0 00-6 6z"/><path d="M114 0H96a6 6 0 00-6 6v14.27A9.72 9.72 0 0099.73 30h10.54a9.72 9.72 0 009.73-9.73V6a6 6 0 00-6-6zM24 0H6a6 6 0 00-6 6v18a6 6 0 006 6h14.27A9.72 9.72 0 0030 20.27V6a6 6 0 00-6-6zm41.27 45H54.73A9.72 9.72 0 0045 54.73V69a6 6 0 006 6h18a6 6 0 006-6V54.73A9.72 9.72 0 0065.27 45zm77.17 29.07a30 30 0 0021.63-21.63 6 6 0 00-5.81-7.44h-13.53a9.72 9.72 0 00-9.73 9.72v13.55a6 6 0 007.44 5.8z"/></g></g></svg>