<?xml version="1.0" encoding="utf-8"?>
<svg viewBox="0 0 35 35" xmlns="http://www.w3.org/2000/svg">
    <path class="b"
          d="M 28.425 18.931 C 28.486 18.452 28.52 17.97 28.528 17.487 C 28.52 17.004 28.486 16.523 28.425 16.043 L 31.517 13.628 C 31.801 13.401 31.878 12.999 31.696 12.682 L 28.757 7.573 C 28.576 7.264 28.199 7.129 27.863 7.254 L 24.209 8.722 C 23.444 8.143 22.605 7.667 21.718 7.304 L 21.168 3.471 C 21.141 3.089 20.823 2.793 20.44 2.794 L 14.563 2.794 C 14.205 2.79 13.898 3.052 13.846 3.407 L 13.285 7.24 C 12.401 7.615 11.568 8.1 10.807 8.683 L 7.152 7.279 C 6.812 7.142 6.425 7.279 6.246 7.598 L 3.307 12.709 C 3.12 13.023 3.197 13.428 3.486 13.654 L 6.641 16.043 C 6.505 17.001 6.505 17.974 6.641 18.931 L 3.486 21.346 C 3.211 21.579 3.135 21.973 3.307 22.291 L 6.246 27.401 C 6.432 27.713 6.812 27.847 7.152 27.721 L 10.807 26.252 C 11.566 26.84 12.399 27.325 13.285 27.696 L 13.846 31.592 C 13.898 31.947 14.205 32.209 14.563 32.206 L 20.44 32.206 C 20.801 32.21 21.112 31.949 21.168 31.592 L 21.718 27.696 C 22.605 27.32 23.442 26.837 24.209 26.252 L 27.863 27.721 C 28.199 27.857 28.583 27.72 28.757 27.401 L 31.696 22.291 C 31.878 21.974 31.801 21.574 31.517 21.346 Z M 17.501 25.319 C 11.452 25.31 7.682 18.755 10.716 13.522 C 13.748 8.289 21.309 8.3 24.325 13.544 C 25.011 14.735 25.371 16.087 25.371 17.462 C 25.379 21.813 21.852 25.344 17.501 25.344 Z"
          style="fill: rgb(255, 255, 255);"/>
</svg>
