<?xml version="1.0" ?><!DOCTYPE svg  PUBLIC '-//W3C//DTD SVG 1.1//EN'  'http://www.w3.org/Graphics/SVG/1.1/DTD/svg11.dtd'>
<svg xmlns="http://www.w3.org/2000/svg" xmlns:xlink="http://www.w3.org/1999/xlink" version="1.0" x="0px" y="0px" viewBox="0 0 24 24" enable-background="new 0 0 24 24" xml:space="preserve"><path d="M18.516,8.556l-2.387-2.383L15.75,5.792l-0.379,0.381l-2.387,2.346l0.758,0.758L15.257,7.8v1.021  c0,1.553-1.249,2.803-2.803,2.803h-6.97v1.057h6.97c1.554,0,2.803,1.213,2.803,2.805v0.719l-1.515-1.441l-0.758,0.758l2.387,2.309  l0.379,0.379l0.379-0.379l2.387-2.385l-0.721-0.756l-1.477,1.477v-0.68c0-1.479-0.834-2.689-2.046-3.334  c1.212-0.68,2.046-1.891,2.046-3.33V7.874l1.477,1.439L18.516,8.556L18.516,8.556z"></path></svg>