<?xml version="1.0" encoding="utf-8"?>
<!-- Generator: Adobe Illustrator 26.0.2, SVG Export Plug-In . SVG Version: 6.00 Build 0)  -->
<svg version="1.1" id="Layer_1" xmlns="http://www.w3.org/2000/svg" xmlns:xlink="http://www.w3.org/1999/xlink" x="0px" y="0px"
	 viewBox="0 0 20 20" style="enable-background:new 0 0 20 20;" xml:space="preserve">
<style type="text/css">
	.st0{fill:none;}
	.st1{fill:#FFFFFF;}
</style>
<rect y="0" class="st0" width="20" height="20"/>
<g>
	<path class="st1" d="M5.1,3.7c-0.2,0-0.3,0.1-0.3,0.3v11.9c0,0.2,0.1,0.3,0.3,0.3c0.2,0,0.3-0.1,0.3-0.3V4.1
		C5.4,3.9,5.2,3.7,5.1,3.7z"/>
	<path class="st1" d="M14.9,3.7H6.4C6.2,3.7,6,3.9,6,4.1v11.9c0,0.2,0.1,0.3,0.3,0.3h8.6c0.2,0,0.3-0.1,0.3-0.3V4.1
		C15.3,3.9,15.1,3.7,14.9,3.7z M12.6,9.2c0,0.3-0.2,0.5-0.5,0.5h-3c-0.3,0-0.5-0.2-0.5-0.5v0c0-0.3,0.2-0.5,0.5-0.5h3
		C12.4,8.7,12.6,8.9,12.6,9.2L12.6,9.2z M14,7.2c0,0.3-0.2,0.5-0.5,0.5H7.9c-0.3,0-0.5-0.2-0.5-0.5v0c0-0.3,0.2-0.5,0.5-0.5h5.6
		C13.8,6.7,14,6.9,14,7.2L14,7.2z"/>
</g>
</svg>
