<svg width="13" height="16" viewBox="0 0 13 16" fill="none" xmlns="http://www.w3.org/2000/svg">
    <path d="M10.1774 2.45142H2.82291C2.14467 2.45142 1.59717 2.99891 1.59717 3.67716H11.4031C11.4031 2.99891 10.8556 2.45142 10.1774 2.45142Z" fill="currentColor"/>
    <path d="M9.35994 0H3.63981C2.96156 0 2.41406 0.547499 2.41406 1.22574H10.5857C10.5857 0.547499 10.0382 0 9.35994 0Z" fill="currentColor"/>
    <path d="M10.5857 4.55981H2.41411C1.51523 4.55981 0.779785 5.29526 0.779785 6.19414V14.3658C0.779785 15.2646 1.51523 16.0001 2.41411 16.0001H10.5857C11.4846 16.0001 12.2201 15.2646 12.2201 14.3658V6.19414C12.2201 5.29526 11.4846 4.55981 10.5857 4.55981ZM3.97489 11.4485H2.97795V9.14409H3.97489V11.4485ZM3.97489 8.47402H2.97795V6.16962H3.97489V8.47402ZM6.00962 8.47402H5.01268V6.16962H6.00962V8.47402ZM8.04436 11.4485H7.04742V9.14409H8.04436V11.4485ZM10.0791 14.423H9.08215V12.1186H10.0791V14.423ZM10.0791 8.48219H9.08215V6.1778H10.0791V8.48219Z" fill="currentColor"/>
</svg>
