<svg viewBox="0 0 16 16" fill="none" focusable="false" aria-hidden="true" xmlns="http://www.w3.org/2000/svg">
    <path d="M15.2605 5.48311H8.99438V0.730144C8.99438 0.600063 8.92442 0.5 8.84447 0.5H7.13554C7.05559 0.5 6.98563 0.600063 6.98563 0.730144V5.48311H0.729544C0.329794 5.48311 0 5.83333 0 6.2636V10.7364C0 11.1667 0.329794 11.5169 0.729544 11.5169H6.99563V16.2999C6.99563 16.4099 7.06558 16.5 7.14553 16.5H8.85447C8.93442 16.5 9.00437 16.4099 9.00437 16.2999V11.5169H15.2705C15.6702 11.5169 16 11.1667 16 10.7364V6.2636C16 5.83333 15.6702 5.48311 15.2705 5.48311H15.2605ZM14.9806 10.4462H4.82698V6.54378H14.9806V10.4462Z" fill="currentColor"/>
</svg>
