<svg viewBox="0 0 16 16" fill="none" focusable="false" aria-hidden="true" xmlns="http://www.w3.org/2000/svg">
    <path d="M15.2573 5.77638C15.6616 5.77638 15.9906 5.46859 15.9906 5.09045V1.18593C15.9906 0.807789 15.6616 0.5 15.2573 0.5H0.733255C0.329025 0.5 0 0.807789 0 1.18593V5.09925C0 5.47739 0.329025 5.78518 0.733255 5.78518H7.20094V9.21482H0.733255C0.329025 9.21482 0 9.52261 0 9.90075V13.8141C0 14.1922 0.329025 14.5 0.733255 14.5H15.2667C15.671 14.5 16 14.1922 16 13.8141V9.90075C16 9.52261 15.671 9.21482 15.2667 9.21482H8.79906V5.78518H15.2667L15.2573 5.77638ZM14.9941 13.5503H4.83196V10.1382H14.9941V13.5503ZM14.9941 4.84422H4.83196V1.43216H14.9941V4.84422Z" fill="currentColor"/>
</svg>
