<svg width="16" height="16" viewBox="0 0 16 16" fill="none" xmlns="http://www.w3.org/2000/svg">
    <path d="M13.9183 1.02446C14.4932 1.02446 14.9548 1.48871 14.9548 2.04892C14.9548 2.60914 14.4851 3.07338 13.9179 3.07338C13.3506 3.07338 12.8809 2.60914 12.8809 2.04892C12.8809 1.48871 13.3429 1.02446 13.9179 1.02446M4.35822 6.87542H0.518364C0.234739 6.87542 0 7.10745 0 7.38765C0 7.66786 0.234941 7.89988 0.518364 7.89988H4.35822C5.63817 7.89988 6.68318 6.89932 6.74015 5.64283H8.96815C9.1948 6.21904 9.75377 6.6353 10.4261 6.6353C11.285 6.6353 11.9818 5.94693 11.9818 5.09861C11.9818 4.25029 11.2848 3.56192 10.4261 3.56192C9.73741 3.56192 9.14612 4.01017 8.9435 4.61837H6.75631V3.89801C6.75631 3.16165 7.36396 2.56135 8.10919 2.56135H11.9167C12.1517 3.44976 12.9617 4.09804 13.9259 4.09804C15.0766 4.09804 15.9998 3.17765 15.9998 2.04892C15.9998 0.920198 15.0602 0 13.9183 0C12.9539 0 12.1436 0.656382 11.9086 1.53669H8.10111C6.78055 1.53669 5.7115 2.59314 5.7115 3.89781V4.61817H0.518364C0.234739 4.61817 0 4.8502 0 5.1304C0 5.41061 0.234941 5.64263 0.518364 5.64263H5.70281C5.65514 6.33476 5.06789 6.87325 4.35822 6.87542ZM0.518364 10.3653H7.0965C7.32356 10.9415 7.88253 11.3577 8.55483 11.3577C9.41338 11.3577 10.1105 10.6694 10.1105 9.82104C10.1105 8.97272 9.41318 8.28435 8.55483 8.28435C7.86617 8.28435 7.27488 8.7326 7.07226 9.3408H0.518364C0.234739 9.3408 0 9.57283 0 9.85303C0 10.1332 0.234941 10.3653 0.518364 10.3653ZM13.9183 14.9836C13.3433 14.9836 12.8813 14.5194 12.8813 13.9592C12.8813 13.399 13.351 12.9347 13.9183 12.9347C14.4855 12.9347 14.9552 13.399 14.9552 13.9592C14.9552 14.5194 14.4855 14.9836 13.9183 14.9836ZM13.9183 11.9022C12.9543 11.9022 12.144 12.5585 11.909 13.4388H10.7751C10.0782 13.4388 9.37318 13.2787 8.74149 12.9827L6.99994 12.1504C6.22764 11.7825 5.3798 11.5909 4.52064 11.5902H0.518364C0.234739 11.5902 0 11.8222 0 12.1024C0 12.3826 0.234941 12.6146 0.518364 12.6146H4.52852C5.22546 12.6146 5.93008 12.7748 6.56218 13.0708L8.30373 13.9031C9.07602 14.2708 9.92366 14.4625 10.7826 14.4633H11.9169C12.1519 15.3517 12.9619 16 13.9261 16C15.0768 16 16 15.0796 16 13.9509C15.9917 12.8224 15.0604 11.9018 13.9185 11.9018" fill="currentColor"/>
</svg>
