<svg xmlns="http://www.w3.org/2000/svg" viewBox="0 0 36 36"><path d="M6.31 22.3a.39.39 0 0 0-.55 0c-.29.28-.7.68-.84.83A17.35 17.35 0 0 0 0 34a17.35 17.35 0 0 0 10.9-4.9c.15-.14.55-.55.83-.84a.39.39 0 0 0 0-.55ZM26.15 18l1.69-1.54a17.43 17.43 0 0 0 5.48-10.59L34 1.63A1.4 1.4 0 0 0 32.39 0l-4.24.71a17.36 17.36 0 0 0-10.63 5.47l-4.74 5.2L6.31 11a1 1 0 0 0-.87.44L2.18 16.3a1 1 0 0 0 .41 1.43l4.59 2.09 7 7 2.09 4.59a1 1 0 0 0 1.43.41L19 31a8.89 8.89 0 0 1-1-4 9 9 0 0 1 8.15-9Zm-5.72-8.57a2.94 2.94 0 1 1 0 4.16 3 3 0 0 1 0-4.16Z" fill="currentColor"/><path fill="var(--errorColor, #F25C6E)" d="M29.93 23.87A4.28 4.28 0 0 0 22.85 26a.31.31 0 0 1-.3.23h-1.46a.31.31 0 0 1-.31-.36 6.34 6.34 0 0 1 10.6-3.4l.91-.91a.61.61 0 0 1 1 .44v3.42a.61.61 0 0 1-.61.61H29.3a.61.61 0 0 1-.43-1.05ZM21.29 28h3.42a.61.61 0 0 1 .43 1.05l-1.06 1.06A4.23 4.23 0 0 0 27 31.29a4.29 4.29 0 0 0 4.15-3.24.31.31 0 0 1 .3-.23h1.46a.3.3 0 0 1 .3.36 6.33 6.33 0 0 1-10.59 3.4l-.91.91a.62.62 0 0 1-1-.44v-3.42a.62.62 0 0 1 .58-.63Z"/></svg>