<svg xmlns="http://www.w3.org/2000/svg" viewBox="0 0 24 24"><path d="m13.34 19.83 3.39-6.27.11-.19.15-.16a2.43 2.43 0 0 1 1.7-.71l.95-.86a12.25 12.25 0 0 0 3.86-7.5l.49-3A1 1 0 0 0 22.85 0l-3 .49a12.25 12.25 0 0 0-7.5 3.86L9 8l-4.55-.24a.68.68 0 0 0-.61.31l-2.3 3.43a.69.69 0 0 0 .29 1L5.07 14 10 18.93l1.47 3.24a.69.69 0 0 0 1 .29l.46-.3a2.41 2.41 0 0 1 .41-2.33Zm1.08-13.17a2.06 2.06 0 1 1 0 2.92 2.06 2.06 0 0 1 0-2.92Zm-9.97 9.07a.27.27 0 0 0-.38 0l-.6.59A12.25 12.25 0 0 0 0 24a12.23 12.23 0 0 0 7.69-3.47l.59-.6a.27.27 0 0 0 0-.38Z" fill="currentColor"/><path fill="var(--warnColor, #FFD550)" d="M19.36 14.27a.91.91 0 0 0-.65-.27.93.93 0 0 0-.66.27l-3.47 6.42a.93.93 0 0 0 0 1.31h8a.93.93 0 0 0 0-1.31Zm-.76 6.8a.62.62 0 1 1 .62-.62.62.62 0 0 1-.62.62Zm.39-1.7h-.78l-.38-3.17h1.54Z"/></svg>