<svg xmlns="http://www.w3.org/2000/svg" viewBox="0 0 24 24">
    <defs>
        <style>.evqm-1{fill:none;opacity:0.35;}.evqm-2{fill:#4d4d4d;}.evqm-3{fill:#f25c6e;}</style>
    </defs>
    <g id="Layer_2">
        <g id="Layer_1-2">
            <rect class="evqm-1" width="24" height="24"/>
            <path class="evqm-2"
                  d="M4.2,14.86a.25.25,0,0,0-.36,0l-.56.55A11.6,11.6,0,0,0,0,22.68,11.6,11.6,0,0,0,7.27,19.4l.55-.56a.25.25,0,0,0,0-.36Z"/>
            <path class="evqm-2"
                  d="M17.43,12l1.13-1a11.57,11.57,0,0,0,3.65-7.09l.46-2.82A.94.94,0,0,0,21.59,0L18.77.47a11.57,11.57,0,0,0-7.09,3.65L8.52,7.59,4.21,7.34a.62.62,0,0,0-.58.28L1.46,10.86a.65.65,0,0,0,.27,1l3.06,1.39,4.68,4.68L10.86,21a.66.66,0,0,0,1,.27l.82-.55A6,6,0,0,1,17.43,12ZM13.62,6.29a2,2,0,1,1,0,2.77A2,2,0,0,1,13.62,6.29Z"/>
            <path class="evqm-3"
                  d="M18,13a5,5,0,1,0,5,5A5,5,0,0,0,18,13Zm2.78,6.64-1.13,1.14L18,19.13l-1.64,1.65-1.14-1.14L16.87,18l-1.64-1.64,1.13-1.14L18,16.86l1.64-1.63,1.14,1.12L19.14,18Z"/>
        </g>
    </g>
</svg>