<svg xmlns="http://www.w3.org/2000/svg" viewBox="0 0 24 24"><path d="M4.2 14.86a.25.25 0 0 0-.36 0l-.56.55A11.6 11.6 0 0 0 0 22.68a11.6 11.6 0 0 0 7.27-3.28l.55-.56a.25.25 0 0 0 0-.36ZM17.43 12l1.13-1a11.57 11.57 0 0 0 3.65-7.09l.46-2.82A.94.94 0 0 0 21.59 0l-2.82.47a11.57 11.57 0 0 0-7.09 3.65L8.52 7.59l-4.31-.25a.62.62 0 0 0-.58.28l-2.17 3.24a.65.65 0 0 0 .27 1l3.06 1.39 4.68 4.68L10.86 21a.66.66 0 0 0 1 .27l.82-.55A6 6 0 0 1 17.43 12Zm-3.81-5.71a2 2 0 1 1 0 2.77 2 2 0 0 1 0-2.77Z" fill="currentColor"/><path fill="var(--errorColor, #F25C6E)" d="M18 13a5 5 0 1 0 5 5 5 5 0 0 0-5-5Zm2.78 6.64-1.13 1.14L18 19.13l-1.64 1.65-1.14-1.14L16.87 18l-1.64-1.64 1.13-1.14L18 16.86l1.64-1.63 1.14 1.12L19.14 18Z"/></svg>