<svg xmlns="http://www.w3.org/2000/svg" viewBox="0 0 24 24"><path d="M11.35 1.72 10 3.63a9.56 9.56 0 0 0-2 6.25l.18 3.87-2.69 2.36a.54.54 0 0 0-.17.51l.62 3.15a.55.55 0 0 0 .72.4l2.59-1h5.45l2.6 1a.54.54 0 0 0 .71-.4l.65-3.19a.53.53 0 0 0-.18-.51l-2.67-2.34.19-3.85a9.56 9.56 0 0 0-2-6.25l-1.4-1.91a.77.77 0 0 0-1.25 0ZM13.59 10A1.62 1.62 0 1 1 12 8.4a1.61 1.61 0 0 1 1.59 1.6Zm4.93 11.2H5.46a1 1 0 0 0-1 1v1.59a.24.24 0 0 0 .24.24h14.55a.24.24 0 0 0 .24-.24v-1.62a1 1 0 0 0-.97-.97Z" fill="currentColor"/></svg>