<svg xmlns="http://www.w3.org/2000/svg" viewBox="0 0 27 36">
    <defs>
        <style>.rxcv{fill:#4d4d4d;}</style>
    </defs>
    <g id="Layer_2">
        <g id="Layer_1-2">
            <path class="rxcv"
                  d="M13.09,0C5.7.23,0,6.67,0,14.07V32.62a1.12,1.12,0,0,0,1.92.8l1.75-1.3a1.11,1.11,0,0,1,1.51.15l3,3.4a1.13,1.13,0,0,0,1.6,0l2.86-3.22a1.11,1.11,0,0,1,1.68,0l2.86,3.22a1.13,1.13,0,0,0,1.6,0l3-3.4a1.11,1.11,0,0,1,1.51-.15l1.75,1.3a1.12,1.12,0,0,0,1.92-.8V13.5A13.5,13.5,0,0,0,13.09,0ZM9,15.75a2.25,2.25,0,1,1,2.25-2.25A2.25,2.25,0,0,1,9,15.75Zm9,0a2.25,2.25,0,1,1,2.25-2.25A2.25,2.25,0,0,1,18,15.75Z"/>
        </g>
    </g>
</svg>