<svg xmlns="http://www.w3.org/2000/svg" viewBox="0 0 36 36"><path d="m22.65 17.9-5.99 5.98-3.31-3.32-2.14 2.13 5.45 5.46 8.13-8.12-2.14-2.13z" fill="var(--successColor, #64D864)"/><path d="M29.25 6.75H28v-2.5A1.25 1.25 0 0 0 26.75 3H25.5a1.25 1.25 0 0 0-1.25 1.25v2.5h-12.5v-2.5A1.25 1.25 0 0 0 10.5 3H9.25A1.25 1.25 0 0 0 8 4.25v2.5H6.75A3.75 3.75 0 0 0 3 10.5v18.75A3.75 3.75 0 0 0 6.75 33h22.5A3.75 3.75 0 0 0 33 29.25V10.5a3.75 3.75 0 0 0-3.75-3.75Zm1.25 22.5a1.25 1.25 0 0 1-1.25 1.25H6.75a1.25 1.25 0 0 1-1.25-1.25v-13.7h25Z" fill="currentColor"/></svg>
