<svg xmlns="http://www.w3.org/2000/svg" viewBox="0 0 24 24">
    <defs>
        <style>.jfjb-1,.jfjb-2{fill:none}.jfjb-1{opacity:0.35}.jfjb-3{fill:#4d4d4d}.jfjb-4{fill:#64d864}</style>
    </defs>
    <g id="Layer_2">
        <g id="Layer_1-2">
            <rect class="jfjb-1" width="24" height="24"/>
            <circle class="jfjb-2" cx="18" cy="18" r="6"/>
            <path class="jfjb-3"
                  d="M17,12.08a6,6,0,0,1,3.32.39A.49.49,0,0,0,21,12V3.5a.5.5,0,0,0-.5-.5H3.5a.5.5,0,0,0-.5.5v17a.5.5,0,0,0,.5.5H12a.49.49,0,0,0,.46-.68A6,6,0,0,1,17,12.08Z"/>
            <path class="jfjb-4"
                  d="M18,13a5,5,0,1,0,5,5A5,5,0,0,0,18,13Zm-.53,7.34L16.33,19.2,15,17.87l1.14-1.14,1.33,1.33,2.39-2.39L21,16.8Z"/>
        </g>
    </g>
</svg>