<?xml version="1.0" encoding="utf-8"?>
<svg version="1.1" id="Layer_1" xmlns="http://www.w3.org/2000/svg" xmlns:xlink="http://www.w3.org/1999/xlink" x="0px" y="0px"
	 viewBox="0 0 24.5 24.5" style="enable-background:new 0 0 24.5 24.5;" xml:space="preserve">
<style type="text/css">
	.st0{fill:#FFFFFF;}
	.st1{fill:#4D4D4D;}
</style>
<g>
	<g>
		<path class="st1" d="M16.2,3.2H8.3C8,3.2,7.7,3.5,7.7,3.8v3.7C7.7,7.8,8,8,8.3,8h7.9c0.3,0,0.5-0.2,0.5-0.5V3.8
			C16.8,3.5,16.5,3.2,16.2,3.2z"/>
		<path class="st1" d="M21.5,16.5h-2.1v-2.9c0-0.7-0.6-1.3-1.3-1.3h-5V9.3h-1.6v2.9h-5c-0.7,0-1.3,0.6-1.3,1.3v2.9H3
			c-0.3,0-0.5,0.2-0.5,0.5v3.7c0,0.3,0.2,0.5,0.5,0.5h5.8c0.3,0,0.5-0.2,0.5-0.5V17c0-0.3-0.2-0.5-0.5-0.5H6.7v-2.6h11.1v2.6h-2.1
			c-0.3,0-0.5,0.2-0.5,0.5v3.7c0,0.3,0.2,0.5,0.5,0.5h5.8c0.3,0,0.5-0.2,0.5-0.5V17C22,16.7,21.8,16.5,21.5,16.5z"/>
	</g>
</g>
</svg>
