<svg xmlns="http://www.w3.org/2000/svg" viewBox="0 0 24 24"><defs><style>.cls-1{fill:none;opacity:0.35;}.cls-2{fill:#ffd550;}</style></defs><title>running</title><g id="Layer_2" data-name="Layer 2"><g id="Layer_1-2" data-name="Layer 1"><rect class="cls-1" width="24" height="24"/><path class="cls-2" d="M21.17,10.31H19.72a.86.86,0,0,1-.58-.58,7.86,7.86,0,0,0-.48-1.16.84.84,0,0,1,.13-1l.87-.87a.84.84,0,0,0,0-1.19L18.48,4.34a.85.85,0,0,0-1.18,0l-.87.88a.83.83,0,0,1-1,.13,7.38,7.38,0,0,0-1.17-.48.86.86,0,0,1-.61-.81V2.83A.84.84,0,0,0,12.83,2H11.17a.84.84,0,0,0-.84.83V4.06a.86.86,0,0,1-.61.81,7.38,7.38,0,0,0-1.17.48.83.83,0,0,1-1-.13L6.7,4.34a.85.85,0,0,0-1.18,0L4.34,5.52a.84.84,0,0,0,0,1.19l.87.87a.84.84,0,0,1,.13,1,7.86,7.86,0,0,0-.48,1.16.86.86,0,0,1-.58.58H2.83a.84.84,0,0,0-.83.84v1.7a.84.84,0,0,0,.83.84H4.28a.86.86,0,0,1,.58.58,7.86,7.86,0,0,0,.48,1.16.84.84,0,0,1-.13,1l-.87.87a.84.84,0,0,0,0,1.19l1.18,1.18a.85.85,0,0,0,1.18,0l.87-.88a.83.83,0,0,1,1-.13,7.38,7.38,0,0,0,1.17.48.86.86,0,0,1,.61.81v1.23a.84.84,0,0,0,.84.83h1.66a.84.84,0,0,0,.84-.83V19.94a.86.86,0,0,1,.61-.81,7.38,7.38,0,0,0,1.17-.48.83.83,0,0,1,1,.13l.87.88a.85.85,0,0,0,1.18,0l1.18-1.18a.84.84,0,0,0,0-1.19l-.87-.87a.84.84,0,0,1-.13-1,7.86,7.86,0,0,0,.48-1.16.86.86,0,0,1,.58-.58h1.45a.84.84,0,0,0,.83-.84v-1.7A.84.84,0,0,0,21.17,10.31ZM12,15.48A3.48,3.48,0,1,1,15.48,12,3.48,3.48,0,0,1,12,15.48Z"/></g></g></svg>