<svg xmlns="http://www.w3.org/2000/svg" viewBox="0 0 24 24"><defs><style>.cls-1{fill:none;opacity:0.35;}.cls-2{fill:#4d4d4d;}</style></defs><title>status-unknown</title><g id="Layer_2" data-name="Layer 2"><g id="Layer_1-2" data-name="Layer 1"><rect class="cls-1" width="24" height="24"/><path class="cls-2" d="M12,2A10,10,0,1,0,22,12,10,10,0,0,0,12,2Zm0,16.91a1.39,1.39,0,1,1,1.39-1.39A1.38,1.38,0,0,1,12,18.91Zm1.35-6.06v.54a1.36,1.36,0,0,1-2.72,0v-.5a2.77,2.77,0,0,1,1.79-2.61,1.27,1.27,0,0,0,.84-1.19,1.3,1.3,0,0,0-.38-.89,1.29,1.29,0,0,0-.9-.38,1.27,1.27,0,0,0-1.26,1.27A1.36,1.36,0,0,1,8,9.09a4,4,0,0,1,4-4,3.82,3.82,0,0,1,2.83,1.19,4,4,0,0,1-1.46,6.57Z"/></g></g></svg>