<svg xmlns="http://www.w3.org/2000/svg" viewBox="0 0 24.5 24.5"><defs><style>.cls-1,.cls-2{fill:none;}.cls-1{opacity:0.35;}.cls-3{fill:#ffd550;}.cls-4{fill:#4d4d4d;}</style></defs><title>stopping-running</title>
<g id="Layer_2" data-name="Layer 2"><g id="Layer_1-2" data-name="Layer 1"><rect class="cls-1" width="24" height="24"/><circle class="cls-2" cx="18" cy="18" r="6.5"/>
<path class="cls-3" d="M22.58,17.16h-.72a.44.44,0,0,1-.29-.29,3.83,3.83,0,0,0-.24-.59.41.41,0,0,1,.06-.49l.44-.44a.42.42,0,0,0,0-.59l-.59-.59a.42.42,0,0,0-.59,0l-.44.44a.42.42,0,0,1-.49.07,3.76,3.76,0,0,0-.58-.25.42.42,0,0,1-.31-.4v-.61a.41.41,0,0,0-.41-.42h-.84a.41.41,0,0,0-.41.42V14a.42.42,0,0,1-.31.4,3.76,3.76,0,0,0-.58.25.42.42,0,0,1-.49-.07l-.44-.44a.42.42,0,0,0-.59,0l-.59.59a.42.42,0,0,0,0,.59l.44.44a.41.41,0,0,1,.06.49,3.83,3.83,0,0,0-.24.59.44.44,0,0,1-.29.29h-.72a.41.41,0,0,0-.42.41v.86a.41.41,0,0,0,.42.41h.72a.44.44,0,0,1,.29.29,3.83,3.83,0,0,0,.24.59.41.41,0,0,1-.06.49l-.44.44a.42.42,0,0,0,0,.59l.59.59a.42.42,0,0,0,.59,0l.44-.44a.42.42,0,0,1,.49-.07,3.76,3.76,0,0,0,.58.25.42.42,0,0,1,.31.4v.61a.41.41,0,0,0,.41.42h.84a.41.41,0,0,0,.41-.42V22a.42.42,0,0,1,.31-.4,3.76,3.76,0,0,0,.58-.25.42.42,0,0,1,.49.07l.44.44a.42.42,0,0,0,.59,0l.59-.59a.42.42,0,0,0,0-.59l-.44-.44a.41.41,0,0,1-.06-.49,3.83,3.83,0,0,0,.24-.59.44.44,0,0,1,.29-.29h.72a.41.41,0,0,0,.42-.41v-.86A.41.41,0,0,0,22.58,17.16ZM18,19.74A1.74,1.74,0,1,1,19.74,18,1.74,1.74,0,0,1,18,19.74Z">
<animateTransform attributeName="transform"
                          attributeType="XML"
                          type="rotate"
                          from="0 18 18"
                          to="360 18 18"
                          dur="2s"
                          repeatCount="indefinite"/>
</path>
<path class="cls-4" d="M17,12.08a6,6,0,0,1,3.32.39A.49.49,0,0,0,21,12V3.5a.5.5,0,0,0-.5-.5H3.5a.5.5,0,0,0-.5.5v17a.5.5,0,0,0,.5.5H12a.49.49,0,0,0,.46-.68A6,6,0,0,1,17,12.08Z"/>
</g></g></svg>