<svg xmlns="http://www.w3.org/2000/svg" viewBox="0 0 24 24"><defs><style>.cls-1{fill:none;opacity:0.35;}.cls-2{fill:#f25c6e;}</style></defs><title>stopped-working</title><g id="Layer_2" data-name="Layer 2"><g id="Layer_1-2" data-name="Layer 1"><rect class="cls-1" width="24" height="24"/><path class="cls-2" d="M19.39,8.94c-.45-1.1.51-3.18-.32-4s-2.91.13-4-.32S13.22,2,12,2,10,4.17,8.94,4.61s-3.18-.51-4,.32.13,2.91-.32,4S2,10.78,2,12s2.17,2,2.61,3.06-.51,3.18.32,4,2.91-.13,4,.32S10.78,22,12,22s2-2.17,3.06-2.61,3.18.51,4-.32-.13-2.91.32-4S22,13.22,22,12,19.83,10,19.39,8.94ZM10.88,7.37a1.12,1.12,0,1,1,2.24,0v4.82a1.12,1.12,0,0,1-2.24,0ZM12,17.79a1.5,1.5,0,1,1,1.5-1.49A1.49,1.49,0,0,1,12,17.79Z"/></g></g></svg>