<svg xmlns="http://www.w3.org/2000/svg" viewBox="0 0 20 20">
    <defs>
        <style>.a { fill: #fff; } .b { fill: none; }</style>
    </defs>
    <title>node-switch</title>
    <g>
        <g>
            <path class="a"
                  d="M5.58,8.59H.81a.35.35,0,0,0-.35.35v2.12a.35.35,0,0,0,.35.35H5.58a.35.35,0,0,0,.35-.35V8.94A.35.35,0,0,0,5.58,8.59Z"/>
            <path class="a"
                  d="M19.44,9.71,15.19,5.85a.37.37,0,0,0-.39-.05.33.33,0,0,0-.21.32V8.59H9.93a.35.35,0,0,0-.35.35v2.12a.35.35,0,0,0,.35.35H14.6v2.48a.35.35,0,0,0,.6.25l4.24-3.91a.38.38,0,0,0,.11-.27A.35.35,0,0,0,19.44,9.71Z"/>
            <rect class="a" x="7.33" y="3.79" width="1.03" height="12.42" rx="0.24" ry="0.24"/>
        </g>
        <rect class="b" width="20" height="20"/>
    </g>
</svg>