<svg xmlns="http://www.w3.org/2000/svg" viewBox="48 0 50 60" xml:space="preserve" fill="currentColor"><path d="M68.35,58a15.64,15.64,0,0,1-5.53-1,12,12,0,0,1-4.48-2.95,13.79,13.79,0,0,1-3-5,20.89,20.89,0,0,1-1.08-7.07V29.89l9.62-6h.46V40a9.9,9.9,0,0,0,2,6.59q2,2.36,6,2.36h.8q4,0,6-2.36a9.9,9.9,0,0,0,2-6.59V23.89h.44l9.65,6V42.07a20.89,20.89,0,0,1-1.08,7.07,13.92,13.92,0,0,1-3,5,12,12,0,0,1-4.49,2.95,15.62,15.62,0,0,1-5.52,1Z" /><path d="M91.25,23.25v-5a7.86,7.86,0,0,0-1.08-4.18,9,9,0,0,0-3-3,14.81,14.81,0,0,0-4.49-1.74,25.42,25.42,0,0,0-5.52-.57h-1V1H69.39V8.8h-1a25.45,25.45,0,0,0-5.53.57,14.64,14.64,0,0,0-4.48,1.74,8.89,8.89,0,0,0-3,3,7.86,7.86,0,0,0-1.08,4.18v5h1.11L65.6,16.89l6.59,10.55h1.13l6.59-10.55,10.23,6.36Z" /></svg>
