<svg xmlns="http://www.w3.org/2000/svg" viewBox="0 0 35 35"><path d="M23.84 14.71a.49.49 0 0 1 .85-.35l2.79 2.79a.5.5 0 0 1 0 .71l-2.79 2.79a.5.5 0 0 1-.85-.36V18.5h-3a1 1 0 0 1-1-1 1 1 0 0 1 1-1h3z" fill="currentColor"/><circle cx="16.84" cy="17.5" r="1" fill="currentColor"/><circle cx="12.84" cy="17.5" r="1" fill="currentColor"/><circle cx="8.84" cy="17.5" r="1" fill="currentColor"/><path d="M31 8.51h-9.86a2 2 0 0 0-2 2v3a1 1 0 0 0 2 0v-2a1 1 0 0 1 1-1H30a1 1 0 0 1 1 1v12a1 1 0 0 1-1 1h-7.86a1 1 0 0 1-1-1v-2a1 1 0 0 0-2 0v3a2 2 0 0 0 2 2H31a2 2 0 0 0 2-2v-14a2 2 0 0 0-2-2zM4 26.49h9.89a2 2 0 0 0 2-2v-3a1 1 0 0 0-2 0v2a1 1 0 0 1-1 1H5a1 1 0 0 1-1-1v-12a1 1 0 0 1 1-1h7.89a1 1 0 0 1 1 1v2a1 1 0 0 0 2 0v-3a2 2 0 0 0-2-2H4a2 2 0 0 0-2 2v14a2 2 0 0 0 2 2z" fill="currentColor"/></svg>