<svg xmlns="http://www.w3.org/2000/svg" viewBox="0 0 35 35"><path d="M26.05 18.63a10.36 10.36 0 0 0 .08-1.13 10.36 10.36 0 0 0-.08-1.13l2.42-1.89a.58.58 0 0 0 .14-.74l-2.3-4a.58.58 0 0 0-.7-.25l-2.86 1.15a8.62 8.62 0 0 0-1.95-1.11l-.43-3A.57.57 0 0 0 19.8 6h-4.6a.56.56 0 0 0-.56.48l-.44 3a8.94 8.94 0 0 0-1.94 1.13L9.4 9.51a.57.57 0 0 0-.71.25l-2.3 4a.57.57 0 0 0 .14.74L9 16.37a8 8 0 0 0 0 2.26l-2.47 1.89a.6.6 0 0 0-.14.74l2.3 4a.59.59 0 0 0 .71.25l2.86-1.15a8.56 8.56 0 0 0 1.94 1.13l.44 3.05a.56.56 0 0 0 .56.48h4.6a.57.57 0 0 0 .57-.48l.43-3.05a9 9 0 0 0 1.95-1.13l2.86 1.15a.56.56 0 0 0 .7-.25l2.3-4a.58.58 0 0 0-.14-.74zm-8.55 5a6.15 6.15 0 1 1 6.16-6.15 6.16 6.16 0 0 1-6.16 6.17z" fill="currentColor"/></svg>