<svg xmlns="http://www.w3.org/2000/svg" viewBox="0 0 35 35"><defs><style>.a{fill:none;}.b{fill:#ccc;}</style></defs><rect class="a" width="35" height="35"/><path class="b" d="M17.5,12.5a1,1,0,0,0-1,1v4a1,1,0,0,0,2,0v-4A1,1,0,0,0,17.5,12.5Zm0,8a1,1,0,1,0,1,1A1,1,0,0,0,17.5,20.5Zm9.71-7.44L21.94,7.79a1.05,1.05,0,0,0-.71-.29H13.77a1.05,1.05,0,0,0-.71.29L7.79,13.06a1.05,1.05,0,0,0-.29.71v7.46a1.05,1.05,0,0,0,.29.71l5.27,5.27a1.05,1.05,0,0,0,.71.29h7.46a1.05,1.05,0,0,0,.71-.29l5.27-5.27a1.05,1.05,0,0,0,.29-.71V13.77A1.05,1.05,0,0,0,27.21,13.06ZM25.5,20.81,20.81,25.5H14.19L9.5,20.81V14.19L14.19,9.5h6.62l4.69,4.69Z"/></svg>