<svg width="16" height="16" viewBox="0 0 16 16" fill="none" xmlns="http://www.w3.org/2000/svg">
    <path d="M10.4255 4.36368V11.3334C10.4255 12.6728 9.3407 13.7576 8.0013 13.7576C6.66191 13.7576 5.57706 12.6728 5.57706 11.3334V3.75762C5.57706 2.92125 6.25585 2.24246 7.09221 2.24246C7.92857 2.24246 8.60736 2.92125 8.60736 3.75762V10.1213C8.60736 10.4546 8.33464 10.7273 8.0013 10.7273C7.66797 10.7273 7.39524 10.4546 7.39524 10.1213V4.36368H6.48615V10.1213C6.48615 10.9576 7.16494 11.6364 8.0013 11.6364C8.83767 11.6364 9.51645 10.9576 9.51645 10.1213V3.75762C9.51645 2.41822 8.4316 1.33337 7.09221 1.33337C5.75282 1.33337 4.66797 2.41822 4.66797 3.75762V11.3334C4.66797 13.1758 6.15888 14.6667 8.0013 14.6667C9.84373 14.6667 11.3346 13.1758 11.3346 11.3334V4.36368H10.4255Z" fill="currentColor"/>
</svg>
