<svg width="16" height="16" viewBox="0 0 16 16" fill="none" xmlns="http://www.w3.org/2000/svg">
    <path d="M3.33226 3.60926V13.0828C3.33314 13.2481 3.37839 13.41 3.46328 13.5517C3.54817 13.6935 3.66958 13.8098 3.81481 13.8885C3.96005 13.9673 4.12377 14.0056 4.28887 13.9994C4.45396 13.9932 4.61436 13.9428 4.7533 13.8534L12.2374 9.09131C12.3678 9.00792 12.4751 8.89306 12.5495 8.7573C12.6238 8.62154 12.6627 8.46925 12.6627 8.31448C12.6627 8.1597 12.6238 8.00741 12.5495 7.87165C12.4751 7.73589 12.3678 7.62103 12.2374 7.53764L4.7533 2.81348C4.61256 2.72287 4.44981 2.67227 4.2825 2.66712C4.11519 2.66197 3.94963 2.70246 3.80359 2.78425C3.65754 2.86603 3.53651 2.98603 3.45348 3.13137C3.37045 3.27672 3.32854 3.44192 3.33226 3.60926Z" fill="currentColor"/>
</svg>
