<svg width="16" height="16" viewBox="0 0 16 16" fill="none" xmlns="http://www.w3.org/2000/svg">
    <path d="M13.8457 5.3143C13.7576 5.10151 13.6296 4.90755 13.4686 4.74287L11.28 2.53145C10.9279 2.21118 10.4754 2.02331 9.99999 2.00002H2.74859C2.65008 1.99926 2.55239 2.0181 2.46123 2.05545C2.37006 2.0928 2.28724 2.14791 2.21758 2.21758C2.14791 2.28724 2.0928 2.37006 2.05545 2.46123C2.0181 2.55239 1.99926 2.65008 2.00002 2.74859V13.2514C1.99926 13.3499 2.0181 13.4476 2.05545 13.5388C2.0928 13.6299 2.14791 13.7128 2.21758 13.7824C2.28724 13.8521 2.37006 13.9072 2.46123 13.9445C2.55239 13.9819 2.65008 14.0007 2.74859 14H13.2514C13.3499 14.0007 13.4476 13.9819 13.5388 13.9445C13.6299 13.9072 13.7128 13.8521 13.7824 13.7824C13.8521 13.7128 13.9072 13.6299 13.9445 13.5388C13.9819 13.4476 14.0007 13.3499 14 13.2514V6.00001C13.994 5.76354 13.9415 5.53055 13.8457 5.3143ZM6.98857 3.25145C6.98857 3.18476 7.01507 3.12081 7.06222 3.07366C7.10937 3.02651 7.17332 3.00002 7.24 3.00002H8.73714C8.80382 3.00002 8.86777 3.02651 8.91493 3.07366C8.96208 3.12081 8.98857 3.18476 8.98857 3.25145V5.74858C8.98857 5.81526 8.96208 5.87921 8.91493 5.92637C8.86777 5.97352 8.80382 6.00001 8.73714 6.00001H7.25143C7.18475 6.00001 7.1208 5.97352 7.07365 5.92637C7.02649 5.87921 7 5.81526 7 5.74858V3.25145H6.98857ZM10.9886 13H5.00001V9.99999H11L10.9886 13ZM12.9886 13H12V9.74856C12.0007 9.65005 11.9819 9.55237 11.9446 9.4612C11.9072 9.37004 11.8521 9.28721 11.7824 9.21755C11.7128 9.14789 11.6299 9.09278 11.5388 9.05543C11.4476 9.01808 11.3499 8.99924 11.2514 9H4.74858C4.65007 8.99924 4.55238 9.01808 4.46122 9.05543C4.37006 9.09278 4.28723 9.14789 4.21757 9.21755C4.14791 9.28721 4.0928 9.37004 4.05545 9.4612C4.0181 9.55237 3.99925 9.65005 4.00001 9.74856V13H3.00002V3.00002H4.00001V6.25143C3.99925 6.34995 4.0181 6.44763 4.05545 6.5388C4.0928 6.62996 4.14791 6.71279 4.21757 6.78245C4.28723 6.85211 4.37006 6.90722 4.46122 6.94457C4.55238 6.98192 4.65007 7.00076 4.74858 7H9.25142C9.34994 7.00076 9.44762 6.98192 9.53879 6.94457C9.62995 6.90722 9.71277 6.85211 9.78244 6.78245C9.8521 6.71279 9.90721 6.62996 9.94456 6.5388C9.98191 6.44763 10.0008 6.34995 9.99999 6.25143V3.00002C10.2078 3.0264 10.4049 3.10722 10.5714 3.2343L12.7657 5.42858C12.8331 5.50792 12.8854 5.59895 12.92 5.69715C12.9666 5.79174 12.9938 5.89472 13 6.00001V13H12.9886Z" fill="currentColor"/>
</svg>
