<svg xmlns="http://www.w3.org/2000/svg" viewBox="0 0 24 24"><defs><style>.cls-1,.cls-4{fill:none;}.cls-1{opacity:0.35;}.cls-2{fill:#4d4d4d;}.cls-3{fill:#ffd550;}</style></defs><title>deploy-running</title><g id="Layer_2" data-name="Layer 2"><g id="Layer_1-2" data-name="Layer 1"><rect class="cls-1" width="24" height="24"/><path class="cls-2" d="M4.2,14.86a.25.25,0,0,0-.36,0l-.56.55A11.6,11.6,0,0,0,0,22.68,11.6,11.6,0,0,0,7.27,19.4l.55-.56a.25.25,0,0,0,0-.36Z"/><path class="cls-3" d="M22.59,17.16h-.73a.46.46,0,0,1-.29-.29,3,3,0,0,0-.24-.59.42.42,0,0,1,.07-.49l.43-.44a.4.4,0,0,0,0-.59l-.59-.59a.42.42,0,0,0-.59,0l-.43.44a.42.42,0,0,1-.49.07,4.35,4.35,0,0,0-.59-.25.41.41,0,0,1-.3-.4v-.61a.42.42,0,0,0-.42-.42h-.83a.42.42,0,0,0-.42.42V14a.42.42,0,0,1-.31.4,4.23,4.23,0,0,0-.58.25.42.42,0,0,1-.49-.07l-.44-.44a.42.42,0,0,0-.59,0l-.59.59a.42.42,0,0,0,0,.59l.44.44a.41.41,0,0,1,.06.49,5.19,5.19,0,0,0-.24.59.42.42,0,0,1-.29.29h-.72a.41.41,0,0,0-.42.41v.86a.41.41,0,0,0,.42.41h.72a.42.42,0,0,1,.29.29,5.19,5.19,0,0,0,.24.59.41.41,0,0,1-.06.49l-.44.44a.42.42,0,0,0,0,.59l.59.59a.42.42,0,0,0,.59,0l.44-.44a.42.42,0,0,1,.49-.07,4.23,4.23,0,0,0,.58.25.42.42,0,0,1,.31.4v.61a.42.42,0,0,0,.42.42h.83a.42.42,0,0,0,.42-.42V22a.41.41,0,0,1,.3-.4,4.35,4.35,0,0,0,.59-.25.42.42,0,0,1,.49.07l.43.44a.42.42,0,0,0,.59,0l.59-.59a.4.4,0,0,0,0-.59l-.43-.44a.42.42,0,0,1-.07-.49,3,3,0,0,0,.24-.59.46.46,0,0,1,.29-.29h.73a.41.41,0,0,0,.41-.41v-.86A.41.41,0,0,0,22.59,17.16ZM18,19.74A1.74,1.74,0,1,1,19.74,18,1.74,1.74,0,0,1,18,19.74Z"/><circle class="cls-4" cx="18" cy="18" r="6"/><path class="cls-2" d="M17.43,12l1.13-1a11.57,11.57,0,0,0,3.65-7.09l.46-2.82A.94.94,0,0,0,21.59,0L18.77.47a11.57,11.57,0,0,0-7.09,3.65L8.52,7.59,4.21,7.34a.62.62,0,0,0-.58.28L1.46,10.86a.65.65,0,0,0,.27,1l3.06,1.39,4.68,4.68L10.86,21a.66.66,0,0,0,1,.27l.82-.55A6,6,0,0,1,17.43,12ZM13.62,6.29a2,2,0,1,1,0,2.77A2,2,0,0,1,13.62,6.29Z"/></g></g></svg>