<svg xmlns="http://www.w3.org/2000/svg" viewBox="0 0 24 24"><defs><style>.cls-1,.cls-3{fill:none;}.cls-1{opacity:0.35;}.cls-2{fill:#4d4d4d;}.cls-4{fill:#64d864;}</style></defs><title>deploy-success</title><g id="Layer_2" data-name="Layer 2"><g id="Layer_1-2" data-name="Layer 1"><rect class="cls-1" width="24" height="24"/><path class="cls-2" d="M4.2,14.86a.25.25,0,0,0-.36,0l-.56.55A11.6,11.6,0,0,0,0,22.68,11.6,11.6,0,0,0,7.27,19.4l.55-.56a.25.25,0,0,0,0-.36Z"/><circle class="cls-3" cx="18" cy="18" r="6"/><path class="cls-2" d="M17.43,12l1.13-1a11.57,11.57,0,0,0,3.65-7.09l.46-2.82A.94.94,0,0,0,21.59,0L18.77.47a11.57,11.57,0,0,0-7.09,3.65L8.52,7.59,4.21,7.34a.62.62,0,0,0-.58.28L1.46,10.86a.65.65,0,0,0,.27,1l3.06,1.39,4.68,4.68L10.86,21a.66.66,0,0,0,1,.27l.82-.55A6,6,0,0,1,17.43,12ZM13.62,6.29a2,2,0,1,1,0,2.77A2,2,0,0,1,13.62,6.29Z"/><path class="cls-4" d="M18,13a5,5,0,1,0,5,5A5,5,0,0,0,18,13Zm-.53,7.34L16.33,19.2,15,17.87l1.14-1.14,1.33,1.33,2.39-2.39L21,16.8Z"/></g></g></svg>