<svg xmlns="http://www.w3.org/2000/svg" viewBox="0 0 24 24"><defs><style>.cls-1{fill:none;opacity:0.35;}.cls-2{fill:#4d4d4d;}</style></defs><title>not-deployed</title><g id="Layer_2" data-name="Layer 2"><g id="Layer_1-2" data-name="Layer 1"><rect class="cls-1" width="24" height="24"/><path class="cls-2" d="M11.35,1.72,10,3.63A9.56,9.56,0,0,0,8,9.88l.18,3.87L5.49,16.11a.54.54,0,0,0-.17.51l.62,3.15a.55.55,0,0,0,.72.4l2.59-1H14.7l2.6,1a.54.54,0,0,0,.71-.4l.65-3.19a.53.53,0,0,0-.18-.51l-2.67-2.34L16,9.88a9.56,9.56,0,0,0-2-6.25L12.6,1.72A.77.77,0,0,0,11.35,1.72ZM13.59,10A1.62,1.62,0,1,1,12,8.4,1.61,1.61,0,0,1,13.59,10Z"/><path class="cls-2" d="M18.52,21.2H5.46a1,1,0,0,0-1,1v1.59a.24.24,0,0,0,.24.24H19.25a.24.24,0,0,0,.24-.24V22.17A1,1,0,0,0,18.52,21.2Z"/></g></g></svg>