<svg xmlns="http://www.w3.org/2000/svg" viewBox="0 0 24 24"><defs><style>.cls-1{fill:#ff9a4d;}.cls-2{fill:none;}.cls-3{fill:#666;}</style></defs><title>deploy-warinng-light</title><g id="Layer_2" data-name="Layer 2"><g id="ikonsy"><path class="cls-1" d="M19.36,14.27a.91.91,0,0,0-.65-.27.93.93,0,0,0-.66.27l-3.47,6.42a.93.93,0,0,0,0,1.31h8a.93.93,0,0,0,0-1.31Zm-.76,6.8a.62.62,0,1,1,.62-.62A.62.62,0,0,1,18.6,21.07Zm.39-1.7h-.78l-.38-3.17h1.54Z"/><path class="cls-2" d="M17.34,9.58a2.06,2.06,0,1,0-2.92,0A2.06,2.06,0,0,0,17.34,9.58Z"/><path class="cls-3" d="M13.34,19.83l3.39-6.27.11-.19.15-.16a2.43,2.43,0,0,1,1.7-.71l.95-.86a12.25,12.25,0,0,0,3.86-7.5l.49-3A1,1,0,0,0,22.85,0l-3,.49a12.25,12.25,0,0,0-7.5,3.86L9,8,4.45,7.76a.68.68,0,0,0-.61.31L1.54,11.5a.69.69,0,0,0,.29,1L5.07,14,10,18.93l1.47,3.24a.69.69,0,0,0,1,.29l.46-.3A2.41,2.41,0,0,1,13.34,19.83ZM14.42,6.66a2.06,2.06,0,1,1,0,2.92A2.06,2.06,0,0,1,14.42,6.66Z"/><path class="cls-3" d="M4.45,15.73a.27.27,0,0,0-.38,0l-.6.59A12.25,12.25,0,0,0,0,24a12.23,12.23,0,0,0,7.69-3.47l.59-.6a.27.27,0,0,0,0-.38Z"/><rect class="cls-2" width="24" height="24"/></g></g></svg>