<svg xmlns="http://www.w3.org/2000/svg" viewBox="0 0 24 24">
    <defs>
        <style>.r74h-1{fill:none;opacity:0.35;}.r74h-2{fill:#4d4d4d;}</style>
    </defs>
    <g id="Layer_2">
        <g id="Layer_1-2">
            <rect class="r74h-1" width="24" height="24"/>
            <path class="r74h-2"
                  d="M22.25.67l-2.82.46a11.57,11.57,0,0,0-7.09,3.65L9.18,8.25,4.87,8a.64.64,0,0,0-.59.28L2.12,11.52a.65.65,0,0,0,.27,1l3.06,1.39,4.68,4.68,1.39,3.07a.66.66,0,0,0,1,.27l3.28-2.18a.64.64,0,0,0,.29-.59l-.28-4.31,3.45-3.15a11.57,11.57,0,0,0,3.65-7.09l.46-2.82A1,1,0,0,0,22.25.67Zm-5.2,9.05a2,2,0,1,1,0-2.77A2,2,0,0,1,17.05,9.72Z"/>
            <path class="r74h-2"
                  d="M8.48,19.14,4.86,15.52a.25.25,0,0,0-.36,0l-.56.55A11.6,11.6,0,0,0,.66,23.34a11.6,11.6,0,0,0,7.27-3.28l.55-.56A.25.25,0,0,0,8.48,19.14Z"/>
        </g>
    </g>
</svg>