<svg xmlns="http://www.w3.org/2000/svg" viewBox="0 0 24 24"><defs><style>.cls-1{fill:none;}.cls-2{fill:#ff9a4d;}.cls-3{fill:#666;}</style></defs><title>not-deployed-warning-light</title><g id="Layer_2" data-name="Layer 2"><g id="ikonsy"><path class="cls-1" d="M12,7.7A1.62,1.62,0,1,0,13.6,9.32,1.62,1.62,0,0,0,12,7.7Z"/><rect class="cls-1" width="24" height="24"/><path class="cls-2" d="M20.47,16.27a.91.91,0,0,0-.65-.27.93.93,0,0,0-.66.27l-3.47,6.42a.93.93,0,0,0,0,1.31h8a.93.93,0,0,0,0-1.31Zm-.76,6.8a.62.62,0,1,1,.62-.62A.62.62,0,0,1,19.71,23.07Zm.39-1.7h-.78l-.38-3.17h1.54Z"/><path class="cls-3" d="M18,15.37l.15-.16.11-.09L15.82,13,16,9.18a9.5,9.5,0,0,0-2-6.25L12.61,1a.77.77,0,0,0-1.25,0L10,2.93A9.56,9.56,0,0,0,8,9.18l.18,3.87L5.5,15.41a.54.54,0,0,0-.17.51L6,19.07a.55.55,0,0,0,.72.4l2.59-1h5.45L16,19l1.85-3.41Zm-6-4.44A1.62,1.62,0,1,1,13.6,9.32,1.61,1.61,0,0,1,12,10.93Z"/><path class="cls-3" d="M15.17,20.5H5.47a1,1,0,0,0-1,1v1.59a.24.24,0,0,0,.24.24h9.19a2.44,2.44,0,0,1,.52-1.47Z"/></g></g></svg>