<svg xmlns="http://www.w3.org/2000/svg" viewBox="0 0 24 24"><defs><style>.cls-1{fill:#ff9a4d;}.cls-2{fill:#666;}.cls-3{fill:none;}</style></defs><title>deploy-stopping-warning-light</title><g id="Layer_2" data-name="Layer 2"><g id="ikonsy"><path class="cls-1" d="M19,14.77a1,1,0,0,0-.66-.27.93.93,0,0,0-.66.27l-3.47,6.42a.93.93,0,0,0,0,1.31h8a.93.93,0,0,0,0-1.31Zm-.77,6.8a.62.62,0,1,1,.62-.62A.62.62,0,0,1,18.21,21.57Zm.39-1.7h-.78l-.38-3.17H19Z"/><path class="cls-2" d="M16.45,13.87l.15-.16a2.43,2.43,0,0,1,3.4,0V4H4V20h9.13l3.21-5.94Z"/><rect class="cls-3" width="24" height="24"/></g></g></svg>