<svg xmlns="http://www.w3.org/2000/svg" viewBox="0 0 24 24">
    <defs>
        <style>.usuj-1,.usuj-2{fill:none}.usuj-1{opacity:0.35}.usuj-3{fill:#4d4d4d}.usuj-4{fill:#f25c6e}</style>
    </defs>
    <g id="Layer_2">
        <g id="Layer_1-2">
            <rect class="usuj-1" width="24" height="24"/>
            <circle class="usuj-2" cx="18" cy="18" r="6"/>
            <path class="usuj-3"
                  d="M17,12.08a6,6,0,0,1,3.32.39A.49.49,0,0,0,21,12V3.5a.5.5,0,0,0-.5-.5H3.5a.5.5,0,0,0-.5.5v17a.5.5,0,0,0,.5.5H12a.49.49,0,0,0,.46-.68A6,6,0,0,1,17,12.08Z"/>
            <path class="usuj-4"
                  d="M18,13a5,5,0,1,0,5,5A5,5,0,0,0,18,13Zm2.77,6.64-1.12,1.14L18,19.13l-1.64,1.65-1.14-1.14L16.86,18l-1.64-1.64,1.14-1.14L18,16.86l1.64-1.63,1.14,1.12L19.13,18Z"/>
        </g>
    </g>
</svg>