<svg xmlns="http://www.w3.org/2000/svg" viewBox="0 0 20 20">
    <defs>
        <style>.a { fill: #fff; } .b { fill: none; }</style>
    </defs>
    <title>node-split</title>
    <g>
        <path class="a"
              d="M17.74,12.48h-.93V10.62a1.25,1.25,0,0,0-1.24-1.24h-5V7.52h.93a.93.93,0,0,0,.93-.93V3.5a.93.93,0,0,0-.93-.93H8.45a.93.93,0,0,0-.93.93V6.6a.93.93,0,0,0,.93.93h.93V9.38h-5a1.25,1.25,0,0,0-1.24,1.24v1.86H2.26a.93.93,0,0,0-.93.93v3.1a.93.93,0,0,0,.93.93H5.36a.93.93,0,0,0,.93-.93V13.4a.93.93,0,0,0-.93-.93H4.43V10.62H15.57v1.86h-.93a.93.93,0,0,0-.93.93v3.1a.93.93,0,0,0,.93.93h3.09a.93.93,0,0,0,.93-.93V13.4A.93.93,0,0,0,17.74,12.48Z"/>
        <rect class="b" width="20" height="20"/>
    </g>
</svg>