<svg xmlns="http://www.w3.org/2000/svg" viewBox="0 0 20 20">
    <defs>
        <style>.a { fill: #fff; } .b { fill: none; }</style>
    </defs>
    <title>node-sink</title>
    <g>
        <path class="a"
              d="M10,16.57A4.57,4.57,0,0,1,5.43,12a4.63,4.63,0,0,1,.72-2.46A22,22,0,0,0,9.24,4,.81.81,0,0,1,10,3.43a.8.8,0,0,1,.76.57,22,22,0,0,0,3.09,5.54,4.56,4.56,0,0,1-3.85,7Zm-.18-4A5.68,5.68,0,0,1,9,11.14a.19.19,0,0,0-.37,0,5.68,5.68,0,0,1-.78,1.38,1.22,1.22,0,0,0-.18.62,1.14,1.14,0,1,0,2.29,0A1.22,1.22,0,0,0,9.82,12.53Z"/>
        <rect class="b" width="20" height="20"/>
    </g>
</svg>