<svg xmlns="http://www.w3.org/2000/svg" viewBox="0 0 36 36">
    <g id="e64b2bcf-7324-4934-ab8c-6937555f0cab">
        <g id="bc42fc51-46fb-4ed6-bd13-22ec924b997e">
            <polygon points="22.65 17.9 16.66 23.88 13.35 20.56 11.21 22.69 16.66 28.15 24.79 20.03 22.65 17.9"
                     style="fill:#64d864"/>
            <path d="M29.25,6.75H28V4.25A1.25,1.25,0,0,0,26.75,3H25.5a1.25,1.25,0,0,0-1.25,1.25v2.5H11.75V4.25A1.25,1.25,0,0,0,10.5,3H9.25A1.25,1.25,0,0,0,8,4.25v2.5H6.75A3.75,3.75,0,0,0,3,10.5V29.25A3.75,3.75,0,0,0,6.75,33h22.5A3.75,3.75,0,0,0,33,29.25V10.5A3.75,3.75,0,0,0,29.25,6.75Zm1.25,22.5a1.25,1.25,0,0,1-1.25,1.25H6.75A1.25,1.25,0,0,1,5.5,29.25V15.55h25Z"
                  style="fill:#4d4d4d"/>
            <rect width="36" height="36" style="fill:none;opacity:0.35000000000000003"/>
        </g>
    </g>
</svg>
