<svg xmlns="http://www.w3.org/2000/svg" viewBox="0 0 36 36">
    <g id="b6eea0cd-0d5e-4a9a-9564-7574e07350f1">
        <g id="b3a2f1e2-4fea-4674-9c22-5522ccc2d195">
            <rect width="36" height="36" style="fill:none;opacity:0.35000000000000003"/>
            <path d="M29.25,6.75H28V4.25A1.25,1.25,0,0,0,26.75,3H25.5a1.25,1.25,0,0,0-1.25,1.25v2.5H11.75V4.25A1.25,1.25,0,0,0,10.5,3H9.25A1.25,1.25,0,0,0,8,4.25v2.5H6.75A3.75,3.75,0,0,0,3,10.5V29.25A3.75,3.75,0,0,0,6.75,33h22.5A3.75,3.75,0,0,0,33,29.25V10.5A3.75,3.75,0,0,0,29.25,6.75Zm1.25,22.5a1.25,1.25,0,0,1-1.25,1.25H6.75A1.25,1.25,0,0,1,5.5,29.25V15.55h25Z"
                  style="fill:#4d4d4d"/>
            <path d="M18,17.52A5.5,5.5,0,1,0,23.5,23,5.51,5.51,0,0,0,18,17.52Zm2.58,6.68H17.63a.62.62,0,0,1-.46-.17.59.59,0,0,1-.18-.45V19.7a.66.66,0,1,1,1.32,0v3.18h2.27a.66.66,0,1,1,0,1.32Z"
                  style="fill:#ffd550"/>
        </g>
    </g>
</svg>
