<svg xmlns="http://www.w3.org/2000/svg" viewBox="0 0 36 36"><path d="M29.25 6.75H28v-2.5A1.25 1.25 0 0 0 26.75 3H25.5a1.25 1.25 0 0 0-1.25 1.25v2.5h-12.5v-2.5A1.25 1.25 0 0 0 10.5 3H9.25A1.25 1.25 0 0 0 8 4.25v2.5H6.75A3.75 3.75 0 0 0 3 10.5v18.75A3.75 3.75 0 0 0 6.75 33h22.5A3.75 3.75 0 0 0 33 29.25V10.5a3.75 3.75 0 0 0-3.75-3.75Zm1.25 22.5a1.25 1.25 0 0 1-1.25 1.25H6.75a1.25 1.25 0 0 1-1.25-1.25v-13.7h25Z" fill="currentColor"/><path d="M18 17.52A5.5 5.5 0 1 0 23.5 23a5.51 5.51 0 0 0-5.5-5.48Zm2.58 6.68h-2.95a.62.62 0 0 1-.46-.17.59.59 0 0 1-.18-.45V19.7a.66.66 0 1 1 1.32 0v3.18h2.27a.66.66 0 1 1 0 1.32Z" fill="var(--warnColor, #FFD550)"/></svg>
