<svg width="20" height="20" viewBox="0 0 20 20" fill="none" xmlns="http://www.w3.org/2000/svg">
    <path d="M10.2933 16.5454H9.6994V18.3333H10.2933V16.5454Z" fill="currentColor"/>
    <path d="M10.2933 13.5696H9.6994V15.3575H10.2933V13.5696Z" fill="currentColor"/>
    <path d="M10.2933 10.5939H9.6994V12.3818H10.2933V10.5939Z" fill="currentColor"/>
    <path d="M10.2933 7.61813H9.6994V9.40603H10.2933V7.61813Z" fill="currentColor"/>
    <path d="M10.2933 4.64238H9.6994V6.43028H10.2933V4.64238Z" fill="currentColor"/>
    <path d="M10.2933 1.66663H9.6994V3.45453H10.2933V1.66663Z" fill="currentColor"/>
    <path d="M12.8894 8.98967H17.8245C18.1052 8.98967 18.3327 9.2172 18.3327 9.49787V9.504C18.3327 9.78467 18.1052 10.0122 17.8245 10.0122H12.8894C12.6087 10.0122 12.3812 9.78467 12.3812 9.504V9.49787C12.3812 9.2172 12.6087 8.98967 12.8894 8.98967Z" fill="currentColor"/>
    <path d="M17.8245 13.4778H12.8894C12.6087 13.4778 12.3812 13.7053 12.3812 13.986V13.9921C12.3812 14.2728 12.6087 14.5003 12.8894 14.5003H17.8245C18.1052 14.5003 18.3327 14.2728 18.3327 13.9921V13.986C18.3327 13.7053 18.1052 13.4778 17.8245 13.4778Z" fill="currentColor"/>
    <path d="M12.8894 11.2307H16.6366C16.9173 11.2307 17.1448 11.4582 17.1448 11.7389V11.745C17.1448 12.0257 16.9173 12.2532 16.6366 12.2532H12.8894C12.6087 12.2532 12.3812 12.0257 12.3812 11.745V11.7389C12.3812 11.4582 12.6087 11.2307 12.8894 11.2307Z" fill="currentColor"/>
    <path d="M16.6366 15.7249H12.8894C12.6087 15.7249 12.3812 15.9524 12.3812 16.2331V16.2392C12.3812 16.5199 12.6087 16.7474 12.8894 16.7474H16.6366C16.9173 16.7474 17.1448 16.5199 17.1448 16.2392V16.2331C17.1448 15.9524 16.9173 15.7249 16.6366 15.7249Z" fill="currentColor"/>
    <path fill-rule="evenodd" clip-rule="evenodd" d="M13.8753 2.89121V6.81602L15.3938 6.78541C15.7731 6.80506 16.1475 6.69253 16.4531 6.46701C16.5794 6.36376 16.6799 6.23259 16.7469 6.08383C16.8138 5.93507 16.8453 5.7728 16.8388 5.6098C16.84 5.49615 16.8183 5.38341 16.7752 5.27825C16.7321 5.17309 16.6684 5.07763 16.5878 4.9975C16.4039 4.81918 16.1635 4.71087 15.9081 4.69136C16.1195 4.63569 16.3106 4.52101 16.4592 4.36072C16.5977 4.21069 16.6742 4.01381 16.6735 3.80965C16.6787 3.67524 16.6486 3.5418 16.5863 3.42258C16.524 3.30336 16.4317 3.2025 16.3184 3.13C16.0123 2.95292 15.661 2.86987 15.3081 2.89121H13.8753ZM14.7692 4.45868V3.57086L15.106 3.56473C15.5101 3.56473 15.7183 3.70556 15.7183 3.98109C15.7215 4.04803 15.7093 4.1148 15.6828 4.17634C15.6563 4.23788 15.6161 4.29256 15.5652 4.33623C15.4446 4.42361 15.2976 4.46685 15.1489 4.45868H14.7692ZM14.7692 6.1425V5.13833L15.2468 5.13221C15.4149 5.12078 15.5817 5.16843 15.7183 5.26691C15.7744 5.30694 15.8195 5.36046 15.8495 5.42253C15.8795 5.4846 15.8933 5.55321 15.8897 5.62205C15.8931 5.69436 15.8793 5.76644 15.8495 5.83241C15.8197 5.89839 15.7748 5.95638 15.7183 6.00167C15.5797 6.1014 15.4113 6.15106 15.2407 6.1425H14.7692Z" fill="currentColor"/>
    <path fill-rule="evenodd" clip-rule="evenodd" d="M5.60931 6.81602H6.57674L5.18071 2.89121H4.13368L2.70704 6.81602H3.66834L3.91938 6.02004H5.35827L5.60931 6.81602ZM4.71536 3.94436L5.1256 5.24242H4.13368L4.58066 3.90762C4.61772 3.79879 4.64036 3.68557 4.64801 3.57086C4.65289 3.69789 4.67556 3.82362 4.71536 3.94436Z" fill="currentColor"/>
    <path d="M7.10932 8.98967H2.17422C1.89355 8.98967 1.66602 9.2172 1.66602 9.49787V9.504C1.66602 9.78467 1.89355 10.0122 2.17422 10.0122H7.10932C7.38999 10.0122 7.61752 9.78467 7.61752 9.504V9.49787C7.61752 9.2172 7.38999 8.98967 7.10932 8.98967Z" fill="currentColor"/>
    <path d="M2.17422 13.4778H7.10932C7.38999 13.4778 7.61752 13.7053 7.61752 13.986V13.9921C7.61752 14.2728 7.38999 14.5003 7.10932 14.5003H2.17422C1.89355 14.5003 1.66602 14.2728 1.66602 13.9921V13.986C1.66602 13.7053 1.89355 13.4778 2.17422 13.4778Z" fill="currentColor"/>
    <path d="M5.92146 11.2307H2.17422C1.89355 11.2307 1.66602 11.4582 1.66602 11.7389V11.745C1.66602 12.0257 1.89355 12.2532 2.17422 12.2532H5.92146C6.20214 12.2532 6.42967 12.0257 6.42967 11.745V11.7389C6.42967 11.4582 6.20214 11.2307 5.92146 11.2307Z" fill="currentColor"/>
    <path d="M2.17422 15.7249H5.92146C6.20214 15.7249 6.42967 15.9524 6.42967 16.2331V16.2392C6.42967 16.5199 6.20214 16.7474 5.92146 16.7474H2.17422C1.89355 16.7474 1.66602 16.5199 1.66602 16.2392V16.2331C1.66602 15.9524 1.89355 15.7249 2.17422 15.7249Z" fill="currentColor"/>
</svg>
