<svg xmlns="http://www.w3.org/2000/svg" viewBox="0 0 32 32">
  <title>delete</title>
  <g>
    <rect width="32" height="32" style="fill: none"/>
    <path d="M9.09,8.44H22.91c.48,0,.65,1.94.65,1.94H8.44S8.61,8.44,9.09,8.44ZM14.7,6.28h2.6a1.52,1.52,0,0,1,.86.86A1.53,1.53,0,0,1,17.3,8H14.7a1.56,1.56,0,0,1-.86-.87A1.55,1.55,0,0,1,14.7,6.28ZM10.38,11H21.62a.87.87,0,0,1,.86.86l-.86,13a.86.86,0,0,1-.87.86h-9.5a.86.86,0,0,1-.87-.86l-.86-13A.87.87,0,0,1,10.38,11Zm1.3,1.73L11.89,24h1.52l-.22-11.23Zm3.46,0V24h1.72V12.76Zm3.67,0L18.59,24h1.52l.21-11.23Z" style="fill: #999"/>
    <rect width="32" height="32" style="fill: none"/>
  </g>
</svg>
