<svg width="1519"
     height="1137"
     viewBox="0 0 1519 1137"
     fill="none"
     xmlns="http://www.w3.org/2000/svg">
    <g clip-path="url(#clip0_9936_11699)">
        <mask id="mask0_9936_11699"
              style="mask-type:luminance"
              maskUnits="userSpaceOnUse"
              x="1199"
              y="313"
              width="295"
              height="355">
            <path d="M1371.21 667.923V554.41L1346.73 540.232L1493.62 455.093L1248.8 313.205L1199.84 341.579V398.345L1297.77 455.093L1248.8 483.466V540.232L1297.77 568.606V625.354L1371.21 667.923Z"
                  fill="white"/>
        </mask>
        <g mask="url(#mask0_9936_11699)">
            <path d="M1423.66 690.222L1423.92 689.792L1165.85 540.233L1312.75 455.094L1179.1 377.626L1178.84 378.074L1311.73 455.094L1164.84 540.233L1423.66 690.222Z"
                  fill="white"/>
            <path d="M1425.12 687.711L1425.53 686.976L1172.34 540.232L1319.23 455.092L1180.71 374.828L1180.3 375.563L1317.53 455.092L1170.64 540.232L1425.12 687.711Z"
                  fill="white"/>
            <path d="M1426.72 684.899L1426.97 684.451L1178.12 540.233L1325.01 455.094L1182.15 372.303L1181.9 372.751L1323.99 455.094L1177.1 540.233L1426.72 684.899Z"
                  fill="white"/>
            <path d="M1427.83 682.98L1428.94 681.063L1185.94 540.233L1332.84 455.093L1184.12 368.896L1183.02 370.814L1328.44 455.093L1181.55 540.233L1427.83 682.98Z"
                  fill="white"/>
            <path d="M1429.71 679.717L1430.14 678.982L1190.73 540.232L1337.62 455.092L1185.32 366.834L1184.89 367.569L1335.93 455.092L1189.03 540.232L1429.71 679.717Z"
                  fill="white"/>
            <path d="M1431.21 677.119L1431.71 676.241L1197.03 540.233L1343.9 455.093L1186.89 364.093L1186.39 364.971L1341.89 455.093L1194.99 540.233L1431.21 677.119Z"
                  fill="white"/>
            <path d="M1432.45 674.967L1433.54 673.068L1204.34 540.232L1351.23 455.093L1188.74 360.901L1187.63 362.819L1346.84 455.093L1199.95 540.232L1432.45 674.967Z"
                  fill="white"/>
            <path d="M1433.8 672.602L1435.25 670.11L1211.16 540.232L1358.03 455.093L1190.43 357.944L1188.98 360.453L1352.28 455.093L1205.39 540.232L1433.8 672.602Z"
                  fill="white"/>
            <path d="M1435.89 668.982L1436.23 668.39L1215.08 540.233L1361.98 455.093L1191.41 356.242L1191.07 356.833L1360.62 455.093L1213.73 540.233L1435.89 668.982Z"
                  fill="white"/>
            <path d="M1436.96 667.136L1438.22 664.913L1223.07 540.233L1369.96 455.094L1193.4 352.765L1192.14 354.97L1364.89 455.094L1217.99 540.233L1436.96 667.136Z"
                  fill="white"/>
            <path d="M1438.81 663.871L1439.42 662.85L1227.85 540.231L1374.74 455.091L1194.6 350.684L1193.99 351.723L1372.37 455.091L1225.47 540.231L1438.81 663.871Z"
                  fill="white"/>
            <path d="M1440.01 661.794L1441.28 659.589L1235.34 540.232L1382.23 455.093L1196.46 347.441L1195.2 349.645L1377.14 455.093L1230.25 540.232L1440.01 661.794Z"
                  fill="white"/>
            <path d="M1442.01 658.316L1442.35 657.742L1239.61 540.232L1386.5 455.092L1197.53 345.576L1197.2 346.168L1385.14 455.092L1238.25 540.232L1442.01 658.316Z"
                  fill="white"/>
            <path d="M1443.46 655.808L1443.98 654.929L1246.07 540.233L1392.96 455.094L1199.16 342.763L1198.64 343.659L1390.93 455.094L1244.05 540.233L1443.46 655.808Z"
                  fill="white"/>
            <path d="M1445.17 652.849L1445.34 652.544L1251.53 540.232L1398.43 455.092L1200.52 340.396L1200.36 340.683L1397.75 455.092L1250.86 540.232L1445.17 652.849Z"
                  fill="white"/>
            <path d="M1446.62 650.323L1446.96 649.749L1258 540.233L1404.89 455.094L1202.14 337.583L1201.8 338.175L1403.53 455.094L1256.64 540.233L1446.62 650.323Z"
                  fill="white"/>
            <path d="M1447.76 648.334L1448.86 646.416L1265.65 540.233L1412.54 455.094L1204.04 334.268L1202.94 336.168L1408.13 455.094L1261.24 540.233L1447.76 648.334Z"
                  fill="white"/>
            <path d="M1449.64 645.069L1450.07 644.335L1270.43 540.231L1417.32 455.092L1205.25 332.186L1204.82 332.921L1415.62 455.092L1268.73 540.231L1449.64 645.069Z"
                  fill="white"/>
            <path d="M1450.75 643.153L1452.01 640.93L1278.25 540.232L1425.14 455.093L1207.19 328.782L1205.93 330.987L1420.07 455.093L1273.18 540.232L1450.75 643.153Z"
                  fill="white"/>
            <path d="M1452.83 639.516L1452.99 639.229L1282.17 540.234L1429.06 455.095L1208.17 327.081L1208.01 327.367L1428.38 455.095L1281.51 540.234L1452.83 639.516Z"
                  fill="white"/>
            <path d="M1454.16 637.22L1454.75 636.199L1289.16 540.233L1436.05 455.094L1209.93 324.033L1209.34 325.072L1433.68 455.094L1286.79 540.233L1454.16 637.22Z"
                  fill="white"/>
            <path d="M1455.77 634.405L1456.2 633.671L1294.96 540.232L1441.86 455.093L1211.38 321.522L1210.96 322.257L1440.16 455.093L1293.27 540.232L1455.77 634.405Z"
                  fill="white"/>
            <path d="M1457.04 632.183L1457.97 630.57L1302.1 540.233L1448.99 455.093L1213.15 318.422L1212.22 320.035L1445.26 455.093L1298.36 540.233L1457.04 632.183Z"
                  fill="white"/>
            <path d="M1458.92 628.94L1459.18 628.491L1306.87 540.233L1453.76 455.094L1214.36 316.343L1214.11 316.773L1452.75 455.094L1305.85 540.233L1458.92 628.94Z"
                  fill="white"/>
            <path d="M1460.46 626.268L1460.71 625.838L1313.01 540.232L1459.9 455.093L1215.89 313.672L1215.64 314.12L1458.88 455.093L1311.99 540.232L1460.46 626.268Z"
                  fill="white"/>
            <path d="M1461.72 624.045L1462.49 622.718L1320.15 540.232L1467.04 455.092L1217.67 310.57L1216.9 311.896L1463.99 455.092L1317.1 540.232L1461.72 624.045Z"
                  fill="white"/>
            <path d="M1463.48 621.017L1463.82 620.426L1325.45 540.233L1472.34 455.094L1219 308.278L1218.66 308.869L1470.98 455.094L1324.09 540.233L1463.48 621.017Z"
                  fill="white"/>
            <path d="M1219.89 306.717L1475.92 455.093L1329.03 540.233L1464.71 618.866L1465.64 617.253L1332.76 540.233L1479.64 455.093L1220.84 305.086L1219.89 306.717Z"
                  fill="white"/>
        </g>
        <mask id="mask1_9936_11699"
              style="mask-type:luminance"
              maskUnits="userSpaceOnUse"
              x="857"
              y="57"
              width="392"
              height="540">
            <path d="M906.019 540.233L1003.95 596.98L1150.84 511.841V483.467L1052.91 426.719L1077.39 412.523V384.15L1052.91 369.954V313.206L1077.39 299.01V270.636L1199.8 199.657V171.319L1248.77 142.945V57.8055L979.464 213.889V355.776L857.055 426.719L980.036 497.251L906.019 540.233Z"
                  fill="white"/>
        </mask>
        <g mask="url(#mask1_9936_11699)">
            <path d="M885.039 560.485L885.289 560.933L993.949 497.948L993.449 497.661L885.039 560.485Z"
                  fill="white"/>
            <path d="M994.449 497.662L994.164 497.5L872.04 426.718L986.949 360.112V218.225L1259.11 60.4928C1258.98 60.3673 1258.84 60.2597 1258.72 60.1343L986.432 217.938V359.825L871.004 426.718L993.914 497.948L994.414 497.662L995.646 498.379L996.503 498.88L996.931 499.131L997.146 499.257L995.396 498.253L994.396 497.68L994.449 497.662Z"
                  fill="white"/>
            <path d="M990.194 361.994V220.106L1261.28 62.9837C1261.1 62.7507 1260.92 62.5356 1260.75 62.3026L989.337 219.605V361.492L876.82 426.7L999.23 497.643L886.481 562.994L886.91 563.729L1000.93 497.643L878.517 426.7L990.194 361.976V361.994Z"
                  fill="white"/>
            <path d="M993.092 363.661V221.774L1262.96 65.3682C1262.88 65.2248 1262.79 65.0814 1262.68 64.938L992.574 221.487V363.374L883.289 426.718L1005.7 497.662L888.093 565.827L888.343 566.275L1006.72 497.68L884.307 426.736L993.092 363.697V363.661Z"
                  fill="white"/>
            <path d="M997.005 365.938V224.051L1265.02 68.7206C1264.65 68.0754 1264.27 67.448 1263.9 66.8207L994.809 222.778V364.665L887.738 426.719L1010.15 497.662L889.22 567.745L890.328 569.663L1014.56 497.662L892.149 426.719L997.023 365.938H997.005Z"
                  fill="white"/>
            <path d="M999.395 367.316V225.429L1266.2 70.7975C1266.2 70.7975 1266.14 70.7079 1266.11 70.6541C1266 70.4569 1265.87 70.2598 1265.77 70.0626L998.538 224.945V366.832L895.217 426.716L1017.63 497.66L891.074 571.005L891.503 571.74L1019.32 497.66L896.913 426.716L999.395 367.316Z"
                  fill="white"/>
            <path d="M1002.54 369.146V227.259L1267.77 73.5419C1267.61 73.2551 1267.43 72.9504 1267.27 72.6636L1001.52 226.685V368.573L901.185 426.736L1023.59 497.68L892.578 573.606L893.078 574.485L1025.61 497.662L903.203 426.718L1002.54 369.146Z"
                  fill="white"/>
            <path d="M1006.21 371.26V229.373L1269.62 76.7135C1269.24 76.0862 1268.88 75.4409 1268.51 74.7957L1003.99 228.1V369.988L906.118 426.717L1028.53 497.661L893.797 575.738L894.904 577.656L1032.94 497.661L910.529 426.717L1006.21 371.26Z"
                  fill="white"/>
            <path d="M1009.61 373.232V231.345L1271.32 79.671C1270.84 78.8465 1270.36 78.0041 1269.88 77.1616L1006.74 229.678V371.565L911.594 426.717L1034 497.661L895.184 578.122L896.63 580.632L1039.77 497.679L917.362 426.735L1009.63 373.25L1009.61 373.232Z"
                  fill="white"/>
            <path d="M1011.57 374.38V232.493L1272.3 81.3752C1272.19 81.178 1272.07 80.9809 1271.96 80.7837L1010.89 232.099V373.986L919.91 426.719L1042.32 497.662L897.25 581.744L897.589 582.336L1043.68 497.662L921.268 426.719L1011.57 374.38Z"
                  fill="white"/>
            <path d="M1015.57 376.691V234.804L1274.3 84.851C1273.88 84.1161 1273.46 83.3813 1273.04 82.6464L1013.04 233.334V375.221L924.181 426.717L1046.59 497.661L898.324 583.589L899.592 585.794L1051.66 497.661L929.253 426.717L1015.56 376.691H1015.57Z"
                  fill="white"/>
            <path d="M1017.95 378.072V236.185L1275.5 86.9129C1275.3 86.5724 1275.11 86.2318 1274.91 85.8912L1016.77 235.504V377.391L931.663 426.718L1054.07 497.662L900.199 586.852L900.788 587.874L1056.45 497.662L934.038 426.718L1017.97 378.072H1017.95Z"
                  fill="white"/>
            <path d="M1021.69 380.242V238.355L1277.35 90.1761C1276.94 89.4412 1276.51 88.7063 1276.1 87.9535L1019.16 236.867V378.754L936.444 426.701L1058.85 497.645L901.391 588.914L902.659 591.119L1063.93 497.645L941.515 426.701L1021.69 380.224V380.242Z"
                  fill="white"/>
            <path d="M1023.84 381.477V239.589L1278.43 92.0381C1278.32 91.841 1278.22 91.6438 1278.09 91.4467L1023.17 239.195V381.082L944.452 426.699L1066.86 497.643L903.398 592.371L903.738 592.963L1068.22 497.643L945.809 426.699L1023.84 381.459V381.477Z"
                  fill="white"/>
            <path d="M1027.07 383.359V241.472L1280.07 94.8352C1279.89 94.5484 1279.73 94.2437 1279.56 93.9569L1026.06 240.881V382.768L950.236 426.718L1072.65 497.661L904.844 594.918L905.344 595.796L1074.66 497.661L952.254 426.718L1027.06 383.359H1027.07Z"
                  fill="white"/>
            <path d="M1029.78 384.938V243.051L1281.46 97.1847C1281.41 97.0951 1281.34 96.9876 1281.28 96.8979L1029.46 242.854V384.741L957.035 426.719L1079.44 497.663L906.535 597.877L906.696 598.163L1080.11 497.663L957.696 426.719L1029.78 384.938Z"
                  fill="white"/>
            <path d="M1033.04 386.82V244.933L1283.22 99.9445C1283.1 99.7474 1282.97 99.5681 1282.86 99.371L1032.38 244.538V386.425L962.866 426.719L1085.28 497.662L908.027 600.385L908.367 600.977L1086.63 497.662L964.223 426.719L1033.06 386.82H1033.04Z"
                  fill="white"/>
            <path d="M1036.86 389.024V247.137L1285.34 103.135C1284.93 102.525 1284.48 101.934 1284.07 101.324L1034.66 245.882V387.769L967.448 426.736L1089.86 497.68L909.145 602.41L910.252 604.328L1094.27 497.68L971.858 426.736L1036.88 389.06L1036.86 389.024Z"
                  fill="white"/>
            <path d="M1039.25 390.421V248.533L1286.71 105.105C1286.55 104.872 1286.39 104.639 1286.23 104.406L1038.41 248.032V389.919L974.93 426.717L1097.34 497.661L911.02 605.653L911.448 606.388L1099.04 497.661L976.626 426.717L1039.25 390.421Z"
                  fill="white"/>
            <path d="M1043.16 392.681V250.794L1289.12 108.243C1288.59 107.58 1288.04 106.917 1287.54 106.218L1040.63 249.324V391.211L979.359 426.719L1101.77 497.662L912.109 607.573L913.377 609.777L1106.84 497.662L984.43 426.719L1043.14 392.681H1043.16Z"
                  fill="white"/>
            <path d="M1045.13 393.828V251.941L1290.38 109.803C1290.38 109.803 1290.24 109.624 1290.17 109.534L1044.79 251.744V393.631L987.704 426.719L1110.11 497.663L914.223 611.194L914.383 611.481L1110.79 497.645L988.383 426.701L1045.13 393.811V393.828Z"
                  fill="white"/>
            <path d="M1048.61 395.835V253.947L1292.73 112.455C1292.47 112.15 1292.2 111.863 1291.91 111.558L1047.42 253.266V395.153L992.969 426.718L1115.38 497.661L915.523 613.505L916.113 614.527L1117.75 497.661L995.344 426.718L1048.61 395.853V395.835Z"
                  fill="white"/>
            <path d="M1051.5 397.52V255.633L1294.74 114.66C1294.55 114.444 1294.33 114.247 1294.14 114.032L1050.66 255.149V397.036L999.444 426.718L1121.85 497.662L917.141 616.301L917.569 617.036L1123.55 497.662L1001.14 426.718L1051.51 397.52H1051.5Z"
                  fill="white"/>
            <path d="M1055.1 399.6V257.712L1297.4 117.277C1296.93 116.829 1296.49 116.363 1296.02 115.915L1053.22 256.637V398.524L1004.56 426.719L1126.97 497.662L918.418 618.525L919.346 620.138L1130.68 497.644L1008.27 426.701L1055.08 399.582L1055.1 399.6Z"
                  fill="white"/>
            <path d="M1057.47 400.978V259.091L1299.18 118.996C1299.06 118.87 1298.92 118.763 1298.79 118.637L1056.95 258.804V400.691L1012.04 426.717L1134.45 497.66L920.293 621.785L920.543 622.233L1135.47 497.66L1013.06 426.717L1057.47 400.978Z"
                  fill="white"/>
            <path d="M1060.54 402.754V260.867L1301.57 121.184C1301.45 121.059 1301.3 120.951 1301.18 120.826L1060.04 260.58V402.467L1018.18 426.718L1140.59 497.662L921.824 624.457L922.074 624.905L1141.61 497.68L1019.2 426.736L1060.54 402.772V402.754Z"
                  fill="white"/>
            <path d="M1030.14 424.514L1064.11 404.833V262.946L1304.39 123.676C1303.98 123.318 1303.57 122.977 1303.18 122.619L1062.59 262.068V403.955L1023.29 426.737L1145.7 497.68L923.09 626.698L923.858 628.024L1148.75 497.68L1026.34 426.737L1030.14 424.532V424.514ZM1025.32 427.31C1025.32 427.31 1025.36 427.31 1025.37 427.292L1025.64 427.149H1025.61L1025.32 427.328V427.31Z"
                  fill="white"/>
            <path d="M1030.95 427.114L1152.68 497.663L924.844 629.71L925.183 630.301L1154.04 497.663L1031.63 426.719L1030.95 427.114Z"
                  fill="white"/>
            <path d="M1066.75 406.357V264.47L1306.54 125.504C1306.36 125.343 1306.18 125.199 1305.98 125.038L1066.07 264.075V405.962L1031.25 426.145L1026.9 428.672L1026.61 428.834L1026.77 428.744L1027.47 428.332L1030.27 426.701L1030.95 427.095L1031.63 426.701L1066.75 406.339V406.357Z"
                  fill="white"/>
            <path d="M1033.7 429.765L1029.54 432.167L1029.75 432.042L1031.59 430.984L1037.07 427.794L1033.7 429.765Z"
                  fill="white"/>
            <path d="M1070.41 408.47V266.582L1309.43 128.065C1308.95 127.617 1308.46 127.187 1307.96 126.756L1068.55 265.507V407.394L1037.09 425.641L1037.14 425.677L1038.97 426.734L1037.2 425.713L1037.09 425.659L1035.23 426.734L1037.09 427.81L1157.64 497.678L926.109 631.876L927.038 633.489L1161.38 497.678L1038.97 426.734L1070.43 408.487L1070.41 408.47Z"
                  fill="white"/>
            <path d="M1029.83 429.838L1028.47 430.627L1028.25 430.752L1032.65 428.207L1035.22 426.719L1029.83 429.838Z"
                  fill="white"/>
        </g>
        <path d="M809.434 535.876V569.932L818.201 575.023V540.967L809.434 535.876Z"
              fill="#464646"
              stroke="white"
              stroke-width="0.998405"
              stroke-linejoin="round"/>
        <path d="M826.989 535.876L818.203 540.967V575.023L826.989 569.932V535.876Z"
              fill="#464646"
              stroke="white"
              stroke-width="0.998405"
              stroke-linejoin="round"/>
        <path d="M818.201 530.785L809.434 535.876L818.201 540.966L826.987 535.876L818.201 530.785Z"
              fill="#464646"
              stroke="white"
              stroke-width="0.998405"
              stroke-linejoin="round"/>
        <path d="M809.434 529.263L818.201 534.354V518.957L809.434 519.083V529.263Z"
              fill="#464646"
              stroke="white"
              stroke-width="0.998405"
              stroke-linejoin="round"/>
        <path d="M826.989 519.083V529.263L818.203 534.354V518.957L826.989 519.083Z"
              fill="#464646"
              stroke="white"
              stroke-width="0.998405"
              stroke-linejoin="round"/>
        <path d="M818.201 513.992L809.434 519.082L818.201 524.173L826.987 519.082L818.201 513.992Z"
              fill="#464646"
              stroke="white"
              stroke-width="0.998405"
              stroke-linejoin="round"/>
        <path d="M1101.9 909.146L1052.93 880.754V710.493L1101.9 738.867V909.146Z"
              stroke="white"
              stroke-width="0.998405"
              stroke-linejoin="round"/>
        <path d="M1150.86 710.493L1101.89 738.867V909.146L1150.86 880.754V710.493Z"
              stroke="white"
              stroke-width="0.998405"
              stroke-linejoin="round"/>
        <path d="M1101.9 682.118L1052.93 710.492L1101.9 738.866L1150.86 710.492L1101.9 682.118Z"
              stroke="white"
              stroke-width="0.998405"
              stroke-linejoin="round"/>
        <path d="M759.152 625.354V596.98L881.562 667.924V696.298L759.152 625.354Z"
              stroke="white"
              stroke-width="0.998405"
              stroke-linejoin="round"/>
        <path d="M1003.97 596.98V625.354L881.559 696.298V667.924L1003.97 596.98Z"
              stroke="white"
              stroke-width="0.998405"
              stroke-linejoin="round"/>
        <path d="M832.593 838.204L808.111 852.382L710.184 795.635L734.666 781.439L832.593 838.204Z"
              stroke="white"
              stroke-width="0.998405"
              stroke-linejoin="round"/>
        <path d="M710.193 767.242L685.711 781.437L710.193 795.633L734.675 781.437L710.193 767.242Z"
              fill="white"
              stroke="white"
              stroke-width="0.998405"
              stroke-linejoin="round"/>
        <path d="M710.181 880.754L685.699 894.949L612.324 852.415L636.806 838.238L710.181 880.754Z"
              stroke="white"
              stroke-width="0.998405"
              stroke-linejoin="round"/>
        <path d="M612.33 824.042L587.848 838.237L612.33 852.415L636.812 838.237L612.33 824.042Z"
              fill="white"
              stroke="white"
              stroke-width="0.998405"
              stroke-linejoin="round"/>
        <path d="M636.746 951.699L612.264 965.895L514.336 909.147L538.818 894.951L636.746 951.699Z"
              stroke="white"
              stroke-width="0.998405"
              stroke-linejoin="round"/>
        <path d="M514.334 880.752L489.852 894.948L514.334 909.144L538.815 894.948L514.334 880.752Z"
              fill="white"
              stroke="white"
              stroke-width="0.998405"
              stroke-linejoin="round"/>
        <path d="M661.238 738.866L636.756 753.062L538.828 696.296L563.31 682.118L661.238 738.866Z"
              stroke="white"
              stroke-width="0.998405"
              stroke-linejoin="round"/>
        <path d="M538.837 667.923L514.355 682.119L538.837 696.297L563.319 682.119L538.837 667.923Z"
              fill="white"
              stroke="white"
              stroke-width="0.998405"
              stroke-linejoin="round"/>
        <path d="M612.261 1051.03L587.779 1065.23L489.852 1008.48L514.334 994.285L612.261 1051.03Z"
              stroke="white"
              stroke-width="0.998405"
              stroke-linejoin="round"/>
        <path d="M489.849 980.09L465.367 994.286L489.849 1008.48L514.331 994.286L489.849 980.09Z"
              fill="white"
              stroke="white"
              stroke-width="0.998405"
              stroke-linejoin="round"/>
        <path d="M514.332 1107.78L489.85 1121.98L391.922 1065.21L416.404 1051.03L514.332 1107.78Z"
              stroke="white"
              stroke-width="0.998405"
              stroke-linejoin="round"/>
        <path d="M391.919 1036.84L367.438 1051.03L391.919 1065.21L416.401 1051.03L391.919 1036.84Z"
              fill="white"
              stroke="white"
              stroke-width="0.998405"
              stroke-linejoin="round"/>
        <path d="M465.363 965.893L440.881 980.089L342.953 923.324L367.435 909.146L465.363 965.893Z"
              stroke="white"
              stroke-width="0.998405"
              stroke-linejoin="round"/>
        <path d="M342.959 894.951L318.477 909.147L342.959 923.325L367.44 909.147L342.959 894.951Z"
              fill="white"
              stroke="white"
              stroke-width="0.998405"
              stroke-linejoin="round"/>
        <path d="M930.527 866.576L955.009 852.381V795.633L930.527 809.811V866.576Z"
              stroke="white"
              stroke-width="0.998405"
              stroke-linejoin="round"/>
        <path d="M906.039 795.633V852.381L930.521 866.576V809.811L906.039 795.633Z"
              stroke="white"
              stroke-width="0.998405"
              stroke-linejoin="round"/>
        <path d="M930.521 781.439L955.003 795.635L930.521 809.813L906.039 795.635L930.521 781.439Z"
              stroke="white"
              stroke-width="0.998405"
              stroke-linejoin="round"/>
        <path d="M881.556 781.436L906.038 767.241L881.556 753.063L857.074 767.241L881.556 781.436Z"
              stroke="white"
              stroke-width="0.998405"
              stroke-linejoin="round"/>
        <path d="M881.559 809.811L906.041 795.633V767.242L881.559 781.437V809.811Z"
              stroke="white"
              stroke-width="0.998405"
              stroke-linejoin="round"/>
        <path d="M857.074 767.242V795.633L881.556 809.811V781.437L857.074 767.242Z"
              stroke="white"
              stroke-width="0.998405"
              stroke-linejoin="round"/>
        <path d="M1150.86 256.441L1175.34 242.263L1150.86 228.067L1126.38 242.263L1150.86 256.441Z"
              stroke="white"
              stroke-width="0.998405"
              stroke-linejoin="round"/>
        <path d="M1150.86 284.832L1175.34 270.636V242.262L1150.86 256.44V284.832Z"
              stroke="white"
              stroke-width="0.998405"
              stroke-linejoin="round"/>
        <path d="M1126.38 242.262V270.636L1150.86 284.832V256.44L1126.38 242.262Z"
              stroke="white"
              stroke-width="0.998405"
              stroke-linejoin="round"/>
        <path d="M1028.45 753.062V724.688L1052.93 738.866V767.24L1028.45 753.062Z"
              stroke="white"
              stroke-width="0.998405"
              stroke-linejoin="round"/>
        <path d="M1052.93 710.493L1028.45 724.689L1052.93 738.867V710.493Z"
              stroke="white"
              stroke-width="0.998405"
              stroke-linejoin="round"/>
        <path d="M1101.89 682.121L1175.34 639.551L1199.82 653.747L1126.38 696.298L1101.89 682.121Z"
              stroke="white"
              stroke-width="0.998405"
              stroke-linejoin="round"/>
        <path d="M1199.82 682.12V653.746L1126.38 696.298L1150.86 710.494L1199.82 682.12Z"
              stroke="white"
              stroke-width="0.998405"
              stroke-linejoin="round"/>
        <path d="M1273.21 837.916V951.43L1322.18 979.803V894.682L1371.14 923.056V1008.18L1420.11 1036.57V894.682L1273.21 809.542V837.916Z"
              stroke="white"
              stroke-width="0.998405"
              stroke-linejoin="round"/>
        <path d="M1371.14 752.775L1273.21 809.541L1420.11 894.68L1518.03 837.915L1371.14 752.775Z"
              stroke="white"
              stroke-width="0.998405"
              stroke-linejoin="round"/>
        <path d="M1395.63 795.345L1346.66 823.719L1395.63 852.111L1444.59 823.719L1395.63 795.345Z"
              stroke="white"
              stroke-width="0.998405"
              stroke-linejoin="round"/>
        <path d="M1518.04 837.915V979.802L1420.11 1036.57V894.68L1518.04 837.915Z"
              stroke="white"
              stroke-width="0.998405"
              stroke-linejoin="round"/>
        <path d="M881.562 667.923L759.152 596.98L881.562 526.036L1003.97 596.98L881.562 667.923Z"
              fill="#464646"
              stroke="white"
              stroke-width="0.998405"
              stroke-linejoin="round"/>
        <path d="M1395.62 795.345V852.111L1444.58 823.719L1395.62 795.345Z"
              stroke="white"
              stroke-width="0.998405"
              stroke-linejoin="round"/>
        <path d="M1322.18 979.801L1371.15 951.427V923.053L1322.18 894.679V979.801Z"
              stroke="white"
              stroke-width="0.998405"
              stroke-linejoin="round"/>
        <path d="M1070.44 266.585L1150.87 313.206V455.093L1070.44 408.472V380.278L1101.9 398.345L1126.38 384.149V327.402L1077.42 299.01L1070.44 303.079V266.585Z"
              stroke="white"
              stroke-width="0.998405"
              stroke-miterlimit="10"/>
        <path d="M1052.93 313.206V369.954L1101.9 398.346V341.58L1052.93 313.206Z"
              stroke="white"
              stroke-width="0.998405"
              stroke-linejoin="round"/>
        <path d="M1077.42 299.009L1126.38 327.401L1101.9 341.579L1052.93 313.205L1077.42 299.009Z"
              stroke="white"
              stroke-width="0.998405"
              stroke-linejoin="round"/>
        <path d="M1101.89 398.344L1126.38 384.148V327.401L1101.89 341.579V398.344Z"
              stroke="white"
              stroke-width="0.998405"
              stroke-linejoin="round"/>
        <path d="M1199.82 341.58V426.72L1150.86 455.094V313.207L1395.68 171.319V313.207L1346.72 341.58V256.441L1199.82 341.58Z"
              stroke="white"
              stroke-width="0.998405"
              stroke-linejoin="round"/>
        <path d="M1346.71 256.439V341.578L1273.27 299.009L1346.71 256.439Z"
              stroke="white"
              stroke-width="0.998405"
              stroke-miterlimit="10"/>
        <path d="M1199.82 625.353L1150.86 596.979V483.466L1199.82 511.84V625.353Z"
              stroke="white"
              stroke-width="0.998405"
              stroke-linejoin="round"/>
        <path d="M1199.82 455.093L1248.79 483.467L1199.82 511.841L1150.86 483.467L1199.82 455.093Z"
              stroke="white"
              stroke-width="0.998405"
              stroke-linejoin="round"/>
        <path d="M1199.83 625.353L1224.31 611.175V554.409L1248.79 540.231V483.466L1199.83 511.84V625.353Z"
              stroke="white"
              stroke-width="0.998405"
              stroke-linejoin="round"/>
        <path d="M1273.27 639.549L1224.3 611.175V554.409L1273.27 582.801V639.549Z"
              stroke="white"
              stroke-width="0.998405"
              stroke-linejoin="round"/>
        <path d="M1248.79 540.233L1297.75 568.607L1273.27 582.803L1224.3 554.411L1248.79 540.233Z"
              stroke="white"
              stroke-width="0.998405"
              stroke-linejoin="round"/>
        <path d="M1273.27 639.55L1297.75 625.354V568.606L1273.27 582.802V639.55Z"
              stroke="white"
              stroke-width="0.998405"
              stroke-linejoin="round"/>
        <path d="M1297.75 199.657L1346.71 171.283V29.4314L1297.75 58.1235V199.657Z"
              stroke="white"
              stroke-width="0.998405"
              stroke-linejoin="round"/>
        <path d="M1297.75 1.03918L1248.79 29.431L1297.75 57.8048L1346.72 29.431L1297.75 1.03918Z"
              stroke="white"
              stroke-width="0.998405"
              stroke-linejoin="round"/>
        <path d="M1297.75 199.657L1273.27 185.461V157.123L1248.79 142.945V29.4314L1297.75 57.8052V199.657Z"
              stroke="white"
              stroke-width="0.998405"
              stroke-linejoin="round"/>
        <path d="M1224.3 213.834L1273.27 185.46V157.122L1224.3 185.496V213.834Z"
              stroke="white"
              stroke-width="0.998405"
              stroke-linejoin="round"/>
        <path d="M1248.79 142.943L1199.83 171.317L1224.31 185.495L1273.27 157.121L1248.79 142.943Z"
              stroke="white"
              stroke-width="0.998405"
              stroke-linejoin="round"/>
        <path d="M1224.31 213.835L1199.83 199.657V171.319L1224.31 185.497V213.835Z"
              stroke="white"
              stroke-width="0.998405"
              stroke-linejoin="round"/>
        <path d="M857.075 171.319L930.521 213.889L832.593 270.637L783.629 242.263L857.075 199.693L832.593 185.497L857.075 171.319Z"
              stroke="white"
              stroke-width="0.998405"
              stroke-linejoin="round"/>
        <path d="M930.518 327.401V213.888L832.59 270.636V384.149L930.518 327.401Z"
              stroke="white"
              stroke-width="0.998405"
              stroke-linejoin="round"/>
        <path d="M783.629 242.262L832.593 270.636V384.149L783.629 355.775V242.262Z"
              stroke="white"
              stroke-width="0.998405"
              stroke-linejoin="round"/>
        <path d="M832.59 185.496V213.888L857.072 199.692L832.59 185.496Z"
              stroke="white"
              stroke-width="0.998405"
              stroke-linejoin="round"/>
        <path d="M832.597 667.923L826.418 671.508"
              stroke="white"
              stroke-width="0.998405"
              stroke-linejoin="round"/>
        <path d="M814.199 678.59L771.449 703.379"
              stroke="white"
              stroke-width="0.998405"
              stroke-linejoin="round"/>
        <path d="M765.349 706.908L759.152 710.493L765.349 714.078"
              stroke="white"
              stroke-width="0.998405"
              stroke-linejoin="round"/>
        <path d="M777.559 721.158L844.79 760.125"
              stroke="white"
              stroke-width="0.998405"
              stroke-linejoin="round"/>
        <path d="M850.898 763.656L857.077 767.241L850.898 770.825"
              stroke="white"
              stroke-width="0.998405"
              stroke-linejoin="round"/>
        <path d="M838.687 777.904L795.938 802.693"
              stroke="white"
              stroke-width="0.998405"
              stroke-linejoin="round"/>
        <path d="M789.825 806.226L783.629 809.811"
              stroke="white"
              stroke-width="0.998405"
              stroke-linejoin="round"/>
        <path d="M612.258 710.493L618.454 706.908"
              stroke="white"
              stroke-width="0.998405"
              stroke-linejoin="round"/>
        <path d="M630.668 699.828L673.418 675.056"
              stroke="white"
              stroke-width="0.998405"
              stroke-linejoin="round"/>
        <path d="M679.523 671.508L685.702 667.923L691.898 671.508"
              stroke="white"
              stroke-width="0.998405"
              stroke-linejoin="round"/>
        <path d="M704.117 678.59L746.867 703.379"
              stroke="white"
              stroke-width="0.998405"
              stroke-linejoin="round"/>
        <path d="M752.977 706.908L759.155 710.493"
              stroke="white"
              stroke-width="0.998405"
              stroke-linejoin="round"/>
        <path d="M808.113 653.746L792.648 662.708"
              stroke="white"
              stroke-width="0.998405"
              stroke-linejoin="round"/>
        <path d="M750.132 687.336L734.668 696.298"
              stroke="white"
              stroke-width="0.998405"
              stroke-linejoin="round"/>
        <path d="M818.456 659.552L812.277 663.137"
              stroke="white"
              stroke-width="0.998405"
              stroke-linejoin="round"/>
        <path d="M800.066 670.218L757.316 694.989"
              stroke="white"
              stroke-width="0.998405"
              stroke-linejoin="round"/>
        <path d="M751.204 698.521L745.008 702.124"
              stroke="white"
              stroke-width="0.998405"
              stroke-linejoin="round"/>
        <path d="M823.344 662.761L819.469 665.001"
              stroke="white"
              stroke-width="0.998405"
              stroke-linejoin="round"/>
        <path d="M812.164 669.232L757.414 700.975"
              stroke="white"
              stroke-width="0.998405"
              stroke-linejoin="round"/>
        <path d="M753.756 703.09L749.898 705.33"
              stroke="white"
              stroke-width="0.998405"
              stroke-linejoin="round"/>
        <path d="M814.758 657.69L805.473 663.067"
              stroke="white"
              stroke-width="0.998405"
              stroke-linejoin="round"/>
        <path d="M787.188 673.676L759.742 689.575"
              stroke="white"
              stroke-width="0.998405"
              stroke-linejoin="round"/>
        <path d="M750.594 694.882L741.309 700.26"
              stroke="white"
              stroke-width="0.998405"
              stroke-linejoin="round"/>
        <path d="M829.493 666.004L756.047 708.556"
              stroke="white"
              stroke-width="0.998405"
              stroke-linejoin="round"/>
        <path d="M759.155 824.006L752.977 827.591"
              stroke="white"
              stroke-width="0.998405"
              stroke-linejoin="round"/>
        <path d="M740.754 834.672L698.004 859.443"
              stroke="white"
              stroke-width="0.998405"
              stroke-linejoin="round"/>
        <path d="M691.907 862.991L685.711 866.576"
              stroke="white"
              stroke-width="0.998405"
              stroke-linejoin="round"/>
        <path d="M661.218 880.752L655.039 884.337"
              stroke="white"
              stroke-width="0.998405"
              stroke-linejoin="round"/>
        <path d="M642.828 891.42L600.078 916.209"
              stroke="white"
              stroke-width="0.998405"
              stroke-linejoin="round"/>
        <path d="M593.97 919.739L587.773 923.324"
              stroke="white"
              stroke-width="0.998405"
              stroke-linejoin="round"/>
        <path d="M563.296 937.52L557.117 941.105"
              stroke="white"
              stroke-width="0.998405"
              stroke-linejoin="round"/>
        <path d="M545.005 948.114L538.809 951.699L545.005 955.284"
              stroke="white"
              stroke-width="0.998405"
              stroke-linejoin="round"/>
        <path d="M557.215 962.362L599.965 987.151"
              stroke="white"
              stroke-width="0.998405"
              stroke-linejoin="round"/>
        <path d="M606.082 990.684L612.261 994.269L606.082 997.854"
              stroke="white"
              stroke-width="0.998405"
              stroke-linejoin="round"/>
        <path d="M593.885 1004.93L575.582 1015.53"
              stroke="white"
              stroke-width="0.998405"
              stroke-linejoin="round"/>
        <path d="M569.489 1019.06L563.293 1022.64"
              stroke="white"
              stroke-width="0.998405"
              stroke-linejoin="round"/>
        <path d="M416.402 937.521L422.599 933.936"
              stroke="white"
              stroke-width="0.998405"
              stroke-linejoin="round"/>
        <path d="M434.793 926.854L453.079 916.261"
              stroke="white"
              stroke-width="0.998405"
              stroke-linejoin="round"/>
        <path d="M459.188 912.731L465.366 909.146L471.562 912.731"
              stroke="white"
              stroke-width="0.998405"
              stroke-linejoin="round"/>
        <path d="M483.781 919.812L526.531 944.583"
              stroke="white"
              stroke-width="0.998405"
              stroke-linejoin="round"/>
        <path d="M532.633 948.114L538.811 951.699"
              stroke="white"
              stroke-width="0.998405"
              stroke-linejoin="round"/>
        <path d="M538.811 1036.84L532.633 1040.42"
              stroke="white"
              stroke-width="0.998405"
              stroke-linejoin="round"/>
        <path d="M520.422 1047.5L477.672 1072.27"
              stroke="white"
              stroke-width="0.998405"
              stroke-linejoin="round"/>
        <path d="M471.564 1075.82L465.367 1079.41"
              stroke="white"
              stroke-width="0.998405"
              stroke-linejoin="round"/>
        <path d="M734.669 497.662L661.223 540.232V426.719L734.669 384.149V497.662Z"
              stroke="white"
              stroke-width="0.998405"
              stroke-linejoin="round"/>
        <path d="M538.809 355.776L661.218 426.719V540.233L538.809 469.289V355.776Z"
              stroke="white"
              stroke-width="0.998405"
              stroke-linejoin="round"/>
        <path d="M538.809 355.776L612.254 313.206L734.664 384.15L661.218 426.72L538.809 355.776Z"
              stroke="white"
              stroke-width="0.998405"
              stroke-linejoin="round"/>
        <path d="M367.331 738.527L293.992 781.437V696.298L367.438 653.746L367.331 738.527Z"
              stroke="white"
              stroke-width="0.998405"
              stroke-linejoin="round"/>
        <path d="M220.547 653.746L293.993 696.298V781.437L220.547 738.867V653.746Z"
              stroke="white"
              stroke-width="0.998405"
              stroke-linejoin="round"/>
        <path d="M220.547 653.745L293.993 611.176L367.439 653.745L293.993 696.297L220.547 653.745Z"
              stroke="white"
              stroke-width="0.998405"
              stroke-linejoin="round"/>
        <path d="M734.668 469.288L783.632 440.897V384.149L734.668 412.523V469.288Z"
              stroke="white"
              stroke-width="0.998405"
              stroke-linejoin="round"/>
        <path d="M661.223 341.579L685.705 327.401L783.632 384.148L734.669 412.522V384.148L661.223 341.579Z"
              stroke="white"
              stroke-width="0.998405"
              stroke-linejoin="round"/>
        <path d="M759.15 568.607V540.233L661.223 596.981V625.355L759.15 568.607Z"
              stroke="white"
              stroke-width="0.998405"
              stroke-linejoin="round"/>
        <path d="M734.67 526.036L759.152 540.232L661.224 596.98L636.742 582.802L734.67 526.036Z"
              stroke="white"
              stroke-width="0.998405"
              stroke-linejoin="round"/>
        <path d="M636.742 611.177V582.803L661.224 596.981V625.355L636.742 611.177Z"
              stroke="white"
              stroke-width="0.998405"
              stroke-linejoin="round"/>
        <path d="M538.815 639.549V554.41L440.887 497.662V582.801L538.815 639.549Z"
              stroke="white"
              stroke-width="0.998405"
              stroke-linejoin="round"/>
        <path d="M514.331 568.607V596.981L465.367 568.607V540.233L514.331 568.607Z"
              stroke="white"
              stroke-width="0.998405"
              stroke-linejoin="round"/>
        <path d="M587.773 526.036L538.809 554.41V639.549L587.773 611.175V526.036Z"
              stroke="white"
              stroke-width="0.998405"
              stroke-linejoin="round"/>
        <path d="M489.851 469.289L587.778 526.036L538.815 554.41L440.887 497.662L489.851 469.289Z"
              stroke="white"
              stroke-width="0.998405"
              stroke-linejoin="round"/>
        <path d="M465.367 568.607L489.849 554.411L465.367 540.233V568.607Z"
              stroke="white"
              stroke-width="0.998405"
              stroke-linejoin="round"/>
        <path d="M661.223 909.147L759.15 852.381L857.078 909.147L759.15 965.895L661.223 909.147Z"
              stroke="white"
              stroke-width="0.998405"
              stroke-linejoin="round"/>
        <path d="M661.223 1079.41V1022.64L710.187 1051.03L734.669 1036.84V1008.46L661.223 965.893V909.146L759.15 965.893V1136.15L661.223 1079.41Z"
              stroke="white"
              stroke-width="0.998405"
              stroke-linejoin="round"/>
        <path d="M857.08 909.146V1079.41L759.152 1136.15V965.893L857.08 909.146Z"
              stroke="white"
              stroke-width="0.998405"
              stroke-linejoin="round"/>
        <path d="M661.224 965.893L636.742 980.089L710.188 1022.64L734.67 1008.46L661.224 965.893Z"
              stroke="white"
              stroke-width="0.998405"
              stroke-linejoin="round"/>
        <path d="M636.742 980.09V1008.46L710.188 1051.03V1022.64L636.742 980.09Z"
              stroke="white"
              stroke-width="0.998405"
              stroke-linejoin="round"/>
        <path d="M734.666 1008.46V1036.84L710.184 1051.03V1022.64L734.666 1008.46Z"
              stroke="white"
              stroke-width="0.998405"
              stroke-linejoin="round"/>
        <path d="M73.6602 1022.64V937.521L147.106 894.951V980.091L73.6602 1022.64Z"
              stroke="white"
              stroke-width="0.998405"
              stroke-linejoin="round"/>
        <path d="M0.214844 894.951L73.6607 937.521V1022.64L0.232701 980.091L0.214844 894.951Z"
              stroke="white"
              stroke-width="0.998405"
              stroke-linejoin="round"/>
        <path d="M73.6607 852.381L147.107 894.951L73.6607 937.521L0.214844 894.951L73.6607 852.381Z"
              stroke="white"
              stroke-width="0.998405"
              stroke-linejoin="round"/>
        <path d="M245.031 980.09V923.325L122.621 852.381V880.755L147.103 894.951V923.325L245.031 980.09Z"
              stroke="white"
              stroke-width="0.998405"
              stroke-linejoin="round"/>
        <path d="M293.995 894.951V951.699L245.031 980.091V923.325L293.995 894.951Z"
              stroke="white"
              stroke-width="0.998405"
              stroke-linejoin="round"/>
        <path d="M171.585 824.006L293.995 894.95L245.031 923.323L122.621 852.38L171.585 824.006Z"
              stroke="white"
              stroke-width="0.998405"
              stroke-linejoin="round"/>
        <path d="M270.099 426.378L123.207 511.518L172.171 539.892L319.063 454.752L270.099 426.378Z"
              stroke="white"
              stroke-width="0.998405"
              stroke-linejoin="round"/>
        <path d="M172.176 596.64V539.892L319.068 454.752V511.518L172.176 596.64Z"
              stroke="white"
              stroke-width="0.998405"
              stroke-linejoin="round"/>
        <path d="M123.207 511.517V568.265L172.171 596.639V539.891L123.207 511.517Z"
              stroke="white"
              stroke-width="0.998405"
              stroke-linejoin="round"/>
        <path d="M318.477 256.441V228.067L342.959 242.263V270.637L318.477 256.441Z"
              stroke="white"
              stroke-width="0.998405"
              stroke-linejoin="round"/>
        <path d="M342.959 213.888L318.477 228.066L342.959 242.262L367.44 228.066L342.959 213.888Z"
              stroke="white"
              stroke-width="0.998405"
              stroke-linejoin="round"/>
        <path d="M342.953 270.637L367.435 256.441V228.067L342.953 242.263V270.637Z"
              stroke="white"
              stroke-width="0.998405"
              stroke-linejoin="round"/>
        <path d="M440.887 242.262V299.01L514.333 341.579V284.832L440.887 242.262Z"
              stroke="white"
              stroke-width="0.998405"
              stroke-linejoin="round"/>
        <path d="M489.851 213.888L440.887 242.261L514.333 284.831L636.742 213.888L612.26 199.692L538.815 242.261L489.851 213.888Z"
              stroke="white"
              stroke-width="0.998405"
              stroke-linejoin="round"/>
        <path d="M514.336 341.579L636.746 270.636V213.888L514.336 284.831V341.579Z"
              stroke="white"
              stroke-width="0.998405"
              stroke-linejoin="round"/>
        <path d="M1444.65 738.866L1371.2 696.296V554.409L1444.65 596.979V738.866Z"
              stroke="white"
              stroke-width="0.998405"
              stroke-linejoin="round"/>
        <path d="M1518.09 554.409L1444.65 596.979V738.866L1518.09 696.296V554.409Z"
              stroke="white"
              stroke-width="0.998405"
              stroke-linejoin="round"/>
        <path d="M1444.65 511.842L1371.2 554.411L1444.65 596.981L1518.09 554.411L1444.65 511.842Z"
              stroke="white"
              stroke-width="0.998405"
              stroke-linejoin="round"/>
        <path d="M808.117 596.98L881.563 639.55L906.045 625.354L930.527 582.802L906.045 568.606L832.599 582.802L808.117 596.98Z"
              fill="white"
              stroke="white"
              stroke-width="0.998405"
              stroke-miterlimit="10"/>
        <path d="M865.251 601.21L856.555 606.247L865.251 611.301L873.965 606.247L865.251 601.21Z"
              fill="#464646"
              stroke="white"
              stroke-width="0.998405"
              stroke-miterlimit="10"/>
        <path d="M873.973 596.156L882.669 601.211L908.794 586.065L900.097 581.028L873.973 596.156Z"
              fill="#464646"
              stroke="white"
              stroke-width="0.998405"
              stroke-miterlimit="10"/>
        <path d="M940.203 670.306V690.668L948.989 695.758V675.397L940.203 670.306Z"
              fill="#464646"
              stroke="white"
              stroke-width="0.998405"
              stroke-linejoin="round"/>
        <path d="M957.76 670.306L948.992 675.397V695.758L957.76 690.668V670.306Z"
              fill="#464646"
              stroke="white"
              stroke-width="0.998405"
              stroke-linejoin="round"/>
        <path d="M948.989 665.235L940.203 670.308L948.989 675.398L957.756 670.308L948.989 665.235Z"
              fill="#464646"
              stroke="white"
              stroke-width="0.998405"
              stroke-linejoin="round"/>
        <path d="M940.203 665.361L948.989 670.433V655.054L940.203 655.18V665.361Z"
              fill="#464646"
              stroke="white"
              stroke-width="0.998405"
              stroke-linejoin="round"/>
        <path d="M957.76 655.18V665.361L948.992 670.433V655.054L957.76 655.18Z"
              fill="#464646"
              stroke="white"
              stroke-width="0.998405"
              stroke-linejoin="round"/>
        <path d="M948.989 650.088L940.203 655.179L948.989 660.269L957.756 655.179L948.989 650.088Z"
              fill="#464646"
              stroke="white"
              stroke-width="0.998405"
              stroke-linejoin="round"/>
        <path d="M962.508 476.887V497.249L971.276 502.339V481.978L962.508 476.887Z"
              fill="#464646"
              stroke="white"
              stroke-width="0.998405"
              stroke-linejoin="round"/>
        <path d="M980.055 476.887L971.27 481.978V502.339L980.055 497.249V476.887Z"
              fill="#464646"
              stroke="white"
              stroke-width="0.998405"
              stroke-linejoin="round"/>
        <path d="M971.276 471.799L962.508 476.889L971.276 481.98L980.061 476.889L971.276 471.799Z"
              fill="#464646"
              stroke="white"
              stroke-width="0.998405"
              stroke-linejoin="round"/>
        <path d="M962.508 471.922L971.276 477.012V461.615L962.508 461.741V471.922Z"
              fill="#464646"
              stroke="white"
              stroke-width="0.998405"
              stroke-linejoin="round"/>
        <path d="M980.055 461.741V471.922L971.27 477.012V461.615L980.055 461.741Z"
              fill="#464646"
              stroke="white"
              stroke-width="0.998405"
              stroke-linejoin="round"/>
        <path d="M971.276 456.671L962.508 461.744L971.276 466.834L980.061 461.744L971.276 456.671Z"
              fill="#464646"
              stroke="white"
              stroke-width="0.998405"
              stroke-linejoin="round"/>
        <path d="M750.242 628.813V649.157L759.028 654.248V633.904L750.242 628.813Z"
              fill="#464646"
              stroke="white"
              stroke-width="0.998405"
              stroke-linejoin="round"/>
        <path d="M767.795 628.813L759.027 633.904V654.248L767.795 649.157V628.813Z"
              fill="#464646"
              stroke="white"
              stroke-width="0.998405"
              stroke-linejoin="round"/>
        <path d="M759.028 623.722L750.242 628.813L759.028 633.903L767.796 628.813L759.028 623.722Z"
              fill="#464646"
              stroke="white"
              stroke-width="0.998405"
              stroke-linejoin="round"/>
        <path d="M750.242 623.848L759.028 628.938V613.542L750.242 613.667V623.848Z"
              fill="#464646"
              stroke="white"
              stroke-width="0.998405"
              stroke-linejoin="round"/>
        <path d="M767.795 613.667V623.848L759.027 628.938V613.542L767.795 613.667Z"
              fill="#464646"
              stroke="white"
              stroke-width="0.998405"
              stroke-linejoin="round"/>
        <path d="M759.028 608.578L750.242 613.668L759.028 618.758L767.796 613.668L759.028 608.578Z"
              fill="#464646"
              stroke="white"
              stroke-width="0.998405"
              stroke-linejoin="round"/>
        <path d="M966.535 641.341V675.397L975.303 680.487V646.431L966.535 641.341Z"
              fill="#464646"
              stroke="white"
              stroke-width="0.998405"
              stroke-linejoin="round"/>
        <path d="M984.098 641.341L975.312 646.431V680.487L984.098 675.397V641.341Z"
              fill="#464646"
              stroke="white"
              stroke-width="0.998405"
              stroke-linejoin="round"/>
        <path d="M975.303 636.27L966.535 641.342L975.303 646.433L984.089 641.342L975.303 636.27Z"
              fill="#464646"
              stroke="white"
              stroke-width="0.998405"
              stroke-linejoin="round"/>
        <path d="M966.535 634.728L975.303 639.818V624.421L966.535 624.547V634.728Z"
              fill="#464646"
              stroke="white"
              stroke-width="0.998405"
              stroke-linejoin="round"/>
        <path d="M984.098 624.547V634.728L975.312 639.818V624.421L984.098 624.547Z"
              fill="#464646"
              stroke="white"
              stroke-width="0.998405"
              stroke-linejoin="round"/>
        <path d="M975.303 619.456L966.535 624.547L975.303 629.637L984.089 624.547L975.303 619.456Z"
              fill="#464646"
              stroke="white"
              stroke-width="0.998405"
              stroke-linejoin="round"/>
        <path d="M855.352 525.086V559.142L864.137 564.233V530.177L855.352 525.086Z"
              fill="#464646"
              stroke="white"
              stroke-width="0.998405"
              stroke-linejoin="round"/>
        <path d="M872.897 525.086L864.129 530.177V564.233L872.897 559.142V525.086Z"
              fill="#464646"
              stroke="white"
              stroke-width="0.998405"
              stroke-linejoin="round"/>
        <path d="M864.137 519.995L855.352 525.086L864.137 530.176L872.905 525.086L864.137 519.995Z"
              fill="#464646"
              stroke="white"
              stroke-width="0.998405"
              stroke-linejoin="round"/>
        <path d="M855.352 518.472L864.137 523.545V508.166L855.352 508.292V518.472Z"
              fill="#464646"
              stroke="white"
              stroke-width="0.998405"
              stroke-linejoin="round"/>
        <path d="M872.897 508.292V518.472L864.129 523.545V508.166L872.897 508.292Z"
              fill="#464646"
              stroke="white"
              stroke-width="0.998405"
              stroke-linejoin="round"/>
        <path d="M864.137 503.202L855.352 508.292L864.137 513.383L872.905 508.292L864.137 503.202Z"
              fill="#464646"
              stroke="white"
              stroke-width="0.998405"
              stroke-linejoin="round"/>
        <path d="M790.402 733.633V767.689L799.188 772.779V738.723L790.402 733.633Z"
              fill="#464646"
              stroke="white"
              stroke-width="0.998405"
              stroke-linejoin="round"/>
        <path d="M807.973 733.633L799.188 738.723V772.779L807.973 767.689V733.633Z"
              fill="#464646"
              stroke="white"
              stroke-width="0.998405"
              stroke-linejoin="round"/>
        <path d="M799.188 728.544L790.402 733.634L799.188 738.725L807.974 733.634L799.188 728.544Z"
              fill="#464646"
              stroke="white"
              stroke-width="0.998405"
              stroke-linejoin="round"/>
        <path d="M790.402 727.002L799.188 732.092V716.714L790.402 716.839V727.002Z"
              fill="#464646"
              stroke="white"
              stroke-width="0.998405"
              stroke-linejoin="round"/>
        <path d="M807.973 716.839V727.002L799.188 732.092V716.714L807.973 716.839Z"
              fill="#464646"
              stroke="white"
              stroke-width="0.998405"
              stroke-linejoin="round"/>
        <path d="M799.188 711.748L790.402 716.839L799.188 721.929L807.974 716.839L799.188 711.748Z"
              fill="#464646"
              stroke="white"
              stroke-width="0.998405"
              stroke-linejoin="round"/>
    </g>
    <defs>
        <clipPath id="clip0_9936_11699">
            <rect width="1518.31"
                  height="1135.56"
                  fill="white"
                  transform="translate(0 0.824219)"/>
        </clipPath>
    </defs>
</svg>
