<svg xmlns="http://www.w3.org/2000/svg" viewBox="0 0 24 24">
    <defs>
        <style>.cls-1{fill:none;}.cls-2{fill:#ccc;}</style>
    </defs>
    <g id="Layer_2">
        <g id="ikonsy">
            <rect class="cls-1" width="24" height="24"/>
            <path class="cls-2"
                  d="M5.6,21.6H4a.4.4,0,0,0-.4.4v1.6A.4.4,0,0,0,4,24H5.6a.4.4,0,0,0,.4-.4V22A.4.4,0,0,0,5.6,21.6Z"/>
            <path class="cls-2"
                  d="M17.6,21.6H16a.4.4,0,0,0-.4.4v1.6a.4.4,0,0,0,.4.4h1.6a.4.4,0,0,0,.4-.4V22A.4.4,0,0,0,17.6,21.6Z"/>
            <path class="cls-2"
                  d="M15.2,15.6V14a.4.4,0,0,0-.4-.4H13.2a.4.4,0,0,0-.4.4v1.6a.4.4,0,0,0,.4.4h1.6A.4.4,0,0,0,15.2,15.6Z"/>
            <path class="cls-2"
                  d="M20.8,13.6H19.2a.4.4,0,0,0-.4.4v1.6a.4.4,0,0,0,.4.4h1.6a.4.4,0,0,0,.4-.4V14A.4.4,0,0,0,20.8,13.6Z"/>
            <path class="cls-2"
                  d="M16.4,8.8v2.4H14a.4.4,0,0,0-.4.4v1.2h.8V12h5.2v.8h.8V11.6a.4.4,0,0,0-.4-.4H17.2V8.4a.4.4,0,0,0-.4-.4H11A7.2,7.2,0,0,0,5.2,4.41V4a2,2,0,1,0-.8,0V4.8a.4.4,0,0,0,.4.4,6.4,6.4,0,0,1,1,12.73A1.59,1.59,0,0,0,4.4,19.51v.14l-.58-.38a.4.4,0,0,0-.44.66l1.2.8a.39.39,0,0,0,.44,0l1.2-.8a.4.4,0,1,0-.44-.66l-.58.38v-.14a.8.8,0,0,1,.69-.79A7.24,7.24,0,0,0,12,11.6a7.12,7.12,0,0,0-.57-2.8Z"/>
            <path class="cls-2" d="M16.4,20.8h.8v-2a.4.4,0,0,0-.4-.4H14.4V16.8h-.8v2a.4.4,0,0,0,.4.4h2.4Z"/>
            <path class="cls-2" d="M19.6,16.8h.8v.8h-.8Z"/>
            <path class="cls-2" d="M4.4,6h.8v.8H4.4Z"/>
            <path class="cls-2" d="M4.4,7.6h.8v.8H4.4Z"/>
            <path class="cls-2" d="M4.4,9.2h.8V10H4.4Z"/>
            <path class="cls-2" d="M4.4,14.8h.8v.8H4.4Z"/>
            <path class="cls-2" d="M4.4,16.4h.8v.8H4.4Z"/>
            <path class="cls-2" d="M19.6,18.4h.8v.8h-.8Z"/>
            <path class="cls-2" d="M18,18.4h.8v.8H18Z"/>
            <path class="cls-2" d="M3.2,12.4a1.6,1.6,0,1,0,1.6-1.6A1.6,1.6,0,0,0,3.2,12.4Z"/>
        </g>
    </g>
</svg>
