<svg xmlns="http://www.w3.org/2000/svg" viewBox="0 0 20 20">
    <defs>
        <style>.a { fill: #fff; } .b { fill: none; }</style>
    </defs>
    <title>node-variable</title>
    <g>
        <path class="a"
              d="M16.16,16.59H12.52l-2.34-3.7-.35-.62A.79.79,0,0,1,9.67,12h0a2.71,2.71,0,0,1-.13.31c-.09.18-.22.41-.37.65L6.85,16.59H3.06V14.14H4.94L7.84,9.87l-2.72-4h-2V3.41H7.16l2,3.35c.13.21.23.43.34.62a.8.8,0,0,1,.16.31h0a1,1,0,0,1,.16-.31l.37-.62,2.06-3.35h3.77V5.87H14.27l-2.7,3.92,3,4.35h1.6Z"/>
        <rect class="b" width="20" height="20"/>
    </g>
</svg>