<svg xmlns="http://www.w3.org/2000/svg" viewBox="0 0 35 35"><path class="b" d="M25.9 10.23h-3.6V9a3.6 3.6 0 00-3.6-3.6h-2.4A3.6 3.6 0 0012.7 9v1.2H9.1a3.6 3.6 0 00-3.6 3.6v10.8a3.6 3.6 0 003.6 3.6h16.8a3.6 3.6 0 003.6-3.6V13.83a3.6 3.6 0 00-3.6-3.6zM15.1 9a1.2 1.2 0 011.2-1.2h2.4A1.2 1.2 0 0119.9 9v1.2h-4.8zm12 15.6a1.2 1.2 0 01-1.2 1.2H9.1a1.2 1.2 0 01-1.2-1.2v-6.03h3.6v1.26a1.2 1.2 0 102.4 0v-1.26h7.2v1.26a1.2 1.2 0 002.4 0v-1.26h3.6zm0-8.4H7.9v-2.4a1.2 1.2 0 011.2-1.2h16.8a1.2 1.2 0 011.2 1.2z" fill="#ccc"/></svg>