<svg xmlns="http://www.w3.org/2000/svg" viewBox="0 0 35 35"><path class="b" fill="#ccc" d="M17.01 28.19h.97v2.92h-.97zm0-4.86h.97v2.92h-.97zm0-4.86h.97v2.92h-.97zm0-4.86h.97v2.92h-.97zm0-4.86h.97v2.92h-.97zm0-4.86h.97v2.92h-.97z"/><rect class="b" x="21.39" y="15.85" width="9.72" height="1.67" rx=".83" fill="#ccc"/><rect class="b" x="21.39" y="23.18" width="9.72" height="1.67" rx=".83" fill="#ccc"/><rect class="b" x="21.39" y="19.51" width="7.78" height="1.67" rx=".83" fill="#ccc"/><rect class="b" x="21.39" y="26.85" width="7.78" height="1.67" rx=".83" fill="#ccc"/><path class="b" d="M23.83 12.3V5.89h2.34a2.94 2.94 0 011.65.39 1.26 1.26 0 01.58 1.11 1.32 1.32 0 01-.35.9 1.88 1.88 0 01-.9.54 1.79 1.79 0 011.11.5 1.39 1.39 0 01.41 1 1.72 1.72 0 01-.63 1.4 2.68 2.68 0 01-1.73.52zM25.29 7v1.45h.62a1.06 1.06 0 00.68-.2.72.72 0 00.25-.58c0-.45-.34-.68-1-.68zm0 2.56v1.64h.77a1.23 1.23 0 00.78-.23.75.75 0 00.28-.62.67.67 0 00-.28-.58 1.18 1.18 0 00-.77-.22zM11.91 12.3h-1.58L9.92 11H7.57l-.41 1.3H5.59l2.33-6.41h1.71zM9.54 9.73l-.67-2.12A2.22 2.22 0 018.76 7a2.15 2.15 0 01-.11.55l-.73 2.18z" fill="#ccc"/><rect class="b" x="3.89" y="15.85" width="9.72" height="1.67" rx=".83" fill="#ccc"/><rect class="b" x="3.89" y="23.18" width="9.72" height="1.67" rx=".83" fill="#ccc"/><rect class="b" x="3.89" y="19.51" width="7.78" height="1.67" rx=".83" fill="#ccc"/><rect class="b" x="3.89" y="26.85" width="7.78" height="1.67" rx=".83" fill="#ccc"/></svg>