<svg xmlns="http://www.w3.org/2000/svg" viewBox="0 0 36 36"><defs><style>.cls-1{fill:none;}.cls-2{fill:#b3b3b3;}</style></defs><title>compare</title><g id="Layer_2" data-name="Layer 2"><g id="aplikacja_główna" data-name="aplikacja główna"><rect class="cls-1" width="36" height="36"/><rect class="cls-2" x="17.5" y="29" width="1" height="3"/><rect class="cls-2" x="17.5" y="24" width="1" height="3"/><rect class="cls-2" x="17.5" y="19" width="1" height="3"/><rect class="cls-2" x="17.5" y="14" width="1" height="3"/><rect class="cls-2" x="17.5" y="9" width="1" height="3"/><rect class="cls-2" x="17.5" y="4" width="1" height="3"/><rect class="cls-2" x="22" y="15.62" width="10" height="2"/><rect class="cls-2" x="22" y="23.62" width="10" height="2"/><rect class="cls-2" x="22" y="19.62" width="8" height="2"/><rect class="cls-2" x="22" y="27.62" width="8" height="2"/><path class="cls-2" d="M24.51,13V6.38h2.4a3.13,3.13,0,0,1,1.71.4,1.31,1.31,0,0,1,.59,1.14,1.36,1.36,0,0,1-.36.93,1.9,1.9,0,0,1-.93.55v0a1.89,1.89,0,0,1,1.15.52A1.46,1.46,0,0,1,29.49,11a1.76,1.76,0,0,1-.65,1.45,2.76,2.76,0,0,1-1.78.53ZM26,7.51V9h.64a1.07,1.07,0,0,0,.7-.22.7.7,0,0,0,.26-.59c0-.47-.35-.7-1.06-.7Zm0,2.63v1.7h.8a1.24,1.24,0,0,0,.79-.23.77.77,0,0,0,.29-.64.73.73,0,0,0-.28-.61,1.3,1.3,0,0,0-.79-.22Z"/><path class="cls-2" d="M12.25,13H10.63l-.42-1.32H7.78L7.36,13H5.75l2.4-6.59H9.91ZM9.81,10.33,9.12,8.15A3,3,0,0,1,9,7.56H9a1.94,1.94,0,0,1-.12.57l-.7,2.2Z"/><rect class="cls-2" x="4" y="15.62" width="10" height="2"/><rect class="cls-2" x="4" y="23.62" width="10" height="2"/><rect class="cls-2" x="4" y="19.62" width="8" height="2"/><rect class="cls-2" x="4" y="27.62" width="8" height="2"/></g></g></svg>