<svg xmlns="http://www.w3.org/2000/svg" viewBox="0 0 36 36"><g data-name="Layer 2"><path d="M17.5 29h1v3h-1zm0-5h1v3h-1zm0-5h1v3h-1zm0-5h1v3h-1zm0-5h1v3h-1zm0-5h1v3h-1zM22 15.62h10v2H22zm0 8h10v2H22zm0-4h8v2h-8zm0 8h8v2h-8zM24.51 13V6.38h2.4a3.13 3.13 0 011.71.4 1.31 1.31 0 01.59 1.14 1.36 1.36 0 01-.36.93 1.9 1.9 0 01-.93.55 1.89 1.89 0 011.15.52 1.46 1.46 0 01.42 1.08 1.76 1.76 0 01-.65 1.45 2.76 2.76 0 01-1.78.53zM26 7.51V9h.64a1.07 1.07 0 00.7-.22.7.7 0 00.26-.59c0-.47-.35-.7-1.06-.7zm0 2.63v1.7h.8a1.24 1.24 0 00.79-.23.77.77 0 00.29-.64.73.73 0 00-.28-.61 1.3 1.3 0 00-.79-.22zM12.25 13h-1.62l-.42-1.32H7.78L7.36 13H5.75l2.4-6.59h1.76zm-2.44-2.67l-.69-2.18A3 3 0 019 7.56a1.94 1.94 0 01-.12.57l-.7 2.2zM4 15.62h10v2H4zm0 8h10v2H4zm0-4h8v2H4zm0 8h8v2H4z" data-name="aplikacja główna" fill="#b3b3b3"/></g></svg>