<svg xmlns="http://www.w3.org/2000/svg" viewBox="0 0 30.72 30.72"><path class="b" d="M25 6.64l-2.39-2.37a2.17 2.17 0 00-1.56-.65h-7.89A2.2 2.2 0 0011 5.82V8H7.29a2.2 2.2 0 00-2.2 2.2v14.7a2.2 2.2 0 002.2 2.2h10.27a2.2 2.2 0 002.2-2.2v-2.2h3.67a2.2 2.2 0 002.2-2.2V8.2A2.24 2.24 0 0025 6.64zM17.29 24.9H7.56a.27.27 0 01-.27-.28V10.5a.28.28 0 01.27-.28H11V20.5a2.2 2.2 0 002.2 2.2h4.4v1.92a.27.27 0 01-.31.28zm5.87-4.4h-9.73a.28.28 0 01-.27-.28V6.1a.27.27 0 01.27-.28h4.86v4A1.11 1.11 0 0019.4 11h4v9.26a.28.28 0 01-.24.24zm.27-11.74H20.5V5.82h.44a.27.27 0 01.19.08l2.22 2.22a.27.27 0 01.08.19z" fill="#ccc"/></svg>