<svg xmlns="http://www.w3.org/2000/svg" viewBox="0 0 29.87 29.87"><defs><style>.cls-1{fill:none;}.cls-2{fill:#b3b3b3;}</style></defs><title>copy</title><g id="Layer_2" data-name="Layer 2"><g id="aplikacja_główna" data-name="aplikacja główna"><rect class="cls-1" width="29.87" height="29.87"/><path class="cls-2" d="M24.29,6.46,22,4.15a2.15,2.15,0,0,0-1.51-.63H12.79a2.14,2.14,0,0,0-2.14,2.14V7.8H7.09A2.14,2.14,0,0,0,5,9.94V24.21a2.14,2.14,0,0,0,2.14,2.14h10a2.14,2.14,0,0,0,2.14-2.14V22.07h3.57a2.14,2.14,0,0,0,2.14-2.14V8A2.15,2.15,0,0,0,24.29,6.46ZM16.81,24.21H7.35a.27.27,0,0,1-.26-.27V10.21a.27.27,0,0,1,.26-.27h3.3v10a2.14,2.14,0,0,0,2.14,2.14h4.28v1.87A.27.27,0,0,1,16.81,24.21Zm5.7-4.28H13.06a.27.27,0,0,1-.27-.27V5.93a.27.27,0,0,1,.27-.27h4.73V9.58a1.07,1.07,0,0,0,1.07,1.07h3.92v9A.27.27,0,0,1,22.51,19.93Zm.27-11.42H19.93V5.66h.43a.27.27,0,0,1,.19.08L22.7,7.89a.27.27,0,0,1,.08.19Z"/></g></g></svg>