<svg xmlns="http://www.w3.org/2000/svg" viewBox="0 0 29.87 29.87"><g data-name="Layer 2"><path d="M24.29 6.46L22 4.15a2.15 2.15 0 00-1.51-.63h-7.7a2.14 2.14 0 00-2.14 2.14V7.8H7.09A2.14 2.14 0 005 9.94v14.27a2.14 2.14 0 002.14 2.14h10a2.14 2.14 0 002.14-2.14v-2.14h3.57a2.14 2.14 0 002.14-2.14V8a2.15 2.15 0 00-.7-1.54zm-7.48 17.75H7.35a.27.27 0 01-.26-.27V10.21a.27.27 0 01.26-.27h3.3v10a2.14 2.14 0 002.14 2.14h4.28v1.87a.27.27 0 01-.26.26zm5.7-4.28h-9.45a.27.27 0 01-.27-.27V5.93a.27.27 0 01.27-.27h4.73v3.92a1.07 1.07 0 001.07 1.07h3.92v9a.27.27 0 01-.27.28zm.27-11.42h-2.85V5.66h.43a.27.27 0 01.19.08l2.15 2.15a.27.27 0 01.08.19z" fill="#b3b3b3" data-name="aplikacja główna"/></g></svg>