<svg xmlns="http://www.w3.org/2000/svg" viewBox="0 0 36 36"><g data-name="Layer 2"><g data-name="aplikacja główna" fill="#b3b3b3"><path d="M8 11.4h20v1H8zm0 6.1h20v1H8zm0 6.1h20v1H8z"/><path d="M31 31H5V5h26zM7 29h22V7H7z"/><rect x="9" y="9.9" width="2" height="4" rx=".68"/><rect x="13" y="9.9" width="2" height="4" rx=".68"/><rect x="17" y="9.9" width="2" height="4" rx=".68"/><rect x="9" y="16" width="2" height="4" rx=".68"/><rect x="25" y="16" width="2" height="4" rx=".68"/><rect x="13" y="22.1" width="2" height="4" rx=".68"/><rect x="9" y="22.1" width="2" height="4" rx=".68"/><rect x="25" y="22.1" width="2" height="4" rx=".68"/><rect x="21" y="16" width="2" height="4" rx=".68"/></g></g></svg>