<svg xmlns="http://www.w3.org/2000/svg" viewBox="0 0 35 35"><path class="b" d="M2.5 10.5a1 1 0 00-1 1v15a2 2 0 002 2h25a1 1 0 000-2h-24a1 1 0 01-1-1v-14a1 1 0 00-1-1zm26.5 8V17a1.5 1.5 0 00-1.5-1.5A1.5 1.5 0 0029 14v-1.5a2 2 0 00-2-2h-3a1 1 0 000 2h3v2h-1a1 1 0 000 2h1v2h-3a1 1 0 000 2h3a2 2 0 002-2z" fill="#ccc"/><path class="b" d="M20.83 18.5h-3v-2h2a2 2 0 002-2v-2a2 2 0 00-2-2h-3a1 1 0 100 2h3v2h-2a2 2 0 00-2 2v3a1 1 0 001 1h4a1 1 0 000-2zm-7.83 2a1 1 0 001-1v-8a1 1 0 00-1-1h-2a1 1 0 000 2h1v7a1 1 0 001 1z" fill="#ccc"/><path class="b" d="M31.5 6.5h-24a2 2 0 00-2 2v14a2 2 0 002 2h24a2 2 0 002-2v-14a2 2 0 00-2-2zm0 15a1 1 0 01-1 1h-22a1 1 0 01-1-1v-12a1 1 0 011-1h22a1 1 0 011 1z" fill="#ccc"/></svg>