<svg xmlns="http://www.w3.org/2000/svg" viewBox="0 0 36 36"><defs><style>.cls-1{fill:none;}.cls-2{fill:#b3b3b3;}</style></defs><title>counts_1</title><g id="Layer_2" data-name="Layer 2"><g id="aplikacja_główna" data-name="aplikacja główna"><rect class="cls-1" width="36" height="36"/><rect class="cls-2" x="8" y="11.4" width="20" height="1"/><rect class="cls-2" x="8" y="17.5" width="20" height="1"/><rect class="cls-2" x="8" y="23.6" width="20" height="1"/><path class="cls-2" d="M31,31H5V5H31ZM7,29H29V7H7Z"/><rect class="cls-2" x="9" y="9.9" width="2" height="4" rx="0.68"/><rect class="cls-2" x="13" y="9.9" width="2" height="4" rx="0.68"/><rect class="cls-2" x="17" y="9.9" width="2" height="4" rx="0.68"/><rect class="cls-2" x="9" y="16" width="2" height="4" rx="0.68"/><rect class="cls-2" x="25" y="16" width="2" height="4" rx="0.68"/><rect class="cls-2" x="13" y="22.1" width="2" height="4" rx="0.68"/><rect class="cls-2" x="9" y="22.1" width="2" height="4" rx="0.68"/><rect class="cls-2" x="25" y="22.1" width="2" height="4" rx="0.68"/><rect class="cls-2" x="21" y="16" width="2" height="4" rx="0.68"/></g></g></svg>