<svg xmlns="http://www.w3.org/2000/svg" viewBox="0 0 35 35"><path class="b" d="M18.71 27.1h-8.4a1.2 1.2 0 01-1.2-1.2V9.1a1.2 1.2 0 011.2-1.2h6v3.6a3.6 3.6 0 003.6 3.6h3.6v2.4a1.2 1.2 0 002.4 0v-3.67a2 2 0 00-.08-.33v-.1a1.11 1.11 0 00-.22-.34l-7.2-7.2a1.56 1.56 0 00-.34-.23H18a1.12 1.12 0 00-.39-.13h-7.3a3.6 3.6 0 00-3.6 3.6v16.8a3.6 3.6 0 003.6 3.6h8.4a1.2 1.2 0 100-2.4zm0-17.51l3.1 3.11h-1.9a1.2 1.2 0 01-1.2-1.2zm-6 3.11a1.2 1.2 0 000 2.4h1.2a1.2 1.2 0 000-2.4zm7.2 4.8h-7.2a1.2 1.2 0 000 2.4h7.2a1.2 1.2 0 000-2.4zM28 23.85l-2.4-2.4a1.12 1.12 0 00-.4-.25 1.2 1.2 0 00-.91 0 1.12 1.12 0 00-.4.25l-2.4 2.4a1.2 1.2 0 000 1.7 1.21 1.21 0 001.71 0l.35-.36v3.11a1.2 1.2 0 002.4 0v-3.11l.34.36a1.2 1.2 0 001.7 0 1.25 1.25 0 00.01-1.7zm-10.45.85a1.2 1.2 0 000-2.4h-4.8a1.2 1.2 0 000 2.4z" fill="#ccc"/></svg>