<svg xmlns="http://www.w3.org/2000/svg" viewBox="0 0 35 35"><path class="b" d="M14.94 18.78H7.28A1.28 1.28 0 006 20.06v7.66A1.28 1.28 0 007.28 29h7.66a1.28 1.28 0 001.28-1.28v-7.66a1.28 1.28 0 00-1.28-1.28zm-1.27 7.66H8.56v-5.11h5.11zM27.72 6h-7.66a1.28 1.28 0 00-1.28 1.28v7.66a1.28 1.28 0 001.28 1.28h7.66A1.28 1.28 0 0029 14.94V7.28A1.28 1.28 0 0027.72 6zm-1.28 7.67h-5.11V8.56h5.11zm1.28 8.94h-2.55v-2.55a1.28 1.28 0 00-2.56 0v2.55h-2.55a1.28 1.28 0 100 2.56h2.55v2.55a1.28 1.28 0 002.56 0v-2.55h2.55a1.28 1.28 0 000-2.56zM14.94 6H7.28A1.28 1.28 0 006 7.28v7.66a1.28 1.28 0 001.28 1.28h7.66a1.28 1.28 0 001.28-1.28V7.28A1.28 1.28 0 0014.94 6zm-1.27 7.67H8.56V8.56h5.11z" fill="#ccc"/></svg>