<svg xmlns="http://www.w3.org/2000/svg" viewBox="0 0 35 35"><path class="b" d="M16.23 10.4a7.68 7.68 0 011.27-.1c3.81 0 7.4 2.75 9.49 7.2a18.84 18.84 0 01-1.08 2 1.17 1.17 0 00-.2.66 1.21 1.21 0 002.24.6A20.73 20.73 0 0029.4 18a1.21 1.21 0 000-.95C27 11.39 22.42 7.9 17.5 7.9a9.46 9.46 0 00-1.68.15 1.22 1.22 0 00-1 1.4 1.24 1.24 0 001.41 1zM7.56 5.85a1.21 1.21 0 00-1.71 1.71l3.72 3.7A17.48 17.48 0 005.6 17a1.23 1.23 0 000 1c2.42 5.62 7 9.11 11.9 9.11a11.09 11.09 0 006.06-1.84l3.88 3.9a1.2 1.2 0 001.7 0 1.2 1.2 0 000-1.7zm7.62 11l2.94 2.93a2.16 2.16 0 01-.62.09 2.4 2.4 0 01-2.4-2.4 2.57 2.57 0 01.08-.59zm2.32 7.85c-3.82 0-7.4-2.7-9.5-7.2a14.66 14.66 0 013.26-4.5l2.13 2.15a4.8 4.8 0 006.51 6.51l1.9 1.89a8.78 8.78 0 01-4.3 1.15z" fill="#ccc"/></svg>