<svg xmlns="http://www.w3.org/2000/svg" viewBox="0 0 36 36"><defs><style>.cls-1{fill:#b3b3b3;}.cls-2{fill:none;}</style></defs><title>hide</title><g id="Layer_2" data-name="Layer 2"><g id="aplikacja_główna" data-name="aplikacja główna"><path class="cls-1" d="M18,15.29A2.71,2.71,0,1,1,15.29,18,2.71,2.71,0,0,1,18,15.29Zm0-4.53c6.33,0,11.76,4.53,11.76,7.24S24.33,25.24,18,25.24,6.24,20.71,6.24,18,11.67,10.76,18,10.76ZM18,13a5,5,0,1,0,5,5A5,5,0,0,0,18,13ZM10.3,24.12a18.14,18.14,0,0,0,2.19,1L5,32.62A16.83,16.83,0,0,1,3.38,31ZM25.7,11.88a19.08,19.08,0,0,0-2.19-1L31,3.38A18.23,18.23,0,0,1,32.63,5Z"/><rect class="cls-2" width="36" height="36"/></g></g></svg>