<svg xmlns="http://www.w3.org/2000/svg" viewBox="0 0 35 35"><path d="M15.45 23.11l-1.77 1.72a2.47 2.47 0 01-3.5-3.5l4.54-4.55a2.46 2.46 0 013.39-.09l.12.1a1 1 0 001.41 0 1 1 0 000-1.42l-.18-.21a4.47 4.47 0 00-6.09.22l-4.6 4.55a4.48 4.48 0 006.33 6.33l1.73-1.69a1 1 0 00-1.37-1.45zM26.14 8.87a4.49 4.49 0 00-6.33 0l-1.73 1.69A1 1 0 0019.45 12l1.73-1.72a2.47 2.47 0 013.5 3.5l-4.54 4.55a2.46 2.46 0 01-3.39.09l-.12-.1a1 1 0 00-1.42 0 1 1 0 000 1.41 1.51 1.51 0 00.23.21 4.47 4.47 0 006.09-.22l4.57-4.52a4.49 4.49 0 00.04-6.33z" fill="#ccc"/></svg>