<svg xmlns="http://www.w3.org/2000/svg" viewBox="0 0 29.87 29.87"><g data-name="Layer 2"><path d="M12.81 26.35a1.6 1.6 0 01-1.59-1.6v-1.59H7a1.59 1.59 0 01-1.59-1.59V7.24A1.6 1.6 0 017 5.64h1.83s.53-.06.53-.79A1.58 1.58 0 0111 3.52h4.2a1.83 1.83 0 011.59 1.59v-.26c0 .73.53.79.53.79h1.86a1.6 1.6 0 011.59 1.6V11l3.72 3.72v10.03a1.6 1.6 0 01-1.59 1.6zm0-15.4v13.8H22.9v-7.43h-5.84V11zm10.09 4.78l-4.25-4.25v4.25zm-13-8h6.37a2.27 2.27 0 01-.53-1.33 1.33 1.33 0 00-1.34-1.29h-2.65a1.34 1.34 0 00-1.33 1.33 2.27 2.27 0 01-.53 1.33z" fill="#b3b3b3" data-name="aplikacja główna"/></g></svg>