<svg xmlns="http://www.w3.org/2000/svg" viewBox="0 0 36 36"><g data-name="Layer 2"><path d="M17.37 28.67c-1.29 1.19-3.58 3.62-2 3.2 2.51-1.5 4.08-6.34 5.35-9.57-1.48-3.3-.05-5.86 1.08-5.94 1.38-.09 1.74 2.52 1.74 2.52S22 17.73 21.75 17c-.26.07-.55 2.21.23 4.58a10.25 10.25 0 001.37-2.28s1.14 1.14-.57 2.88a15.86 15.86 0 002.72 3.9c4.77-1.28 5 1.23 5 1.23-.74-.67-2.37-.74-4.18-.54a6.85 6.85 0 004.22.8c0 .94-3.1 2-5.38-.19a34.23 34.23 0 00-5.8 1.81c-2.59 4.52-5.42 4.16-5.8 3.08-.68-1.8 3.81-3.6 3.81-3.6zm4.42-5.54l-1.69 4.66a31.84 31.84 0 014-1.21c-.58-.47-1.16-1.04-2.31-3.45zM8 6h13.36l7.33 7.34V25l-2.3.15v-9.39h-7.48V8.29h-8.62v19.55h6l-2.59 2.3H8zm11.5 24.16v-.29l5.18-1.73 4 2zM21.21 9v4.46h4.46z" fill="#b3b3b3" data-name="aplikacja główna"/></g></svg>