<svg xmlns="http://www.w3.org/2000/svg" viewBox="0 0 36 36"><defs><style>.cls-1{fill:none;}.cls-2{fill:#b3b3b3;}</style></defs><title>PDF</title><g id="Layer_2" data-name="Layer 2"><g id="aplikacja_główna" data-name="aplikacja główna"><rect class="cls-1" width="36" height="36"/><path class="cls-2" d="M17.37,28.67c-1.29,1.19-3.58,3.62-2,3.2,2.51-1.5,4.08-6.34,5.35-9.57-1.48-3.3-.05-5.86,1.08-5.94,1.38-.09,1.74,2.52,1.74,2.52S22,17.73,21.75,17c-.26.07-.55,2.21.23,4.58a10.25,10.25,0,0,0,1.37-2.28s1.14,1.14-.57,2.88a15.86,15.86,0,0,0,2.72,3.9c4.77-1.28,5,1.23,5,1.23-.74-.67-2.37-.74-4.18-.54a6.85,6.85,0,0,0,4.22.8c0,.94-3.1,2-5.38-.19a34.23,34.23,0,0,0-5.8,1.81c-2.59,4.52-5.42,4.16-5.8,3.08C12.88,30.47,17.37,28.67,17.37,28.67Zm4.42-5.54L20.1,27.79a31.84,31.84,0,0,1,4-1.21C23.52,26.11,22.94,25.54,21.79,23.13ZM8,6H21.36l7.33,7.34V25l-2.3.15V15.76H18.91V8.29H10.29V27.84h6l-2.59,2.3H8Zm11.5,24.16v-.29l5.18-1.73,4,2ZM21.21,9v4.46h4.46Z"/></g></g></svg>