<svg xmlns="http://www.w3.org/2000/svg" viewBox="0 0 36 36"><g data-name="Layer 2"><path d="M18 9a9 9 0 011.57.13l1.31-3.23 3.45 1.4L23 10.52A8.93 8.93 0 0125.48 13l3.22-1.3 1.4 3.45-3.22 1.31a9.55 9.55 0 010 3.14l3.22 1.31-1.4 3.45L25.48 23a8.92 8.92 0 01-2.19 2.27l1.41 3.17L21.3 30l-1.42-3.17A9.59 9.59 0 0118 27a9 9 0 01-1.57-.13l-1.31 3.23-3.45-1.4L13 25.48A8.93 8.93 0 0110.52 23L7.3 24.33l-1.4-3.45 3.22-1.31a9.55 9.55 0 010-3.14L5.9 15.12l1.4-3.45L10.52 13a8.92 8.92 0 012.19-2.27l-1.41-3.2L14.7 6l1.42 3.17A9.59 9.59 0 0118 9zm0 2.79A6.22 6.22 0 1024.22 18 6.23 6.23 0 0018 11.78z" fill="#b3b3b3" data-name="aplikacja główna"/></g></svg>