<svg xmlns="http://www.w3.org/2000/svg" viewBox="0 0 36 36"><defs><style>.cls-1{fill:none;}.cls-2{fill:#b3b3b3;}</style></defs><title>properties</title><g id="Layer_2" data-name="Layer 2"><g id="aplikacja_główna" data-name="aplikacja główna"><rect class="cls-1" width="36" height="36"/><path class="cls-2" d="M18,9a9,9,0,0,1,1.57.13L20.88,5.9l3.45,1.4L23,10.52A8.93,8.93,0,0,1,25.48,13l3.22-1.3,1.4,3.45-3.22,1.31a9.55,9.55,0,0,1,0,3.14l3.22,1.31-1.4,3.45L25.48,23a8.92,8.92,0,0,1-2.19,2.27l1.41,3.17L21.3,30l-1.42-3.17A9.59,9.59,0,0,1,18,27a9,9,0,0,1-1.57-.13L15.12,30.1l-3.45-1.4L13,25.48A8.93,8.93,0,0,1,10.52,23L7.3,24.33,5.9,20.88l3.22-1.31a9.55,9.55,0,0,1,0-3.14L5.9,15.12l1.4-3.45L10.52,13a8.92,8.92,0,0,1,2.19-2.27L11.3,7.53,14.7,6l1.42,3.17A9.59,9.59,0,0,1,18,9Zm0,2.79A6.22,6.22,0,1,0,24.22,18,6.23,6.23,0,0,0,18,11.78Z"/></g></g></svg>