<svg xmlns="http://www.w3.org/2000/svg" viewBox="0 0 35 35"><path class="b" d="M31 19.5a1 1 0 00-.91.6 4.06 4.06 0 00-2.09-.6 4 4 0 102.64 7 1 1 0 00.1-1.41 1 1 0 00-1.42-.1 2 2 0 01-1.32.51 2 2 0 11.07-4 2.05 2.05 0 01.93.25h-.2a1 1 0 100 2H31a1 1 0 001-1V20.5a1 1 0 00-1-1z" fill="#ccc"/><path class="a" fill="transparent" d="M9.5 9.5h4v16h-4zm6 0h4v16h-4z"/><path class="b" d="M26.5 7.5h-18a1 1 0 00-1 1v18a1 1 0 001 1h13.81a1 1 0 100-2h-.81v-16h4v7a1 1 0 002 0v-8a1 1 0 00-1-1zm-13 18h-4v-16h4zm6 0h-4v-16h4z" fill="#ccc"/></svg>