<svg xmlns="http://www.w3.org/2000/svg" viewBox="0 0 36 36"><g data-name="Layer 2"><g data-name="aplikacja główna" fill="#b3b3b3"><path d="M6 29.15h24V6.85H6zM13.71 8.7h2.86a1.08 1.08 0 010 2.15h-2.86a1.08 1.08 0 010-2.15zm-4.29-.35A1.43 1.43 0 118 9.78a1.43 1.43 0 011.42-1.43zM8 12.71h20v14.23H8z"/><path d="M18 14.87a5 5 0 013.61 1.55V14L23 15.32v3.6h-3.65L18 17.57h2.52a3.39 3.39 0 00-5.87 1.81h-1.59A5 5 0 0118 14.87zm0 8.34a3.39 3.39 0 003.35-2.93h1.59a5 5 0 01-8.55 2.95v2.46L13 24.33v-3.6h3.61L18 22.08h-2.52A3.38 3.38 0 0018 23.21z"/></g></g></svg>