<svg xmlns="http://www.w3.org/2000/svg" viewBox="0 0 35 35"><path class="b" d="M27.73 12.8a3.16 3.16 0 00-.66-1l-3.83-3.87A3.59 3.59 0 0021 7H8.31A1.3 1.3 0 007 8.31v18.38A1.3 1.3 0 008.31 28h18.38A1.3 1.3 0 0028 26.69V14a3.16 3.16 0 00-.27-1.2zm-12-3.61a.44.44 0 01.44-.44h2.62a.44.44 0 01.44.44v4.37a.44.44 0 01-.44.44h-2.6a.44.44 0 01-.44-.44V9.19zm7 17.06H12.25V21h10.5zm3.5 0H24.5v-5.69a1.3 1.3 0 00-1.31-1.31H11.81a1.3 1.3 0 00-1.31 1.31v5.69H8.75V8.75h1.75v5.69a1.3 1.3 0 001.31 1.31h7.88A1.3 1.3 0 0021 14.44V8.75a2.08 2.08 0 011 .41L25.84 13a1.49 1.49 0 01.27.47 1.38 1.38 0 01.14.53v12.25z" fill="#ccc"/></svg>