<svg xmlns="http://www.w3.org/2000/svg" viewBox="0 0 35 35"><g fill="#ccc"><path d="M15.1 24.7a1.2 1.2 0 001.2-1.2V19a1.2 1.2 0 00-2.4 0v4.5a1.2 1.2 0 001.2 1.2zm4.8 0a1.2 1.2 0 001.2-1.2V19a1.2 1.2 0 00-2.4 0v4.5a1.2 1.2 0 001.2 1.2zM17.15 1.33a1.2 1.2 0 00-1.7 0l-3.39 3.4-.85-.85a3.59 3.59 0 00-5.09 0l-1.7 1.69a3.6 3.6 0 000 5.1l.85.84-3.4 3.4a1.2 1.2 0 001.7 1.7l.85-.85 1.7-1.7 8.48-8.48 1.7-1.7.85-.88a1.2 1.2 0 000-1.67zm-6.79 5.09L7 9.82 6.12 9a1.2 1.2 0 010-1.7l1.69-1.72a1.2 1.2 0 011.7 0z"/><path d="M24.7 12.84A1.2 1.2 0 0023.5 14v11.9a1.2 1.2 0 01-1.2 1.2h-9.6a1.2 1.2 0 01-1.2-1.2V14a1.2 1.2 0 00-2.4 0v11.9a3.6 3.6 0 003.6 3.6h9.6a3.6 3.6 0 003.6-3.6V14a1.2 1.2 0 00-1.2-1.16z"/><path d="M17 6.66a1.24 1.24 0 00-.39.25l-3 3a1.2 1.2 0 001.7 1.7l1-1v4.72a1.2 1.2 0 002.4 0v-4.68l.94 1a1.21 1.21 0 001.7 0 1.21 1.21 0 000-1.7l-3-3a1 1 0 00-.4-.25 1.2 1.2 0 00-.95-.04z"/></g></svg>