<svg xmlns="http://www.w3.org/2000/svg" viewBox="0 0 36 36"><path d="M26.14 11.93h-1.28a.77.77 0 01-.52-.52 6.22 6.22 0 00-.43-1A.76.76 0 0124 9.5l.77-.78a.74.74 0 000-1.05l-1-1a.74.74 0 00-1.05 0l-.78.77a.73.73 0 01-.87.12 6.6 6.6 0 00-1-.43.76.76 0 01-.55-.72V5.28a.74.74 0 00-.74-.74h-1.52a.74.74 0 00-.74.74v1.09a.76.76 0 01-.55.72 6.6 6.6 0 00-1 .43.73.73 0 01-.87-.12l-.78-.77a.74.74 0 00-1 0l-1 1a.74.74 0 000 1.05l.68.82a.76.76 0 01.12.88 6.22 6.22 0 00-.43 1 .77.77 0 01-.52.52H9.86a.74.74 0 00-.74.74v1.51a.75.75 0 00.74.75h1.28a.78.78 0 01.52.51 6.7 6.7 0 00.43 1 .74.74 0 01-.12.87l-.77.78a.74.74 0 000 1.05l1 1.05a.74.74 0 001 0l.78-.78a.74.74 0 01.87-.12 6.6 6.6 0 001 .43.77.77 0 01.55.72v1.09a.74.74 0 00.74.74h1.48a.74.74 0 00.74-.74v-1.02a.77.77 0 01.55-.72 6.6 6.6 0 001-.43.74.74 0 01.87.12l.78.78a.74.74 0 001.05 0l1-1.05a.74.74 0 000-1.05l-.61-.78a.74.74 0 01-.12-.87 6.7 6.7 0 00.43-1 .78.78 0 01.52-.51h1.28a.75.75 0 00.74-.75v-1.55a.74.74 0 00-.71-.74zM18 16.52a3.1 3.1 0 113.09-3.09A3.09 3.09 0 0118 16.52z" fill="#ffd550"/><path d="M28.23 19.62v3.23h-4.84a.55.55 0 00-.53.41L22.43 25h-8.86l-.43-1.74a.55.55 0 00-.53-.41H7.77v-3.23h2.44l2.08 2.07a.53.53 0 00.7 0l1.7-1.27a9.11 9.11 0 00.86.35l.3 2.1a.55.55 0 00.53.47h3.24a.55.55 0 00.53-.47l.3-2.1a9.11 9.11 0 00.86-.35L23 21.74a.53.53 0 00.7 0l2.08-2.07z" fill="#4d4d4d"/><path d="M2.92 33.08a.54.54 0 00.54.54h29.08a.54.54 0 00.54-.54v-9.16h-9.27l-.44 1.75a.54.54 0 01-.52.41h-9.7a.54.54 0 01-.52-.41l-.44-1.75H2.92zm9.69-4.85h10.78a1.62 1.62 0 010 3.23H12.61a1.62 1.62 0 010-3.23z" fill="#4d4d4d"/><path d="M12.61 30.39h10.78a.54.54 0 000-1.08H12.61a.54.54 0 000 1.08zm16.7-7.54h2.89l-2.89-2.57zm-25.51 0h2.89v-2.57zM3.46 9.07v4.08h1.08V9.07l.69.69L6 9 4.38 7.39a.54.54 0 00-.76 0L2 9l.76.76zm0 5.16h1.08v1.08H3.46zm0 2.15h1.08v1.08H3.46zM7.23 4.22v4.09h1.08V4.22l.69.7.76-.77-1.61-1.61a.54.54 0 00-.76 0L5.77 4.15l.76.77zm0 5.7h1.08V11H7.23zm23.54-.16l.69-.69v4.08h1.08V9.07l.7.69L34 9l-1.62-1.61a.54.54 0 00-.76 0L30 9zm.69 4.47h1.08v1.08h-1.08zm0 2.15h1.08v1.08h-1.08zM27.69 4.22v4.09h1.08V4.22l.7.7.76-.77-1.62-1.61a.54.54 0 00-.76 0l-1.61 1.61.76.77zm0 5.7h1.08V11h-1.08z" fill="#4d4d4d"/></svg>